<svg fill="none" height="64" viewBox="0 0 64 64" width="64" xmlns="http://www.w3.org/2000/svg"><g fill="#408f95"><path d="m16.8257 41.024c-.5926-.0132-1.1712-.1832-1.6768-.4928l-10.33597-6.0288c-.46758-.1938-.86719-.522-1.14833-.9429-.28115-.4209-.4312-.9157-.4312-1.4219 0-.5061.15005-1.001.4312-1.4219.28114-.4209.68075-.749 1.14833-.9429l4.2048-2.432c1.85937-1.0158 3.83407-1.8043 5.88157-2.3488l7.424-1.7856c2.0934-.439 4.2446-.5319 6.368-.2752l9.536 1.4336c1.7025.1477 3.4088-.2369 4.8832-1.1008l3.392-2.2848c.2114-.1426.4707-.1954.7209-.1467.2503.0486.471.1946.6135.4059.1426.2113.1954.4707.1468.7209-.0486.2503-.1946.4709-.406.6135l-3.4176 2.2848c-1.8661 1.124-4.0477 1.6093-6.2144 1.3824l-9.536-1.408c-1.8784-.2166-3.7792-.1345-5.632.2432l-7.4176 1.8048c-1.8681.5006-3.6704 1.2203-5.36957 2.144l-4.2304 2.4128c-.15486.0582-.29365.1524-.40493.2748s-.19185.2695-.23507.4292c.04322.1597.12379.3068.23507.4292s.25007.2166.40493.2748l10.34237 6.0288c.1289.1.2791.1688.439.201s.3251.027.4826-.0154c.1183-.1122.2088-.2505.2644-.4038.0555-.1533.0746-.3174.0556-.4794l.1024-6.7328c0-.2546.1012-.4988.2812-.6788s.4242-.2812.6788-.2812.4988.1012.6789.2812c.18.18.2811.4242.2811.6788l-.0832 6.7584c.0343.5021-.0663 1.0042-.2914 1.4543s-.5664.8319-.9886 1.1057c-.3628.1891-.7688.2796-1.1776.2624z"/><path d="m54.6371 32.7296c-.5199.0014-1.0351-.0986-1.5168-.2944l-1.6448-.64c-1.5872-.64-4.0384-1.728-5.4784-2.432l-2.56-1.28c-.1193-.0515-.227-.1267-.3165-.2211-.0894-.0943-.1587-.2059-.2038-.3279-.045-.1219-.0648-.2518-.0581-.3816.0066-.1299.0396-.257.0969-.3737.0573-.1168.1377-.2206.2363-.3054.0986-.0847.2134-.1485.3375-.1875.124-.039.2546-.0524.384-.0394s.2548.0521.3685.115l2.56 1.28c1.4016.6848 3.8016 1.7536 5.344 2.3744l1.6448.64c.2559.1032.5297.1549.8056.1521.2758-.0027.5485-.0598.8023-.168.2538-.1081.4838-.2653.6768-.4624.1931-.1972.3453-.4304.4481-.6865l2.3168-5.76c.0432-.1222.1106-.2344.1983-.3299.0876-.0954.1937-.1721.3118-.2255.1181-.0533.2458-.0822.3754-.0849s.2584.0209.3786.0693c.1202.0485.2293.1208.3209.2125.0915.0918.1635.2011.2116.3214.0482.1204.0715.2492.0685.3788-.003.1295-.0322.2571-.0859.3751l-2.3168 5.76c-.2981.7403-.8096 1.3753-1.4694 1.8243-.6598.4489-1.4381.6917-2.2362.6973z"/><path d="m59.5197 42.7904c-.1791-.0032-.3538-.0564-.5042-.1537s-.2706-.2347-.347-.3967l-2.1504-4.7936c-.267-.5449-.7145-.9804-1.2664-1.2325-.552-.252-1.1742-.305-1.7608-.1499l-.48.1472c-1.6128.4864-4.2624 1.28-5.8944 1.7088l-3.84 1.056c-.2425.0595-.4986.0221-.714-.1042-.2155-.1262-.3732-.3314-.4398-.5721-.0666-.2406-.0369-.4977.083-.7168.1198-.219.3202-.3828.5588-.4565l3.84-1.056c1.6256-.448 4.2496-1.2096 5.856-1.696l.48-.1472c1.0268-.2776 2.1183-.1877 3.0858.254.9676.4417 1.7505 1.2076 2.2134 2.1652l2.1504 4.7936c.0648.1457.0924.3052.0801.4641-.0122.159-.0639.3124-.1502.4464-.0864.134-.2048.2444-.3445.3212s-.2964.1176-.4558.1187z"/><path d="m31.4239 43.2704c-.7787.0084-1.5559-.0711-2.3168-.2368l-8.2496-1.92c-.2478-.0586-.4622-.2132-.596-.4298-.1339-.2167-.1762-.4776-.1176-.7254s.2132-.4622.4298-.5961c.2167-.1338.4776-.1761.7254-.1175l8.2496 1.92c1.7626.3262 3.5786.2119 5.2864-.3328l2.0672-.7744c1.8604-.672 3.8731-.8029 5.8048-.3776l2.3232.7104c.2453.0755.4505.2454.5705.4722.12.2269.145.4921.0695.7374s-.2454.4505-.4723.5705c-.2268.12-.492.145-.7373.0695l-2.3232-.7104c-1.5262-.2968-3.104-.1797-4.5696.3392l-2.0608.7552c-1.3152.4428-2.6955.6614-4.0832.6464z"/><path d="m11.5137 32.8256c.7281 0 1.3184-.5903 1.3184-1.3184s-.5903-1.3184-1.3184-1.3184-1.3184.5903-1.3184 1.3184.5903 1.3184 1.3184 1.3184z"/><path d="m24.1029 36.1344c-.2177.0009-.4292-.0722-.5998-.2072-.1707-.1351-.2904-.3242-.3395-.5362s-.0247-.4344.0692-.6308c.0939-.1963.2518-.3549.4477-.4498l3.6992-1.7856h-2.4192-3.2832c-.1261-.0008-.2508-.0265-.3669-.0755-.1162-.049-.2215-.1204-.3101-.2102-.0885-.0897-.1586-.196-.206-.3128-.0475-.1168-.0715-.2418-.0706-.3679-.0009-.1265.0236-.252.072-.3689.0484-.117.1198-.223.2098-.3119.0901-.0889.1971-.1588.3147-.2057.1176-.0468.2433-.0697.3699-.0671h3.2832 3.6608 1.1968c1.0368 0 1.6.32 1.7536.9664s-.2368 1.2032-1.1456 1.6448l-5.8816 2.8416c-.143.0621-.299.0885-.4544.0768z"/></g></svg>