<svg fill="none" height="138" viewBox="0 0 301 138" width="301" xmlns="http://www.w3.org/2000/svg" xmlns:xlink="http://www.w3.org/1999/xlink"><clipPath id="a"><path d="m0 0h301v138h-301z" transform="matrix(-1 0 0 1 301 0)"/></clipPath><g clip-path="url(#a)" fill="#408f95"><path d="m237.054 15.3347c.261 0 .512-.1465.632-.396.376-.7757.524-1.5514.447-2.2999-.398-3.8296-6.369-5.73896-10.732-7.13301-4.603-1.46999-9.478-2.31618-14.484-2.51146-.371-.02712-.715.28207-.731.67262-.016.38512.289.71058.676.72686 4.881.18985 9.626 1.00892 14.108 2.44094 3.539 1.13368 9.467 3.02677 9.767 5.95045.049.4936-.054 1.0144-.316 1.5568-.169.3472-.022.7648.327.933.098.0488.202.0705.306.0705z"/><path d="m158.399 19.6144h.082c1.129-.1302 2.258-.3634 3.354-.6997 1.456-.4448 2.541-.9873 2.999-1.2151l.153-.0759c4.968-2.3976 10.094-4.6107 15.231-6.5689 4.728-1.80085 8.469-3.22744 13.498-4.47503 5.306-1.31269 10.803-2.12091 16.332-2.39213.388-.0217.688-.34715.666-.73228s-.344-.68346-.736-.66177c-5.623.27664-11.207 1.09571-16.606 2.43552-5.115 1.26929-8.884 2.70673-13.661 4.52388-5.175 1.97441-10.339 4.19841-15.34 6.61221l-.169.0814c-.469.2332-1.445.7214-2.787 1.1337-1.014.3092-2.056.5261-3.103.6455-.387.0434-.66.3905-.616.7702.038.358.343.6184.698.6184z"/><path d="m224.075 27.7075c.109 0 .218-.0271.321-.0759 1.205-.6238 3.005-1.5785 4.712-2.5983.453-.2712 1.298-.7702 2.389-1.5025.332-.2224.692-.4665 1.063-.7377 1.331-.9439 2.618-1.9691 3.834-3.0431.032-.0325.065-.0651.092-.103.06-.076.153-.1899.273-.3309 1.233-1.4863 2.394-3.0322 1.909-4.1388-.153-.3525-.529-.7811-1.434-.8299-.393-.0271-.72.2712-.742.6564-.022.3851.273.716.66.7377.114.0054.185.0217.229.0325 0 .2495-.256.9059-1.707 2.6525-.109.1302-.196.2387-.262.32-1.167 1.0252-2.399 2.0016-3.67 2.9075-.365.2603-.709.4936-1.031.716-1.058.7106-1.881 1.1987-2.323 1.4645-1.679.9981-3.446 1.9419-4.635 2.5549-.344.179-.48.5967-.3.9438.125.2387.371.3797.622.3797z"/><path d="m196.115 31.781c6.86 0 13.448-.7703 13.53-.7811 4.139-.5153 8.316-1.2747 12.406-2.2565.377-.0923.611-.4665.518-.8408-.092-.3743-.469-.6075-.845-.5153-4.041.9709-8.164 1.7195-12.248 2.224-.088.0108-9.364 1.0957-17.282.6726-2.454-.1302-4.946-.4286-7.4-.895-1.096-.2062-1.691-.3526-4.183-.9547l-3.016-.7323c-.987-.2387-1.848-.4557-2.612-.6455-2.279-.5696-3.785-.9493-5.246-1.0523-2.165-.1519-4.374.0325-6.555.5533-.376.0867-.611.4665-.518.8407.087.3743.463.6076.845.5153 2.045-.4827 4.107-.6563 6.13-.5153 1.341.0922 2.721.4394 5 1.0144.769.1953 1.636.4122 2.624.6509l3.015.7323c2.46.5967 3.12.7594 4.254.9709 2.514.4719 5.066.7811 7.586.9167 1.314.0706 2.661.0977 3.997.0977z"/><path d="m156.191 19.6631c.3 0 .578-.1953.671-.4936.114-.3689-.093-.7594-.464-.8734-1.636-.499-10.165-3.0484-17.195-4.079-3.43-.5045-5.944-.5533-8.681-.1736-.895.1247-1.789.2983-2.662.5099-.376.0922-.605.4719-.512.8462.092.3742.469.6075.851.5098.823-.2007 1.674-.3634 2.524-.4827 2.596-.3634 4.996-.3146 8.284.1681 6.926 1.0198 15.368 3.5367 16.987 4.0357.071.0217.137.0326.208.0326z"/><path d="m135.991 45.0493c.05 0 .099 0 .148-.0163 3.141-.6726 8.485-3.26 10.437-5.0446 1.686-1.253 3.033-2.2457 4.178-3.0918 3.964-2.9237 5.606-4.1279 10.814-8.4891.294-.2495.332-.6889.087-.9818-.251-.2929-.692-.3309-.987-.0868-5.175 4.3286-6.806 5.5328-10.749 8.4348-1.156.8516-2.514 1.8497-4.215 3.119-.022.0163-.038.0326-.06.0488-1.756 1.6273-6.888 4.1008-9.805 4.7246-.382.0814-.622.4502-.54.8299.071.3255.36.5533.687.5533z"/><path d="m135.991 45.0493c.186 0 .377-.0759.513-.2224 1.827-1.9365 4.172-5.1965 4.952-9.7312.234-1.3561.779-4.5293-.502-8.1365-1.173-3.2925-3.218-5.1965-5.584-7.4042-2.078-1.9365-4.439-3.5963-7.024-4.9415-.344-.179-.769-.0488-.949.2929s-.049.7648.294.9438c2.471 1.2856 4.728 2.8749 6.713 4.7246 2.324 2.1643 4.161 3.8784 5.219 6.8509 1.162 3.2654.66 6.1891.442 7.4367-.72 4.193-2.896 7.2144-4.592 9.0098-.267.2821-.251.7215.033.9873.136.1247.311.1898.48.1898z"/><path d="m145.791 23.2272c.207 0 .409-.0868.545-.2604.246-.2983.197-.7377-.103-.9818-1.194-.9601-2.503-1.7792-3.888-2.4247-1.669-.7811-3.442-1.3181-5.268-1.6001-.382-.0597-.742.2007-.802.5858-.06.3797.202.7377.589.7974 1.696.2603 3.337.7594 4.886 1.4862 1.282.6021 2.498 1.3561 3.605 2.2511.131.1031.283.1573.442.1573z"/><path d="m142.917 38.3882c.147 0 .3-.0489.431-.1465 1.516-1.1662 4.21-3.6777 5.17-7.3988.294-1.1499.916-3.5475-.169-5.9938-.153-.3418-.333-.6781-.535-.9927-.212-.3254-.643-.4177-.97-.2061-.328.2115-.42.6401-.208.9655.164.2495.311.5208.431.7974.889 2.007.371 4.0086.093 5.088-.856 3.3197-3.294 5.587-4.668 6.6394-.306.2332-.366.6726-.126.9818.137.179.344.2712.557.2712z"/><path d="m212.11 23.3951c.147 0 .294 0 .447-.0109 3.19-.1356 5.448-1.6652 6.511-2.5657.295-.2495.333-.6889.082-.9818s-.692-.3309-.987-.0813c-.927.7865-2.896 2.1154-5.661 2.2348-2.775.1139-4.662-1.0415-5.911-1.8117-.682-.4231-.944-.6781-1.031-.792.207-.2332 1.102-.6401 4.003-1.1554 2.607-.461 5.35-.5749 8.153-.3363.387.0271.725-.2495.758-.6346s-.251-.7215-.638-.754c-2.923-.2495-5.792-.1302-8.518.3526-2.667.4719-5.072 1.0198-5.187 2.4626-.054.6564.464 1.2693 1.724 2.045 1.249.7702 3.299 2.0287 6.26 2.0287z"/><path d="m224.445 24.4096c.246 0 .486-.1302.617-.358.191-.3363.065-.7648-.273-.9492-2.154-1.188-3.948-2.7773-5.339-4.7084-.736-1.0252-1.352-2.1426-1.821-3.3251-.142-.358-.551-.5315-.911-.3905s-.534.5478-.393.9058c.518 1.2856 1.184 2.5061 1.985 3.6181 1.511 2.1046 3.463 3.8295 5.797 5.1205.109.0597.224.0868.338.0868z"/><path d="m230.897 10.5503c-.104-.60753-.682-1.01436-1.287-.91129-.611.10306-1.02.67799-.916 1.28009.103.6076.681 1.0144 1.287.9113.61-.103 1.019-.678.916-1.2801z"/><path d="m199.431 36.8803c1.227-.0163 2.421-.1139 3.599-.2929 1.614-.2441 3.217-.6455 4.761-1.1934 5.671-2.007 8.774-3.7373 13.911-6.6013.338-.1899.458-.613.268-.9493-.191-.3363-.617-.4556-.955-.2658-5.246 2.9237-8.136 4.5347-13.699 6.5038-1.461.5153-2.972.895-4.499 1.1282-1.112.1682-2.241.2604-3.365.2767-1.281-.0489-1.897-.2224-2.175-.3472.343-.2332 1.221-.6889 3.419-1.3778.371-.1139.572-.5099.458-.8733-.115-.3688-.513-.575-.878-.4556-3.534 1.1065-4.728 1.8659-4.565 2.8911.208 1.2802 2.225 1.5026 3.725 1.5622z"/><path d="m197.288 33.8315c.436 0 .85-.0217 1.243-.0434 5.633-.3471 10.181-1.5405 10.372-1.5947 2.122-.5642 4.248-1.253 6.321-2.045.36-.141.54-.5424.403-.9004-.141-.358-.545-.537-.905-.4014-2.029.7756-4.106 1.4483-6.179 2.0015-.185.0489-4.597 1.2097-10.094 1.546-1.265.0759-2.628.1085-4.226-.4557-.867-.3037-1.691-.7485-2.443-1.3181-.311-.2332-.747-.1736-.982.1356-.234.3092-.174.7432.136.9764.867.6563 1.816 1.1662 2.82 1.5188 1.303.4611 2.486.5804 3.539.5804z"/><path d="m174.116 36.8798c1.832 0 3.654-.179 5.459-.537 3.986-.7973 7.836-2.5006 11.136-4.9252.311-.2279.376-.6672.147-.9764s-.671-.3743-.982-.1465c-3.135 2.3054-6.789 3.9272-10.574 4.6812-2.846.5696-5.753.6618-8.643.2875.109-.933.425-2.5874 1.298-3.7807.25-.3418.665-.9113 1.396-1.3724.19-.1248.338-.1953.736-.3905l.278-.1357c.796-.3959 1.44-.7268 1.865-.9492.344-.179.474-.6021.294-.9438-.179-.3418-.605-.472-.948-.293-.42.2224-1.053.5479-1.838.933l-.273.1356c-.42.2062-.611.2984-.872.4665-.955.6075-1.489 1.3344-1.773 1.725-1.358 1.8442-1.587 4.4208-1.625 5.1639-.016.358.24.6726.595.7269 1.439.2224 2.884.3363 4.33.3363z"/><path d="m167.997 14.8521c1.031 0 2.127-.0705 3.349-.2007.387-.0433.665-.3851.621-.7702-.043-.3851-.387-.6672-.774-.6184-1.178.1248-2.225.1899-3.207.1953-.387 0-.698.3146-.698.6997 0 .3852.317.6943.704.6943z"/><path d="m167.376 6.927c.071 0 .147-.01085.218-.03255.785-.26036 1.57-.52616 2.356-.79737 2.165-.74313 4.406-1.51338 6.729-2.02327 10.111-2.04497 19.96-2.92371 29.263-2.6091.382.01085.715-.28748.725-.672611.011-.385127-.289-.7105855-.676-.7214341-9.407-.3200349-19.37.5641291-29.601 2.6362151-2.416.53158-4.69 1.31269-6.893 2.07209-.78.26579-1.56.53701-2.339.79195-.371.11934-.568.51531-.448.87874.099.29291.371.48276.666.48276z"/><path d="m220.939 5.2941c.267 0 .523-.15188.638-.40682.158-.35258 0-.76483-.349-.92213-1.783-.80823-3.632-1.50254-5.502-2.07209-2.416-.73771-4.909-1.274716-7.417-1.600174-.387-.048819-.736.216972-.785.602098s.218.732286.605.781106c2.427.31461 4.848.83534 7.188 1.55135 1.81.55328 3.61 1.22589 5.333 2.007.093.04339.191.06509.289.06509z"/><path d="m207.033 3.3903c.229 0 .458-.11391.594-.32003.207-.32546.115-.75941-.213-.96553-.147-.09222-.365-.22782-.632-.3797-1.004-.56413-2.089-.992654-3.223-1.280143-.878-.222397-1.783-.3525806-2.694-.3905508-.387-.0162729-.715.2820648-.731.6671908-.016.385123.284.710583.671.726863.818.03254 1.625.15188 2.41.34715 1.015.25494 1.985.64007 2.88 1.13911.24.13561.43.25494.567.33631.114.07594.245.10848.376.10848z"/><path d="m197.255 4.00306c.229 0 .458-.11391.589-.32003.207-.32546.114-.75398-.213-.96553-.147-.09221-.365-.22782-.633-.3797-1.003-.56413-2.088-.99265-3.228-1.28014-.878-.222397-1.783-.35258-2.694-.39055-.387-.021698-.714.282064-.731.66719-.016.38513.284.71059.671.72686.818.03254 1.625.15188 2.41.34715 1.015.25495 1.985.64007 2.88 1.13911.24.13561.431.25494.567.33631.114.07594.251.10848.376.10848z"/><path d="m188.235 5.27262c.229 0 .458-.11391.594-.32003.207-.32546.115-.75398-.212-.96553-.148-.09221-.366-.22782-.633-.3797-1.009-.56413-2.094-.99265-3.228-1.28014-.878-.2224-1.784-.35258-2.694-.39055-.388-.01627-.715.28206-.731.66719-.017.38513.283.71059.671.72686.818.03255 1.625.15188 2.41.34716 1.014.25494 1.985.64007 2.879 1.1391.24.13561.431.25494.568.33631.114.07594.245.10849.376.10849z"/><path d="m174.83 34.0705h.017c2.399-.0597 4.679-.5967 6.767-1.6056.911-.4394 1.784-.9656 2.596-1.5677.311-.2332.376-.6671.142-.9763-.235-.3092-.671-.3743-.982-.1411-.741.5533-1.543 1.0361-2.366 1.4321-1.909.9167-3.992 1.4103-6.19 1.4645-.387.0109-.693.3309-.687.716.011.3797.322.6835.703.6835z"/><path d="m176.096 31.2548c.081 0 .163-.0163.24-.0434l3.997-1.4537c.365-.1302.551-.5316.42-.895s-.54-.5479-.9-.4177l-3.997 1.4537c-.366.1302-.551.5316-.42.895.103.2821.371.4611.66.4611z"/><path d="m166.138 14.7867c.376 0 .692-.2983.703-.678.011-.3852-.294-.7052-.681-.7161-2.645-.0759-3.774-.5858-3.96-1.8117.502-1.67609 1.789-3.03759 3.927-4.155.343-.179.474-.6021.294-.94383s-.605-.47191-.949-.29291c-2.557 1.33438-4.084 3.02134-4.662 5.15314-.022.0813-.027.1681-.022.2495.294 3.0484 3.823 3.1515 5.328 3.1949z"/><path d="m137.104 128.67c.223 0 .441-.108.578-.303.316-.461.49-.95.518-1.449.125-2.451-3.278-4.144-5.764-5.381-2.569-1.28-5.356-2.213-8.279-2.777-.381-.07-.747.174-.823.553-.077.38.174.744.556.82 2.798.542 5.459 1.432 7.918 2.652 1.898.944 5.067 2.522 4.99 4.063-.011.238-.103.483-.272.727-.219.32-.137.754.18.971.12.081.261.124.398.124z"/><path d="m127.626 134.968c.065 0 .136-.011.201-.033 1.304-.396 2.591-.851 3.823-1.356.54-.222 1.276-.526 2.231-1.003.867-.44 1.723-.923 2.53-1.443.038-.027.076-.055.109-.087.038-.038.104-.092.18-.163.916-.813 1.794-1.681 1.571-2.522-.066-.244-.278-.673-.982-.819-.376-.082-.753.157-.834.537-.066.298.076.591.321.743-.147.195-.441.515-1.014 1.02-.065.059-.125.108-.169.152-.753.482-1.543.933-2.35 1.339-.906.456-1.615.749-2.133.96-1.188.489-2.432.933-3.692 1.313-.37.114-.578.505-.469.873.093.304.371.494.671.494z"/><path d="m121.534 135.364c1.86 0 3.73-.076 5.584-.234.388-.032.671-.369.638-.754-.032-.385-.376-.667-.758-.634-2.426.2-4.88.271-7.296.2-.049 0-5.524-.195-10.067-1.144-1.402-.293-2.814-.684-4.188-1.172-.611-.217-.944-.352-2.34-.927l-1.685-.695c-.474-.195-.894-.374-1.282-.537-1.2211-.515-2.1045-.889-3.1625-1.16-1.4397-.375-2.9612-.548-4.5317-.51-.3872.01-.6926.331-.6872.716.0109.385.3218.689.7199.683 1.4397-.032 2.8303.125 4.1445.461.9598.25 1.7997.602 2.9667 1.096.3926.168.8183.347 1.2983.542l1.685.695c1.385.569 1.756.721 2.405.949 1.434.504 2.906.917 4.368 1.22 4.668.971 10.083 1.167 10.312 1.172.622.016 1.249.027 1.871.027z"/><path d="m91.7751 124.146h.0273c.3926-.016.7907-.054 1.1779-.108.9216-.136 1.6142-.358 1.9141-.456l.0818-.027c3.0976-.949 6.2718-1.779 9.4288-2.457 2.907-.624 5.203-1.118 8.224-1.394 3.19-.293 6.44-.272 9.663.065.387.038.731-.239.769-.624s-.24-.727-.627-.765c-3.316-.342-6.659-.363-9.936-.065-3.108.282-5.443.787-8.393 1.421-3.201.689-6.413 1.524-9.5487 2.49l-.1036.032c-.2618.087-.878.283-1.6851.402-.3163.049-.638.076-.9543.092-.5181-.092-1.0362-.222-1.5379-.39-.6108-.201-1.0416-.407-1.2052-.483-1.6633-.776-5.4916-2.197-8.8127-3.152-1.8759-.542-3.3156-.857-5.1098-.884-.5399-.011-1.0907.011-1.6251.06-.3872.032-.6708.374-.6381.759.0328.385.3763.667.7635.635.4908-.044.9871-.06 1.4833-.054 1.6306.021 2.9721.32 4.7336.829 3.5938 1.037 7.2475 2.441 8.5891 3.065.2017.092.6871.32 1.3742.548.5944.195 1.2052.347 1.8215.456.0381.005.0763.011.1199.011z"/><path d="m75.6112 136.953c.0927 0 .1909-.022.2836-.06l7.7438-3.411c1.4234-.711 2.8031-1.47 4.1337-2.268.998-.596 2.0014-1.237 2.9666-1.887.3218-.217.4036-.651.1854-.971-.2181-.32-.6544-.402-.9761-.185-.9489.64-1.925 1.264-2.9012 1.85-1.3034.781-2.6558 1.524-4.0137 2.202l-7.7111 3.396c-.3545.157-.5126.569-.3599.922.1145.26.3708.418.6435.418z"/><path d="m75.6113 136.953c.2018 0 .3981-.086.5344-.249 1.4179-1.671 2.5195-3.515 3.2775-5.479.6381-1.649 1.1398-2.951.9271-4.659-.2399-1.931-1.2543-3.211-2.5358-4.833l-.1091-.141c-1.0525-1.335-2.2959-2.528-3.6974-3.553-.3108-.228-.7526-.163-.9816.146-.2291.309-.1636.749.1472.977 1.298.954 2.4541 2.061 3.4248 3.292l.109.141c1.1889 1.508 2.0505 2.598 2.2468 4.144.1691 1.362-.2345 2.403-.8452 3.982-.7035 1.817-1.7288 3.526-3.043 5.082-.2509.293-.2127.738.0818.982.1309.109.2944.163.4526.163z"/><path d="m122.734 131.203c1.609 0 2.852-.602 3.496-.992.327-.201.43-.635.229-.96-.202-.326-.633-.429-.966-.228-.578.352-1.777.922-3.315.754s-2.487-.977-3.12-1.514c-.092-.076-.163-.146-.223-.2.376-.087 1.025-.141 1.947-.163 1.537-.038 3.119.141 4.7.521.377.092.758-.141.851-.516.093-.374-.142-.754-.518-.846-1.701-.412-3.408-.602-5.066-.564-1.778.043-3.267.163-3.512 1.193-.147.63.376 1.177.911 1.633.67.57 1.914 1.622 3.877 1.839.245.027.48.038.709.038z"/><path d="m128.945 132.825c.207 0 .415-.092.557-.271.239-.304.179-.743-.126-.982-1.112-.857-1.985-1.909-2.601-3.119-.327-.64-.573-1.323-.736-2.034-.088-.374-.464-.607-.84-.521-.377.087-.611.462-.524.836.191.819.475 1.605.851 2.349.709 1.399 1.718 2.609 2.994 3.596.125.098.278.146.431.146z"/><path d="m133.226 126.408h.022c.747-.011 1.353-.629 1.342-1.372-.011-.749-.611-1.346-1.38-1.335-.365 0-.703.152-.954.413-.251.26-.388.602-.382.96.011.737.622 1.334 1.358 1.334zm.044-1.356s-.016.038-.044.043c-.021 0-.043-.021-.043-.043zm0 0h-.087s.027-.06.043-.043c.022 0 .044.016.044.043z"/><path d="m115.339 138c.976 0 1.953-.092 2.912-.277 3.507-.667 5.476-1.399 8.737-2.614.365-.136.545-.537.409-.901-.137-.363-.54-.542-.906-.407-3.304 1.232-5.12 1.904-8.507 2.55-.878.168-1.75.249-2.667.249-.649 0-1.303-.048-1.946-.135-.399-.055-.764-.179-.977-.282.273-.25.955-.705 2.351-1.302.354-.152.523-.564.365-.917-.153-.352-.567-.521-.921-.363-3.142 1.339-3.431 2.197-3.3 2.853.207 1.025 1.8 1.329 2.28 1.394.714.098 1.467.146 2.159.152z"/><path d="m100.953 135.782c.251 0 .502-.006.753-.017 2.432-.108 4.87-.77 7.046-1.909.343-.179.474-.602.294-.944s-.605-.472-.949-.293c-1.996 1.042-4.226 1.649-6.457 1.747-1.576.07-3.1518-.103-4.6842-.515.1964-.597.5127-1.259.9435-1.687.1745-.174.4308-.434.8507-.613.1254-.055.2181-.082.4308-.152l.1745-.055c.5017-.157.9057-.292 1.1777-.385.366-.124.562-.52.437-.889-.126-.364-.524-.559-.895-.434-.2616.092-.6597.222-1.145.38l-.1745.054c-.2891.092-.4091.13-.5781.206-.6544.287-1.0743.705-1.2761.906-1.0143 1.014-1.3961 2.56-1.4888 3.01-.0709.353.1309.7.4745.808 1.6469.521 3.3484.782 5.061.782z"/><path d="m98.8808 122.411c.3709 0 .6817-.293.7035-.667.0164-.386-.2836-.711-.6708-.733-.6871-.032-1.2924-.086-1.8541-.173-.3817-.055-.7417.206-.7962.586-.0545.379.2072.737.589.791.6107.093 1.2652.152 1.9959.185h.0327z"/><path d="m96.9557 122.232c.3654 0 .6763-.283.6981-.651.0272-.385-.2672-.716-.6544-.743-1.8051-.114-2.7104-.7-2.7867-1.194-.0709-.455.5562-1.22 2.0995-1.833.36-.141.5345-.548.3927-.906s-.5508-.532-.9107-.391c-2.0614.814-3.1739 2.062-2.9667 3.347.2127 1.335 1.7397 2.219 4.0846 2.365h.0436z"/><path d="m120.258 117.827c.322 0 .611-.222.682-.542.087-.375-.153-.749-.529-.836-5.863-1.318-11.779-1.692-17.593-1.112-1.63.163-3.2773.402-4.8915.716-.3817.076-.6271.44-.5562.819.0763.38.4417.624.8234.554 1.5706-.304 3.1743-.537 4.7663-.7 5.661-.564 11.43-.201 17.14 1.085.055.011.104.016.153.016z"/><path d="m128.629 121.391c.229 0 .453-.114.589-.315.213-.325.12-.754-.202-.965-.976-.635-2.001-1.215-3.048-1.714-.998-.483-2.045-.906-3.103-1.259-.246-.081-.458-.152-.606-.195-.365-.114-.763.092-.878.456-.114.369.093.759.459.873.141.043.338.108.572.184 1.004.337 1.991.738 2.94 1.194.992.477 1.963 1.025 2.89 1.627.12.076.251.114.382.114z"/><path d="m117.908 117.984c.109 0 .212-.043.289-.13.142-.157.125-.401-.033-.542-.076-.066-.191-.163-.333-.277-.534-.418-1.123-.759-1.756-1.025-.485-.206-1.003-.364-1.526-.467-.208-.043-.415.092-.453.304s.093.412.305.45c.475.092.938.233 1.375.418.567.239 1.101.553 1.581.922.125.098.229.19.3.25.071.065.164.097.256.097z"/><path d="m114.254 117.87c.125 0 .251-.065.327-.179.115-.179.066-.417-.114-.531-.082-.054-.202-.13-.349-.217-.551-.331-1.146-.64-1.751-.906-.474-.211-.954-.396-1.44-.559-.201-.065-.419.044-.49.244-.066.201.043.418.245.489.458.152.922.331 1.369.531.578.255 1.14.548 1.669.863.141.081.256.157.332.206.066.043.137.059.207.059z"/><path d="m109.635 117.876c.12 0 .234-.055.311-.158.125-.168.093-.412-.082-.537-.082-.059-.196-.146-.344-.244-.545-.369-1.134-.689-1.756-.96-.479-.206-.976-.385-1.477-.521-.208-.059-.42.065-.475.272-.054.206.066.417.273.471.463.125.927.288 1.374.483.578.25 1.123.548 1.631.89.136.092.245.168.316.222.071.049.147.076.229.076z"/><path d="m100.708 132.728h.054l3.114-.429c.213-.027.36-.222.327-.434-.027-.211-.229-.358-.436-.325l-3.114.428c-.212.027-.36.223-.327.434.027.19.191.331.382.331z"/><path d="m80.6828 132.093c.1036 0 .2126-.027.3108-.092.938-.592 1.7723-1.319 2.4704-2.159.938-1.123 1.816-2.181 1.7014-3.57-.1199-1.415-1.2052-2.316-2.3558-3.27-.9435-.781-2.0069-1.4-3.1684-1.828-.3-.114-.6326.038-.7472.336-.1145.298.0382.629.3381.743 1.0362.385 1.9905.938 2.8304 1.633 1.0416.862 1.865 1.546 1.9468 2.484.0764.917-.5889 1.72-1.4342 2.734-.6217.749-1.3634 1.394-2.2032 1.926-.2727.168-.349.526-.18.797.1091.174.3.266.4909.266z"/><path d="m63.5102 108.47c.3163 0 .5998-.211.6816-.531.1364-.543.1309-1.058-.0218-1.536-.7416-2.343-4.5263-2.75-7.2857-3.043-2.8576-.309-5.797-.217-8.7309.266-.3817.065-.6435.423-.5781.803.0655.38.4199.64.8071.575 2.8085-.467 5.6225-.548 8.3492-.255 2.105.228 5.6333.608 6.0969 2.078.0709.227.0709.488 0 .775-.0927.374.1363.754.5126.846.0545.017.1145.022.1691.022z"/><path d="m56.8352 117.653c.1472 0 .2999-.048.4253-.141 1.0853-.819 2.1269-1.692 3.1085-2.598.4308-.396 1.0198-.938 1.7396-1.714.6599-.71 1.287-1.459 1.8651-2.229.0272-.038.049-.076.0708-.12.0219-.048.06-.119.1091-.211.5781-1.08 1.0961-2.197.589-2.913-.1473-.206-.4963-.532-1.2052-.429-.3818.055-.649.413-.5944.792.0436.304.2781.532.5617.586-.0655.234-.2345.635-.5945 1.313-.0436.076-.0763.146-.1036.195-.5399.716-1.1234 1.411-1.7341 2.067-.6817.738-1.2489 1.258-1.6633 1.638-.9435.873-1.9578 1.714-3.0048 2.511-.3109.234-.3654.673-.1309.977.1363.179.349.276.5562.276z"/><path d="m21.8625 124.439c.0872 0 .1745-.016.2617-.049 1.3361-.531 2.6995-.868 4.0464-1.003.9871-.098 1.9033-.06 3.1685 0 .4253.021.8889.038 1.4015.059l1.8269.065c1.4942.055 1.8923.071 2.5794.055 1.5215-.027 3.043-.152 4.5209-.375 4.7117-.705 9.8597-2.403 10.0778-2.479 2.3341-.786 4.6627-1.724 6.9204-2.777.349-.163.5017-.58.3381-.927-.1636-.348-.5835-.499-.9325-.337-2.2086 1.036-4.4827 1.948-6.7677 2.718-.0491.016-5.2461 1.73-9.8379 2.419-1.4179.212-2.8794.331-4.3354.358-.649.011-1.0035 0-2.5086-.054l-1.8323-.065c-.5072-.016-.9653-.038-1.3907-.06-1.3251-.06-2.2849-.103-3.3701.006-1.4779.146-2.9667.515-4.4282 1.095-.3599.141-.5344.548-.3926.906.109.271.3708.44.6544.44z"/><path d="m.703537 121.7c.103615 0 .201767-.022.299933-.065.44172-.212.90526-.402 1.3688-.564 1.53786-.548 2.89575-.733 4.72808-.868 3.73015-.277 7.65115-.223 9.12355-.103.2236.016.7635.065 1.4833.038.6217-.022 1.2488-.092 1.8651-.206.049-.011.0981-.022.1418-.044.3653-.152.7198-.325 1.0634-.51.818-.444 1.3851-.895 1.6305-1.09l.0709-.054c2.574-1.964 5.2571-3.841 7.9783-5.571 2.5031-1.595 4.4827-2.853 7.2203-4.16 2.8903-1.378 5.9442-2.485 9.0799-3.293.3763-.098.5999-.477.5017-.852-.0981-.374-.4799-.596-.8561-.499-3.2285.83-6.3696 1.969-9.3363 3.385-2.8139 1.345-4.8262 2.62-7.3675 4.242-2.7539 1.752-5.4752 3.651-8.0765 5.641l-.0872.065c-.2182.169-.7199.57-1.4343.96-.2781.152-.5671.293-.8616.418-.5181.092-1.0525.152-1.5815.168-.638.022-1.1179-.016-1.2979-.032-1.8323-.152-5.9169-.152-9.36346.103-1.95231.146-3.40836.342-5.09891.944-.51262.179-1.014331.39-1.499682.618-.3490185.168-.4962849.58-.332684.933.119976.25.37085.396.632614.396z"/><path d="m8.77439 137.55c.1745 0 .35445-.066.49078-.201l6.06413-5.88c1.0853-1.161 2.1105-2.349 3.0812-3.558.7308-.912 1.4397-1.85 2.1214-2.799.2236-.315.1472-.749-.1636-.971-.3163-.223-.7526-.147-.9762.162-.6653.928-1.3579 1.85-2.0723 2.74-.9488 1.182-1.9523 2.343-2.9884 3.455l-6.03692 5.858c-.27812.271-.28358.711-.01091.987.13633.141.32174.212.5017.212z"/><path d="m8.77438 137.55c.28903 0 .55623-.179.65984-.461.74168-2.056 1.12888-4.171 1.15068-6.276.0218-1.768.0327-3.162-.76347-4.687-.90527-1.725-2.30135-2.576-4.06825-3.65l-.15267-.092c-1.45061-.885-3.03755-1.574-4.711744-2.051-.37083-.108-.763456.109-.8670709.478-.1090679.368.1090379.759.4798679.862 1.554217.439 3.021177 1.079 4.362717 1.898l.15271.093c1.64692 1.003 2.83577 1.725 3.55562 3.108.63805 1.215.62168 2.332.60532 4.025-.02181 1.947-.38175 3.905-1.06888 5.82-.13088.363.06001.765.42538.895.07635.027.15815.043.2345.043z"/><path d="m48.9877 116.172c.469 0 .9761-.054 1.5106-.184 1.9086-.477 3.0757-1.676 3.6047-2.354.2399-.304.1854-.743-.12-.982s-.7471-.184-.9871.119c-.4199.532-1.3415 1.481-2.8412 1.855-1.4997.375-2.6776-.054-3.452-.336-.1145-.043-.2072-.076-.2836-.114.3218-.211.9162-.488 1.7724-.824 1.4233-.564 2.9666-.95 4.5863-1.139.3872-.044.6598-.391.6162-.776s-.3926-.662-.7798-.613c-1.7397.206-3.4084.618-4.9463 1.231-1.6523.657-3.0048 1.286-2.8739 2.333.0764.64.7635.971 1.4288 1.209.5944.217 1.5597.57 2.7703.57z"/><path d="m57.3206 115.191c.3 0 .5781-.19.6708-.489.1145-.368-.0873-.759-.4581-.873-1.3415-.417-2.5304-1.101-3.5338-2.023-.529-.488-1.0034-1.042-1.407-1.649-.2126-.32-.6489-.412-.9707-.201-.3217.212-.4144.646-.2017.966.4635.699 1.0088 1.34 1.6196 1.904 1.1561 1.063 2.5249 1.849 4.0682 2.332.0709.022.1418.033.2127.033z"/><path d="m58.8529 107.732c.1691 0 .3327-.032.4908-.092.6981-.271 1.0471-1.058.7744-1.752-.2726-.694-1.0634-1.042-1.7614-.77-.698.271-1.0471 1.057-.7744 1.752.1309.336.3872.602.7199.748.1745.076.3599.114.5453.114zm.0437-1.367c.0109.022 0 .049-.0273.055-.0164.005-.0491-.006-.0545-.028l.0818-.032zm0 0-.0818.033s0-.049.0272-.054c.0219-.006.0491.005.0546.027z"/><path d="m43.4799 125.443c.4526 0 .8671-.076 1.0689-.12.698-.151 1.3906-.352 2.0559-.602.9216-.336 1.8105-.77 2.6503-1.274 3.0539-1.839 4.6409-3.212 7.2749-5.479.2944-.255.3272-.694.0709-.987-.2564-.293-.6981-.326-.9926-.071-2.6667 2.295-4.1336 3.564-7.0839 5.343-.7635.461-1.5761.852-2.4104 1.161-.6053.222-1.2379.407-1.8705.548-.3927.087-.7799.098-1.0144.07.1636-.33.649-.992 1.7451-2.034.2781-.265.2891-.71.0218-.987-.2672-.277-.7144-.287-.9925-.022-2.4704 2.349-2.4431 3.25-2.0886 3.819.3163.505.9652.64 1.5542.64z"/><path d="m27.3106 128.643h.0327c1.9796-.098 3.9046-.532 5.7206-1.297 2.2413-.943 4.2918-2.408 5.9333-4.231.2563-.287.2345-.726-.0546-.987-.289-.26-.7307-.233-.9925.054-1.5051 1.671-3.3865 3.011-5.437 3.879-1.4561.613-2.9885.998-4.5699 1.139-.0219-.537.0109-1.291.2944-1.904.1036-.222.2564-.553.5781-.873.0982-.093.1745-.152.349-.288l.1472-.114c.4145-.32.7472-.591.9653-.77.2999-.244.3436-.683.0982-.982-.2454-.298-.6872-.342-.9871-.097-.2127.173-.5399.439-.9434.748l-.1418.114c-.24.184-.3381.266-.469.391-.5126.499-.758 1.036-.878 1.291-.5944 1.296-.4145 2.88-.3436 3.336.0546.341.349.591.6926.591z"/><path d="m23.624 116.352c.0491 0 .0982 0 .1473-.017.5998-.124 1.2379-.298 1.9359-.52.3708-.12.5726-.51.4526-.879-.1199-.369-.5126-.57-.8834-.45-.6544.206-1.2434.368-1.7996.482-.3818.082-.6217.451-.5399.83.0709.331.3599.554.6871.554z"/><path d="m21.6608 116.677c.6435 0 1.3688-.114 2.165-.353.3708-.108.5835-.499.469-.868-.1091-.369-.5017-.58-.8726-.466-1.7342.515-2.7867.282-3.0321-.152-.229-.401.0927-1.34 1.3252-2.441.289-.26.3108-.7.0545-.987-.2617-.288-.7034-.309-.9925-.054-1.6469 1.475-2.2522 3.032-1.6087 4.165.4308.76 1.3143 1.156 2.4922 1.156z"/><path d="m22.9806 111.469c.1254 0 .2508-.032.3653-.103 1.3688-.83 2.7867-1.605 4.221-2.305 5.1098-2.49 10.6395-4.15 16.4474-4.925.3817-.049.6544-.402.5998-.787-.0545-.38-.4035-.651-.7907-.596-5.9551.797-11.6321 2.5-16.8782 5.055-1.4725.716-2.934 1.513-4.3355 2.37-.3326.201-.4363.63-.2345.961.1309.216.3654.336.5999.336z"/><path d="m53.0177 104.581c.3217 0 .6108-.217.6817-.543.0872-.374-.1527-.748-.529-.835-1.1343-.255-2.3014-.445-3.4575-.553-1.107-.103-2.2304-.141-3.3483-.103-.2618.005-.48.016-.6381.027-.3872.021-.6817.347-.6653.732.0163.385.3545.678.7362.662.1472-.006.3545-.016.6053-.027 1.058-.033 2.1268 0 3.1739.103 1.1016.103 2.2032.276 3.2775.52.0545.011.1036.017.1581.017z"/><path d="m41.8874 105.085c.1527 0 .3-.092.3599-.244.0764-.201-.0218-.423-.2235-.499-.0982-.038-.24-.087-.409-.141-.6436-.206-1.3198-.325-2.0069-.353-.529-.021-1.0689.006-1.5978.093-.2127.032-.3545.233-.3218.439.0327.212.2345.347.4417.32.4745-.076.9598-.103 1.4343-.081.6162.027 1.227.135 1.8051.32.1527.049.2781.097.3653.13.0437.016.0927.027.1364.027z"/><path d="m38.419 106.246c.18 0 .3382-.125.3763-.304.0437-.206-.0872-.412-.2945-.455-.0927-.022-.2344-.049-.4035-.082-.6326-.119-1.2925-.201-1.9632-.244-.5181-.032-1.0362-.043-1.5433-.027-.2127.005-.3818.184-.3763.396.0054.211.1963.363.3981.374.4853-.016.9761-.005 1.4724.022.6326.038 1.2652.119 1.8651.233.1581.033.2944.06.3817.076.0273.006.0545.011.0818.011z"/><path d="m34.0945 107.852c.1691 0 .3218-.109.3709-.277.0599-.206-.06-.418-.2618-.477-.0982-.027-.2345-.065-.409-.109-.6381-.157-1.3034-.255-1.9796-.287-.5235-.027-1.0525-.022-1.5651.027-.2127.016-.3709.206-.349.418.0218.211.2126.368.4199.347.4799-.044.9707-.049 1.456-.022.6272.033 1.2489.125 1.8378.271.1582.038.2891.076.3763.098.0382.011.0709.016.1091.016z"/><path d="m30.9316 124.868c.06 0 .1254-.016.1854-.049l2.7649-1.481c.1854-.103.2563-.336.1581-.521-.1036-.184-.3381-.254-.5235-.157l-2.7649 1.481c-.1854.103-.2563.336-.1581.521.0709.13.2018.2.3381.2z"/><path d="m11.8665 131.231c.1745 0 .349-.076.4635-.228.6708-.879 1.1998-1.85 1.5597-2.881.4854-1.372.938-2.674.3436-3.932-.6108-1.286-1.9414-1.758-3.3538-2.251-1.15617-.407-2.37227-.613-3.61019-.619-.32175 0-.57806.255-.57806.575s.25631.575.57806.581c1.10704 0 2.19225.19 3.22289.553 1.2816.45 2.2905.803 2.694 1.654.3927.836.0491 1.818-.3871 3.065-.3218.917-.7908 1.779-1.3907 2.566-.1963.255-.1418.613.1091.808.1036.081.229.119.349.119z"/><path d="m141.635 61.5171c.246 0 .491-.1194.639-.3363.425-.613.654-1.2585.687-1.9202.169-3.298-4.527-5.6305-7.951-7.3337-3.583-1.7792-7.466-3.081-11.534-3.8676-.42-.0813-.824.1899-.906.6076-.081.4176.191.819.611.9004 3.932.7594 7.684 2.0178 11.136 3.7319 2.699 1.3453 7.215 3.5909 7.1 5.8854-.016.3689-.158.7486-.42 1.1283-.24.3525-.152.8299.202 1.0686.131.0922.284.1356.436.1356z"/><path d="m128.373 70.3319c.076 0 .152-.0108.223-.0325 1.816-.5479 3.61-1.1879 5.334-1.8931.752-.3092 1.783-.7323 3.108-1.3995 1.211-.6075 2.394-1.2855 3.529-2.0124.043-.0271.081-.0597.12-.0922.054-.0543.147-.1356.256-.2333 1.238-1.0957 2.421-2.2565 2.138-3.3251-.077-.2929-.339-.8136-1.211-.998-.415-.0868-.829.1735-.916.5912-.088.4014.163.7974.556.9005-.147.2712-.567.7648-1.592 1.6815-.099.0868-.18.1627-.246.217-1.069.6834-2.187 1.3181-3.326 1.893-1.271.6401-2.269 1.0524-3 1.3507-1.674.6889-3.424 1.3073-5.191 1.8443-.409.1247-.638.5532-.513.9601.104.3309.409.5478.742.5478z"/><path d="m119.849 70.8849c2.596 0 5.208-.1085 7.798-.3255.426-.0379.742-.4068.704-.8299-.033-.4231-.409-.7377-.834-.6997-3.409.2875-6.85.3797-10.237.282-.07 0-7.749-.2766-14.129-1.6056-1.974-.4122-3.9594-.9655-5.8899-1.6435-.8616-.3038-1.3252-.4936-3.2775-1.2964l-2.3668-.971c-.6598-.2712-1.2488-.5207-1.7941-.7486-1.7069-.7214-2.9394-1.2367-4.4064-1.6218-1.9959-.5208-4.1064-.754-6.2877-.7052-.4254.0109-.7635.3634-.7526.7865s.3817.7486.7907.7486c2.0341-.0488 4.0028.1736 5.857.6563 1.3579.3526 2.5467.8571 4.1936 1.546.5454.2332 1.1398.4827 1.8051.7539l2.3668.971c1.9305.7974 2.4486 1.0089 3.3538 1.3235 1.996.6998 4.046 1.2747 6.091 1.6978 6.517 1.3561 14.321 1.6328 14.403 1.6382.867.0271 1.739.038 2.617.038z"/><path d="m78.1798 55.1869h.0328c.5453-.0217 1.0906-.0705 1.6251-.1519 1.2761-.1844 2.2359-.4936 2.6449-.6292l.1199-.0379c4.3464-1.3344 8.7909-2.4898 13.2191-3.4445 4.0737-.8787 7.2964-1.5676 11.5394-1.9582 4.477-.4068 9.047-.3797 13.573.0868.426.0488.808-.2603.851-.6834.044-.4231-.262-.8028-.687-.8462-4.624-.4774-9.293-.5045-13.873-.0922-4.336.3959-7.597 1.0957-11.7252 1.9852-4.4718.9602-8.9654 2.1318-13.3499 3.477l-.1418.0434c-.3708.1194-1.2434.4014-2.3886.5696-.4581.0651-.9216.1139-1.3851.1302-.7471-.1302-1.4888-.3146-2.2087-.5533-.8616-.2875-1.4778-.575-1.7123-.6835-2.3177-1.0794-7.6675-3.0647-12.3029-4.3991-2.6121-.754-4.6081-1.1933-7.0948-1.2259-.7526-.0108-1.5106.0163-2.2523.0814-.4254.0379-.7416.4122-.7035.8353.0382.4231.409.7377.8398.6998.6926-.0597 1.3961-.0814 2.0996-.076 2.3068.0326 4.1991.4502 6.6859 1.1662 5.0444 1.4538 10.176 3.4282 12.0574 4.3015.2781.1302.9544.4448 1.9032.7594.8235.2712 1.6688.4828 2.5195.6292.0436.0055.0873.0109.1309.0109z"/><path d="m55.5481 73.1145c.1036 0 .2127-.0217.3108-.0651l10.8414-4.7734c1.9741-.9873 3.9046-2.0504 5.7697-3.1624 1.4015-.8408 2.7976-1.7304 4.1446-2.6416.3544-.2387.4417-.7161.2017-1.0686-.2399-.3526-.7198-.4448-1.0743-.2007-1.3252.895-2.694 1.7683-4.0737 2.5928-1.8323 1.0957-3.7246 2.1372-5.6333 3.0918l-10.8032 4.7572c-.3927.1736-.5672.6238-.3927 1.0143.1255.2875.4091.4557.709.4557z"/><path d="m55.5483 73.1145c.2181 0 .4362-.0922.5889-.2712 1.9687-2.3216 3.5011-4.8819 4.5536-7.6103.8835-2.2837 1.5761-4.0845 1.287-6.4224-.3326-2.6471-1.7342-4.4208-3.5065-6.6665l-.1527-.1953c-1.4615-1.8497-3.1848-3.5095-5.1371-4.9361-.3436-.2495-.8289-.179-1.0798.1627-.2508.3418-.1799.8245.1636 1.074 1.8378 1.3453 3.4629 2.9075 4.8372 4.6487l.1527.1953c1.6905 2.1371 2.9121 3.6831 3.1902 5.907.2454 1.9528-.3272 3.4336-1.1943 5.6793-.9925 2.5711-2.4376 4.9849-4.2972 7.1709-.2727.3255-.2346.8083.0927 1.0849.1472.1193.3217.179.4962.179z"/><path d="m121.523 65.0645c2.204 0 3.905-.8244 4.783-1.3615.365-.2224.474-.6943.251-1.0577-.224-.3634-.698-.4773-1.064-.2495-.834.5099-2.563 1.3289-4.771 1.0848-2.214-.244-3.578-1.4049-4.483-2.1697-.289-.2441-.464-.4231-.567-.5424.365-.141 1.216-.2821 3.108-.3309 2.165-.0488 4.401.1953 6.637.7377.415.1031.834-.1519.933-.5641.103-.4123-.153-.8299-.568-.9276-2.366-.575-4.739-.8353-7.04-.7811-2.312.0543-4.412.2116-4.723 1.508-.147.6184.202 1.2205 1.211 2.0775.982.8353 2.629 2.2294 5.317 2.5277.333.038.66.0543.971.0543z"/><path d="m130.222 67.3377c.229 0 .458-.1031.61-.2984.262-.3363.202-.819-.136-1.0794-1.581-1.2205-2.825-2.7122-3.703-4.4371-.463-.9113-.818-1.8877-1.052-2.8912-.099-.4122-.513-.6726-.927-.5749-.415.0976-.677.5098-.578.9221.261 1.1283.659 2.2185 1.177 3.2383.977 1.9311 2.367 3.5963 4.134 4.9578.142.1085.305.1628.475.1628z"/><path d="m136.209 58.3495h.028c.932-.0109 1.685-.7811 1.668-1.7087-.011-.9221-.769-1.6598-1.696-1.6598-.005 0-.016 0-.022 0-.932.0108-1.685.7811-1.668 1.7086.011.9222.769 1.6599 1.696 1.6599zm0-1.8335c.082 0 .147.0651.147.1465 0 .0488-.021.0868-.043.1031-.022.0217-.055.0434-.104.0434-.076 0-.147-.0651-.152-.1465 0-.0814.065-.1465.147-.1519z"/><path d="m111.167 74.5791c1.353 0 2.711-.1302 4.041-.3797 4.892-.933 7.64-1.9528 12.199-3.6506.399-.1464.6-.5912.453-.9872-.153-.396-.594-.5967-.992-.4502-4.636 1.7249-7.188 2.6742-11.949 3.58-1.232.2333-2.497.3526-3.746.3526h-.022c-.916 0-1.843-.0651-2.754-.1952-.769-.1085-1.429-.3743-1.663-.5533.223-.2929 1.112-1.0252 3.533-2.0613.393-.1681.573-.6183.404-1.0089-.169-.3905-.622-.5695-1.014-.4014-4.281 1.828-4.652 2.9725-4.494 3.7645.267 1.3344 2.563 1.7249 3.016 1.79.981.1356 1.979.2061 2.966.2116h.028z"/><path d="m91.0279 71.4709c.349 0 .698-.0054 1.047-.0217 3.3757-.1519 6.7568-1.0686 9.7721-2.6471.377-.1952.524-.6617.322-1.036-.196-.3743-.665-.5207-1.041-.32-2.8199 1.4754-5.9774 2.327-9.124 2.4734-2.3068.1031-4.6026-.1627-6.8331-.7865.2236-.7431.6653-1.8822 1.4343-2.6525.2399-.2386.6326-.6346 1.2542-.9058.1636-.0705.2891-.1139.6272-.217l.2399-.0759c.6981-.2224 1.2652-.4123 1.6415-.5425.4036-.1356.6162-.5749.4799-.9763-.1418-.4014-.5781-.613-.9816-.4774-.3708.1248-.9216.3146-1.6088.5316l-.2399.0759c-.3654.114-.5454.1736-.7908.2767-.8834.3905-1.4287.933-1.7178 1.2205-1.3797 1.3777-1.9032 3.4932-2.0286 4.1062-.0818.3851.1472.7702.5235.8895 2.285.7215 4.6463 1.0903 7.0185 1.0903z"/><path d="m88.1267 52.7516c.409 0 .7526-.3201.7744-.7323.0218-.4231-.3109-.7811-.7362-.8028-.9653-.0434-1.8215-.1248-2.6176-.2387-.42-.0651-.8181.2278-.8781.6455-.0654.4177.2291.8136.649.8733.8453.1248 1.756.2116 2.7758.255h.0382z"/><path d="m85.4328 52.5021c.4036 0 .7417-.3146.769-.7214.0272-.4231-.2945-.792-.7199-.8191-2.6558-.1681-3.9701-1.0469-4.0955-1.8442-.109-.6889.6272-1.828 3.0703-2.7881.3981-.1574.5889-.6021.4362-.9981-.1581-.396-.6053-.5913-1.0034-.434-2.7867 1.0957-4.2918 2.7664-4.0246 4.4588.2781 1.7629 2.345 2.9346 5.5243 3.1407h.0491z"/><path d="m118.055 46.3346c.354 0 .671-.2441.753-.5967.092-.4123-.17-.8245-.584-.9167-8.186-1.8389-16.447-2.3596-24.5621-1.5514-2.2795.2279-4.5754.5642-6.8331.9981-.4199.0814-.6926.4828-.6108.9004.0818.4177.4854.6889.9053.6076 2.2086-.4286 4.4554-.7594 6.6913-.9818 7.9454-.792 16.0434-.2821 24.0654 1.5242.06.0108.115.0217.169.0217z"/><path d="m129.774 51.3247c.251 0 .502-.1247.649-.3471.235-.3526.137-.83-.223-1.0632-1.358-.8842-2.787-1.687-4.243-2.3867-1.396-.6726-2.847-1.2584-4.319-1.752-.344-.114-.638-.2062-.845-.2713-.404-.1301-.84.0977-.966.5045-.125.4068.098.8353.507.9601.197.0597.475.1519.808.2604 1.412.4719 2.803 1.0414 4.139 1.6815 1.401.6726 2.77 1.4429 4.068 2.2891.131.0868.278.1247.42.1247z"/><path d="m114.958 47.3759c.158 0 .321-.0651.436-.1952.212-.2387.191-.6021-.049-.8137-.109-.0976-.267-.2332-.469-.3905-.747-.5859-1.576-1.0686-2.465-1.4429-.687-.2875-1.407-.5099-2.149-.6564-.311-.065-.616.1411-.682.4557-.06.3146.142.6129.459.678.659.1302 1.303.3255 1.919.5859.796.3363 1.538.7702 2.203 1.2909.18.1411.322.2604.42.3472.109.0976.246.1465.382.1465z"/><path d="m109.646 46.6436c.191 0 .376-.0922.491-.2658.174-.2657.092-.6238-.175-.7973-.114-.076-.283-.179-.491-.3038-.774-.4665-1.598-.895-2.459-1.2747-.66-.2929-1.342-.5587-2.018-.7811-.305-.1031-.633.0597-.736.3634-.104.3038.06.6292.365.7323.644.2115 1.287.4665 1.914.7431.813.3635 1.598.7649 2.329 1.2097.196.1193.354.2169.464.2874.098.0597.207.0923.31.0923z"/><path d="m103.184 46.6546c.18 0 .354-.0814.469-.2332.19-.255.136-.6184-.12-.8083-.115-.0813-.279-.2007-.48-.3417-.764-.5153-1.593-.9655-2.465-1.3452-.6765-.2929-1.3745-.537-2.0725-.7269-.3109-.0814-.6272.0976-.7144.4014-.0873.3092.0981.6238.4035.7106.649.179 1.2925.4068 1.9144.6726.807.3472 1.57.7703 2.274 1.2422.191.1247.338.2386.442.3146.103.0759.223.1139.343.1139z"/><path d="m90.6899 67.4459s.0545 0 .0818-.0054l4.3572-.6021c.3163-.0434.5399-.3363.4963-.6509-.0437-.3146-.3381-.537-.6544-.4936l-4.3573.6021c-.3163.0434-.5399.3363-.4963.6509.0382.2875.2891.499.5727.499z"/><path d="m62.6485 66.2851c.1037 0 .2127-.0271.3109-.0922 1.2924-.8191 2.4431-1.8171 3.4084-2.978 1.2761-1.535 2.4813-2.9833 2.3286-4.8276-.1582-1.8877-1.647-3.119-3.2175-4.4262-1.2979-1.0795-2.7649-1.9257-4.3628-2.5223-.2999-.1139-.6325.0379-.7471.3363-.1145.2983.0382.6292.3381.7431 1.4779.5533 2.8304 1.3344 4.0301 2.327 1.4997 1.2476 2.6831 2.2294 2.803 3.6343.1146 1.3778-.8452 2.5332-2.0613 3.9977-.8889 1.0686-1.9415 1.9853-3.1357 2.7393-.2727.1682-.3491.5262-.18.7974.1091.1736.2999.2658.4908.2658z"/><path d="m234.594 78.1533c.284 0 .551-.1735.654-.4502.202-.5207.251-1.036.159-1.5296-.464-2.4139-4.172-3.2546-6.877-3.873-2.803-.6401-5.732-.8896-8.704-.754-.387.0163-.687.3472-.671.7323.017.3851.344.6726.737.6672 2.846-.1356 5.644.1085 8.322.716 2.066.4719 5.524 1.2585 5.813 2.7718.043.2333.011.4936-.093.7703-.136.358.044.7648.409.9004.082.0326.164.0434.251.0434z"/><path d="m226.883 86.496c.12 0 .245-.0325.354-.0976 1.173-.6889 2.313-1.4375 3.392-2.2186.469-.3417 1.118-.8082 1.931-1.5025.742-.6292 1.45-1.3018 2.116-1.9961.032-.0326.06-.0706.087-.1085.027-.0434.076-.1139.136-.1953.698-1.0089 1.347-2.0558.927-2.8206-.12-.2224-.425-.5913-1.145-.5642-.387.0109-.692.3309-.681.716.01.3038.212.5587.49.6455-.092.2278-.305.6021-.741 1.2313-.049.0706-.093.1357-.126.1845-.616.6455-1.281 1.2693-1.968 1.8497-.775.6563-1.391 1.1065-1.844 1.432-1.041.754-2.143 1.4754-3.277 2.1426-.333.1953-.442.6238-.246.9547.131.2224.366.3417.606.3417z"/><path d="m208.03 90.0112c.36 0 .715-.0054 1.069-.0162 4.767-.1519 10.073-1.2368 10.296-1.2856 2.416-.5099 4.832-1.1662 7.199-1.9528.365-.1247.567-.5153.441-.8841-.125-.3635-.518-.5642-.888-.4394-2.313.7703-4.685 1.4103-7.041 1.9094-.049.0108-5.415 1.1065-10.056 1.2584-1.434.0488-2.901 0-4.346-.1519-.649-.0651-1.004-.1193-2.498-.3526l-1.799-.2766c-.502-.0759-.955-.1519-1.369-.217-1.309-.2115-2.258-.3688-3.349-.3851-1.483-.0271-3.01.1682-4.526.5696-.376.0976-.594.4827-.496.857s.485.5912.861.4936c1.391-.3688 2.782-.5478 4.14-.5261.992.0162 1.897.1627 3.146.3688.42.0705.878.141 1.385.2224l1.794.2766c1.484.2279 1.887.293 2.569.358 1.151.114 2.312.1736 3.463.1736z"/><path d="m188.671 84.4404c.283 0 .572-.0108.856-.0271.049 0 .098-.0108.142-.0271.376-.1085.752-.2387 1.118-.3851.867-.3472 1.483-.7269 1.75-.8896l.071-.0434c2.787-1.6544 5.672-3.2004 8.578-4.6053 2.678-1.2909 4.788-2.3107 7.662-3.2871 3.032-1.0306 6.195-1.7737 9.407-2.2131.382-.0542.655-.4014.6-.7865-.054-.3797-.403-.6564-.79-.5967-3.305.4448-6.555 1.2096-9.675 2.2728-2.95 1.0035-5.099 2.0395-7.814 3.3522-2.945 1.4212-5.868 2.9888-8.688 4.6595l-.092.0542c-.235.1465-.786.4828-1.538.7866-.295.1193-.6.2224-.905.3146-.529.0325-1.064.0271-1.587-.0163-.644-.0542-1.113-.1465-1.287-.1844-1.8-.3635-5.857-.8408-9.309-.9927-1.953-.0813-3.425-.0542-5.17.3418-.529.1193-1.053.2712-1.565.4393-.366.1248-.562.5208-.442.8842.125.3634.523.5587.889.4394.463-.1573.943-.2929 1.429-.4014 1.592-.3635 2.961-.3906 4.799-.3092 3.735.1627 7.623.6672 9.074.9601.213.0434.742.1519 1.467.2115.338.0271.682.0434 1.02.0434z"/><path d="m176.815 100.653c.147 0 .3-.048.426-.146l6.713-5.1368c1.21-1.0252 2.372-2.0884 3.479-3.1787.829-.819 1.652-1.6707 2.438-2.5331.261-.2875.24-.7269-.049-.9873-.29-.2603-.731-.2386-.993.0489-.769.8462-1.571 1.6761-2.383 2.4789-1.08 1.0631-2.22 2.1046-3.376 3.0864l-6.686 5.1151c-.305.2333-.365.6726-.131.9816.137.179.35.271.557.271z"/><path d="m176.81 100.654c.256 0 .507-.141.627-.385.982-1.9586 1.614-4.009 1.887-6.0974.229-1.752.409-3.1352-.207-4.7462-.693-1.8172-1.98-2.8261-3.61-4.1008l-.142-.1085c-1.336-1.0469-2.831-1.9148-4.439-2.5874-.36-.1519-.769.0163-.916.3743-.148.358.016.7648.376.9113 1.489.6183 2.874 1.4265 4.112 2.3921l.141.1085c1.516 1.1879 2.613 2.0449 3.169 3.4986.491 1.2802.343 2.3922.125 4.0683-.251 1.931-.84 3.835-1.75 5.6521-.175.3472-.033.7651.316.9381.098.049.207.076.311.076z"/><path d="m219.903 84.1528c.256 0 .523-.0163.796-.0489 1.952-.2495 3.256-1.3072 3.861-1.9147.273-.2767.273-.7161-.006-.9873-.278-.2712-.719-.2712-.992.0055-.48.4827-1.505 1.3181-3.043 1.5133-1.533.2007-2.65-.3634-3.392-.7377-.109-.0542-.196-.103-.267-.141.343-.1736.965-.3743 1.854-.6129 1.483-.396 3.059-.5967 4.69-.5967.387 0 .703-.3146.703-.6998 0-.3851-.316-.6997-.703-.6997-1.756 0-3.452.217-5.056.6455-1.717.4611-3.135.9221-3.13 1.9853 0 .6401.616 1.036 1.276 1.3669.676.3363 1.849.9276 3.409.9276z"/><path d="m227.657 84.1095c.267 0 .524-.1519.644-.4122.158-.3526 0-.7649-.355-.9222-1.281-.575-2.383-1.3886-3.266-2.4192-.469-.5479-.873-1.1554-1.2-1.8009-.175-.3472-.594-.4828-.944-.3092-.349.1736-.485.5913-.31.9384.376.7486.845 1.4483 1.385 2.083 1.02 1.1933 2.285 2.1317 3.763 2.7881.092.0434.191.0596.289.0596z"/><path d="m230.133 76.8842c.115 0 .229-.0163.344-.0434.725-.1844 1.167-.9276.976-1.649-.093-.3526-.311-.6455-.627-.8245-.317-.1844-.682-.2332-1.031-.1464-.354.0922-.649.3091-.834.6238-.186.3091-.235.678-.148 1.0251.093.3472.311.6455.628.8245.212.1248.447.1899.687.1899zm0-1.3941s.038.0163.044.0326c0 .0217-.011.0488-.033.0542-.027.0055-.049-.0108-.055-.0325-.005-.0217.006-.0488.033-.0543h.006z"/><path d="m213.168 92.7017c.223 0 .409-.0163.529-.0271.709-.0705 1.423-.1899 2.116-.358.948-.2279 1.886-.5533 2.781-.9547 3.245-1.47 4.984-2.6471 7.869-4.5944.322-.217.404-.6509.185-.971-.218-.32-.654-.4014-.976-.1844-2.917 1.969-4.526 3.0539-7.662 4.4805-.812.3688-1.668.6618-2.53.8679-.627.1519-1.276.2603-1.92.3254-.398.038-.785.0055-1.014-.0433.202-.3092.763-.9113 1.974-1.8172.311-.2332.371-.6672.142-.9764-.235-.3092-.671-.3688-.982-.141-2.732 2.0395-2.808 2.94-2.525 3.5475.333.716 1.336.8462 2.018.8462z"/><path d="m197.391 94.0086c1.581 0 3.141-.2224 4.662-.6618 2.34-.678 4.549-1.8931 6.392-3.5095.289-.2549.316-.6943.06-.9872-.256-.2875-.698-.3146-.993-.0597-1.69 1.4808-3.713 2.5928-5.857 3.2166-1.521.4394-3.092.6401-4.673.6021.038-.5316.163-1.2855.512-1.8605.126-.2061.317-.5208.682-.7974.109-.0814.191-.1302.382-.2441l.158-.0922c.447-.2712.813-.499 1.053-.6509.327-.2061.419-.6401.212-.9655-.207-.3255-.643-.4177-.971-.2116-.234.1519-.583.3689-1.025.6346l-.152.0923c-.257.1573-.366.2224-.513.3308-.573.434-.878.9385-1.025 1.1825-.747 1.2259-.747 2.8153-.731 3.2709.011.358.294.6455.654.6726.393.0271.78.038 1.173.038z"/><path d="m194.053 81.3321h.066c.616-.0542 1.265-.1519 1.985-.2875.382-.0759.627-.4393.556-.8191-.076-.3797-.447-.6237-.823-.5532-.677.1302-1.276.2169-1.844.2712-.387.0325-.67.3743-.638.7594.033.3634.339.6346.698.6346z"/><path d="m192.696 81.4625c.458 0 .954-.0434 1.483-.1356.382-.0651.638-.4285.567-.8082-.065-.3797-.431-.6347-.813-.5641-1.783.3146-2.797-.0434-2.993-.4991-.18-.4231.245-1.3181 1.603-2.2728.316-.2224.392-.6563.169-.9709-.224-.3146-.66-.3906-.976-.1682-1.811 1.2747-2.591 2.7502-2.089 3.9489.404.9601 1.505 1.4754 3.049 1.4754z"/><path d="m193.993 76.4123c.099 0 .197-.0216.295-.065 1.456-.6672 2.956-1.2693 4.466-1.7955 5.366-1.8768 11.06-2.8803 16.917-2.9779.387-.0055.698-.3255.692-.7106-.005-.3851-.338-.6943-.714-.6889-6.01.0976-11.85 1.1282-17.358 3.0539-1.549.5424-3.092 1.1608-4.587 1.8442-.354.1628-.507.575-.343.9276.12.2549.371.4068.638.4068z"/><path d="m224.631 73.0712c.289 0 .561-.179.66-.4665.13-.3634-.06-.7648-.426-.8896-1.096-.3905-2.23-.7052-3.37-.9492-1.085-.2333-2.203-.396-3.316-.4937-.261-.0217-.48-.0379-.632-.0488-.393-.0271-.72.2658-.747.6509-.022.3852.267.716.654.7432.147.0108.354.0217.6.0434 1.052.0922 2.11.2495 3.141.4719 1.08.2278 2.154.5316 3.196.9004.076.0271.158.038.234.038z"/><path d="m213.484 72.2737c.136 0 .273-.0759.344-.2061.098-.1898.027-.4177-.164-.5207-.093-.0488-.224-.1139-.393-.1899-.616-.2766-1.27-.4773-1.952-.5858-.524-.0868-1.058-.1139-1.598-.0922-.213.0108-.376.1898-.371.4014.011.2115.186.3743.404.3688.48-.0217.965.0055 1.44.0814.61.0976 1.199.2766 1.756.5262.147.0651.267.1247.349.1681.06.0326.12.0434.18.0434z"/><path d="m209.901 73.0167c.158 0 .311-.0976.365-.2603.071-.2007-.038-.4177-.24-.4882-.092-.0326-.229-.076-.392-.1302-.616-.1899-1.26-.3526-1.92-.4719-.507-.0922-1.025-.1628-1.532-.2061-.207-.0217-.398.141-.42.3525-.016.2116.142.396.354.4177.48.0434.971.1085 1.456.1953.628.1139 1.244.2658 1.827.4448.158.0488.284.0922.371.1193.044.0163.082.0217.126.0217z"/><path d="m205.418 74.1125c.153 0 .295-.0867.355-.2332.082-.1953-.011-.4231-.207-.5045-.093-.0379-.23-.0922-.393-.1518-.616-.2279-1.265-.4014-1.931-.5208-.518-.0868-1.041-.141-1.559-.1573-.213 0-.393.1627-.398.3743-.006.2115.163.3905.376.396.48.0162.971.0651 1.45.1464.622.1085 1.222.2712 1.795.4828.152.0542.278.1085.36.141.049.0217.098.0326.147.0326z"/><path d="m200.27 90.6405c.049 0 .098-.0108.142-.0271l2.923-1.1499c.196-.076.295-.3038.218-.4991-.076-.1952-.305-.2929-.502-.2169l-2.923 1.1499c-.196.0759-.294.3038-.218.499.06.1519.208.2441.36.2441z"/><path d="m180.616 94.7355c.153 0 .306-.0596.42-.179.775-.7973 1.407-1.6978 1.887-2.6796.644-1.3072 1.249-2.544.802-3.8675-.453-1.3507-1.723-1.969-3.07-2.6254-1.102-.537-2.28-.8842-3.512-1.036-.322-.038-.606.1844-.644.5044-.038.3146.185.6021.507.6401 1.096.1302 2.154.4448 3.136.9221 1.216.5967 2.181 1.0632 2.481 1.9582.295.8733-.163 1.8117-.747 2.9942-.425.8733-.992 1.6761-1.68 2.3867-.223.2278-.212.5967.017.8137.114.1085.256.1627.403.1627z"/><path d="m283.751 12.7741c.109 0 .218-.0271.322-.0759 2.53-1.3019 5.18-2.2403 7.869-2.79356 2.078-.42852 5.546-1.14453 6.446.11396.136.1952.218.4447.24.7377.027.3851.365.6726.747.6509.387-.0271.682-.358.654-.7432-.038-.5587-.207-1.04684-.496-1.45367-1.429-2.00157-5.153-1.23132-7.875-.67261-2.814.5804-5.579 1.56218-8.229 2.92368-.343.179-.48.5967-.3.9384.126.2387.371.3797.622.3797z"/><path d="m295.808 22.1854c.224 0 .442-.1031.578-.2983.78-1.112 1.5-2.262 2.155-3.4228.283-.5044.676-1.1988 1.123-2.1643.409-.8787.774-1.7846 1.091-2.6959.016-.0434.027-.0868.032-.1356.006-.0542.022-.1356.039-.2386.212-1.2042.365-2.4247-.339-2.9509-.201-.1519-.638-.35798-1.281-.0379-.349.1681-.491.5912-.322.9329.136.2713.431.4231.715.3852.005.2441-.028.678-.159 1.4266-.016.0868-.027.1627-.038.2224-.294.8462-.632 1.6869-1.014 2.5006-.426.9167-.802 1.5784-1.074 2.0666-.633 1.1174-1.331 2.2294-2.084 3.3089-.223.3146-.141.7539.175.9709.12.0868.262.1248.398.1248z"/><path d="m264.621 39.3264c.158 0 .316-.0543.447-.1628 1.107-.9112 2.301-1.6489 3.539-2.1914.905-.396 1.789-.6346 3.016-.9655.409-.1139.856-.2333 1.352-.3743l1.756-.4936c1.44-.4068 1.827-.5153 2.481-.7377 1.44-.4882 2.847-1.074 4.189-1.7358 4.27-2.11 8.638-5.2995 8.823-5.4352 1.98-1.4645 3.905-3.0647 5.726-4.7571.284-.2658.3-.7051.033-.9872s-.709-.2983-.993-.0325c-1.783 1.6544-3.664 3.222-5.6 4.654-.044.0326-4.461 3.2492-8.617 5.305-1.287.6346-2.634 1.1933-4.013 1.6653-.616.2061-.96.3037-2.405.7105l-1.756.4937c-.491.141-.933.2603-1.342.3688-1.281.3472-2.203.6021-3.206 1.0361-1.364.5912-2.667 1.3994-3.872 2.3921-.3.2441-.338.6834-.093.9818.136.1681.338.2549.54.2549z"/><path d="m243.636 43.183c.174 0 .343-.0651.48-.1899.36-.3363.736-.6563 1.128-.9547 1.293-.9872 2.531-1.5784 4.232-2.2673 3.469-1.3995 7.21-2.5495 8.649-2.8858.213-.0488.742-.1735 1.424-.4176.589-.2116 1.161-.4665 1.712-.7649.044-.0217.082-.0488.12-.0813.295-.255.584-.5262.856-.8137.638-.6726 1.047-1.2747 1.216-1.5351l.049-.0705c1.838-2.6525 3.818-5.2616 5.874-7.7405 1.898-2.2836 3.386-4.0845 5.584-6.162 2.323-2.1914 4.886-4.1821 7.624-5.9071.327-.2061.425-.64.218-.9655s-.644-.4231-.971-.217c-2.814 1.7738-5.453 3.8187-7.842 6.0753-2.257 2.1371-3.779 3.9651-5.698 6.2813-2.089 2.5169-4.091 5.1531-5.95 7.8436l-.06.0868c-.153.2278-.513.7594-1.069 1.3506-.218.2333-.453.4557-.693.6618-.463.2495-.954.4665-1.45.6455-.606.2169-1.069.3254-1.249.3688-1.789.4177-5.677 1.6599-8.878 2.9563-1.811.7323-3.136 1.3669-4.559 2.4518-.431.3309-.845.6834-1.238 1.0469-.284.2658-.295.7051-.027.9872.136.1464.321.217.512.217z"/><path d="m256.211 55.7996c.251 0 .497-.1356.622-.3743l3.954-7.4476c.67-1.4374 1.281-2.8803 1.832-4.3286.415-1.0848.802-2.1968 1.151-3.3142.114-.3689-.088-.7594-.458-.8734-.371-.1139-.764.0868-.878.4557-.344 1.0903-.726 2.1806-1.129 3.2383-.54 1.4158-1.135 2.8315-1.778 4.2039l-3.937 7.415c-.18.3417-.049.7648.294.9438.104.0543.218.0814.327.0814z"/><path d="m256.217 55.7998c.376 0 .687-.2983.703-.678.071-2.186-.212-4.3124-.84-6.3248-.529-1.6869-.943-3.0213-2.175-4.2255-1.391-1.3669-2.983-1.7466-5.001-2.2294l-.175-.0434c-1.652-.396-3.375-.5696-5.115-.5099-.387.0109-.693.3363-.676.7214.011.3852.327.6944.725.6727 1.614-.0543 3.207.103 4.739.4719l.175.0434c1.876.4502 3.228.7757 4.346 1.8714.982.9601 1.314 2.0287 1.816 3.6451.583 1.8605.845 3.835.774 5.8637-.011.3851.289.7106.682.7214z"/><path d="m285.9 23.4602c.921 0 2.236-.1247 3.577-.9601 1.669-1.036 2.41-2.5386 2.705-3.3414.131-.3634-.055-.7648-.42-.895s-.769.0543-.9.4177c-.234.6346-.818 1.8226-2.132 2.6362-1.309.8137-2.563.7648-3.392.7323-.12 0-.218-.0108-.3-.0217.245-.2983.72-.7431 1.429-1.329 1.183-.9763 2.53-1.8117 4.014-2.4843.354-.1627.507-.575.343-.9275-.158-.3526-.578-.5045-.932-.3418-1.593.7269-3.049 1.6273-4.325 2.6796-1.369 1.1283-2.465 2.1426-2.018 3.1027.273.5859 1.025.6889 1.734.7161.175.0054.382.0162.611.0162z"/><path d="m295.421 19.6901h.093c.387 0 .698-.32.698-.7052 0-.3851-.316-.6943-.704-.6943-.027 0-.06 0-.087 0-1.374 0-2.688-.282-3.904-.8462-.655-.3037-1.277-.6889-1.849-1.1391-.306-.2441-.747-.1952-.987.1085-.24.3038-.197.7431.109.9818.66.5262 1.374.9655 2.132 1.3181 1.402.6455 2.912.9764 4.494.9764z"/><path d="m294.467 12.1558c.3 0 .605-.0977.856-.3038.283-.2278.458-.5533.496-.9113s-.071-.7106-.3-.99262c-.229-.28206-.556-.45564-.916-.49361s-.714.06509-.998.29834c-.283.22782-.458.55329-.496.91129s.071.7106.3.9926c.267.3309.66.4991 1.058.4991zm0-1.3941s.027 0 .032.0163c.011.0163.011.0488-.005.0597-.016.0162-.049.0108-.06-.0055-.011-.0162-.011-.0488.005-.0596.006-.0054.017-.0109.028-.0109z"/><path d="m284.885 33.7932c.725 0 1.522-.4177 1.816-.5913.616-.358 1.211-.7594 1.773-1.1987.768-.6021 1.488-1.2856 2.132-2.0233 2.334-2.685 3.425-4.4696 5.23-7.4367.201-.3309.092-.7595-.235-.9602-.333-.2007-.763-.0922-.965.2333-1.827 2.9996-2.836 4.6541-5.094 7.2469-.583.6726-1.238 1.291-1.936 1.8388-.507.4014-1.052.7649-1.614 1.0903-.349.2007-.709.3309-.943.3797.054-.3634.311-1.1445 1.036-2.4681.185-.3363.06-.7648-.284-.9492-.338-.1844-.769-.0597-.954.2821-1.631 2.9888-1.325 3.8349-.813 4.2743.24.2007.535.2767.846.2767z"/><path d="m271.104 41.6585c.082 0 .164-.0163.246-.0434 1.854-.6943 3.55-1.6978 5.039-2.9834 1.843-1.5839 3.343-3.6072 4.341-5.8366.158-.3525 0-.7648-.355-.9221-.354-.1573-.769 0-.927.3526-.916 2.0504-2.29 3.9001-3.975 5.3484-1.195 1.0306-2.536 1.8605-3.998 2.4843-.185-.5045-.387-1.2313-.311-1.9039.028-.2387.071-.6021.284-1.009.065-.1193.12-.1952.245-.3797l.104-.1518c.295-.434.529-.792.682-1.0307.207-.3254.114-.7594-.213-.9655s-.758-.1139-.971.2116c-.147.2332-.376.5804-.665 1.0035l-.104.1518c-.169.2496-.24.3526-.321.5154-.338.6346-.404 1.215-.437 1.4971-.163 1.4157.497 2.864.704 3.2762.12.2441.371.3852.627.3852z"/><path d="m263.803 31.0921c.119 0 .239-.0271.349-.0922.534-.3038 1.085-.6618 1.685-1.0849.316-.2224.387-.6617.163-.9763-.223-.3146-.665-.3852-.981-.1628-.557.396-1.069.7269-1.566 1.009-.338.1898-.452.6183-.261.9546.131.2224.365.3526.611.3526z"/><path d="m261.038 32.1714c.905 0 2.001-.4068 3.163-1.2042.321-.217.398-.6563.18-.9709-.219-.3201-.66-.396-.977-.179-1.488 1.0197-2.563 1.1228-2.928.7811-.338-.3146-.327-1.3019.507-2.7285.196-.3308.082-.7594-.256-.9546-.333-.1953-.764-.0814-.96.2549-1.112 1.9094-1.205 3.5746-.245 4.4534.398.3634.916.5478 1.516.5478z"/><path d="m261.681 26.6442c.196 0 .393-.0813.534-.2441 1.047-1.2096 2.155-2.3812 3.305-3.4824 4.09-3.9326 8.846-7.198 14.13-9.7149.349-.1682.496-.5858.333-.933-.169-.3472-.584-.4936-.938-.3309-5.421 2.5766-10.302 5.9342-14.501 9.9699-1.178 1.1337-2.323 2.3379-3.392 3.5801-.251.2929-.218.7322.076.9872.131.1139.295.1681.458.1681z"/><path d="m281.046 12.541c.082 0 .169-.0162.251-.0488.136-.0542.333-.1247.567-.2061.998-.3526 2.023-.6455 3.054-.8733 1.08-.2387 2.181-.4068 3.283-.5045.387-.0325.671-.3743.638-.7594-.033-.38511-.371-.66717-.763-.63463-1.162.10307-2.324.28207-3.463.53163-1.086.2386-2.165.5478-3.218.9221-.245.0868-.453.1627-.6.2224-.36.1356-.545.5424-.403.9004.109.2767.371.4502.654.4502z"/><path d="m274.055 15.5732c.06 0 .12-.0163.174-.0434.431-.217.878-.3906 1.342-.5208.594-.1627 1.211-.2441 1.816-.2495.163 0 .3 0 .387.0109.224.0108.398-.1519.409-.3635.011-.2115-.153-.3959-.365-.4068-.104-.0054-.257-.0108-.437-.0108-.676 0-1.357.0922-2.017.2766-.513.141-1.015.3363-1.489.575-.191.0976-.267.3309-.169.5153.071.1356.202.2115.343.2115z"/><path d="m271.121 17.7807c.043 0 .087-.0055.131-.0217.458-.1628.927-.3038 1.407-.4285.616-.1574 1.238-.2713 1.848-.3526.164-.0217.295-.0326.388-.0434.212-.0217.37-.2061.349-.4177-.022-.2115-.213-.3634-.42-.3471-.098.0108-.24.0216-.409.0433-.638.0814-1.293.2062-1.942.3689-.501.1248-.998.2766-1.478.4502-.201.0705-.305.2929-.234.4936.054.1573.207.255.365.255z"/><path d="m267.494 20.6123c.05 0 .099-.0108.153-.0325.447-.1899.911-.3418 1.38-.4665.611-.1573 1.227-.2604 1.832-.3038.164-.0108.295-.0162.387-.0217.213-.0054.382-.1844.377-.3959-.006-.2116-.18-.3743-.398-.3743-.099 0-.246.0108-.42.0217-.655.0488-1.32.1573-1.974.3309-.502.1301-1.004.2983-1.484.5044-.196.0814-.289.3092-.207.5045.06.1464.207.2332.354.2332z"/><path d="m273.482 36.9447c.104 0 .202-.0379.278-.1193l2.176-2.2565c.147-.1519.142-.396-.011-.5424-.152-.1465-.398-.1411-.545.0108l-2.176 2.2565c-.147.1519-.142.396.011.5425.076.0705.169.1084.267.1084z"/><path d="m257.242 48.835c.24 0 .463-.1464.545-.3851.371-1.0469.567-2.1263.595-3.2166.032-1.4592.071-2.8315-.889-3.8513-.976-1.036-2.389-1.074-3.888-1.1174-1.228-.0325-2.444.141-3.627.5153-.305.0976-.474.4231-.376.7269.098.3037.425.4719.73.3742 1.053-.3363 2.149-.4881 3.24-.461 1.358.0379 2.427.0651 3.075.754.633.6726.606 1.714.579 3.0321-.022.971-.202 1.9365-.529 2.8641-.104.2983.054.6292.354.7323.065.0217.131.0325.191.0325z"/></g></svg>