<svg width="18" height="18" viewBox="0 0 18 18" fill="none" xmlns="http://www.w3.org/2000/svg">
<g clip-path="url(#clip0_487_12175)">
<path d="M10.2471 10.0965C10.2202 10.0965 10.1942 10.0872 10.1734 10.0676C10.1318 10.0276 10.131 9.96216 10.1708 9.92135C10.3303 9.75979 10.5105 9.64075 10.7073 9.56762C10.9595 9.47324 11.1501 9.48259 11.6103 9.5047C11.7056 9.50895 11.8122 9.51405 11.9344 9.51915C12.0601 9.52426 12.3773 9.53616 12.6078 9.53786C12.8331 9.53956 13.2179 9.53191 13.965 9.44433C14.5898 9.3712 15.0023 9.32274 15.5778 9.19859C15.5864 9.19689 16.4895 8.99707 17.4566 8.47414C17.5407 8.42907 17.7946 8.29132 17.7868 8.19779C17.7799 8.11191 17.5606 8.01412 17.4029 7.97586C16.4149 8.02688 15.4382 8.13232 14.4997 8.28962C14.4104 8.30493 12.2993 8.6527 11.1397 8.43077C10.5409 8.31598 10.1622 7.98436 10.1466 7.96991C10.1301 7.95545 10.1162 7.9427 10.1093 7.9359C10.0677 7.89593 10.066 7.83131 10.1067 7.78964C10.1466 7.74883 10.2133 7.74713 10.2558 7.78709C10.2627 7.79305 10.274 7.8041 10.2887 7.81685C10.2922 7.82026 10.6423 8.12466 11.1805 8.22755C12.3019 8.44183 14.4433 8.08895 14.465 8.08555C15.4157 7.92654 16.4063 7.82026 17.4081 7.76839C17.4176 7.76839 17.428 7.76839 17.4376 7.77094C17.5268 7.79135 17.9749 7.90699 17.9974 8.18078C18.0156 8.40696 17.7296 8.56172 17.5589 8.6544C16.6524 9.14417 15.7762 9.3678 15.6237 9.39841C15.0378 9.52681 14.621 9.57528 13.9901 9.64925C13.2309 9.73853 12.8366 9.74618 12.6061 9.74363C12.3721 9.74193 12.0523 9.73003 11.9258 9.72493C11.8027 9.71983 11.6952 9.71472 11.5999 9.71047C11.1588 9.68921 10.9933 9.68071 10.7827 9.75979C10.6154 9.82271 10.4603 9.92475 10.3225 10.0642C10.3017 10.0855 10.274 10.0957 10.2471 10.0957V10.0965Z" fill="white"/>
<path d="M6.80915 8.97412C6.79182 8.97412 6.77449 8.96987 6.75802 8.96136C6.70689 8.9333 6.68869 8.87123 6.71642 8.82106C6.78055 8.70712 6.80655 8.59829 6.79355 8.4971C6.74675 8.12892 6.20077 7.89084 5.99451 7.80155L5.97631 7.7939C5.95205 7.7837 3.51334 6.69616 1.52528 3.84511C1.34589 3.58747 1.32162 3.37319 1.30949 3.27031L1.30689 3.24735C1.27482 2.99311 1.40048 2.78649 1.46721 2.6751C1.49408 2.63003 1.55214 2.61217 1.60068 2.63343C1.74194 2.69465 1.87973 2.76693 2.01059 2.84856C2.24632 2.99481 2.46471 3.17252 2.65797 3.37659C3.03409 3.77283 3.45614 4.12911 3.86519 4.47433C4.13298 4.70051 4.40944 4.93434 4.67116 5.17668C5.47453 5.92239 6.59076 6.56437 7.98777 7.0856C8.04237 7.10601 8.06924 7.16553 8.04844 7.2191C8.02764 7.27267 7.96697 7.29903 7.91238 7.27862C6.48936 6.74718 5.3506 6.09075 4.52643 5.32633C4.26818 5.0874 3.99345 4.85442 3.7274 4.62994C3.31401 4.28131 2.88763 3.92079 2.50804 3.52114C2.43611 3.44547 2.23072 3.22864 1.89793 3.02287C1.8026 2.96335 1.70294 2.90978 1.60154 2.86131C1.54868 2.9574 1.49841 3.08154 1.51661 3.22184L1.51921 3.2482C1.52961 3.34088 1.54954 3.51434 1.69947 3.72947C3.6546 6.53291 6.03871 7.59578 6.06211 7.60599L6.08031 7.61364C6.31604 7.71567 6.94175 7.98777 7.00328 8.47244C7.02148 8.61784 6.98768 8.7692 6.90101 8.9214C6.88195 8.95541 6.84555 8.97497 6.80915 8.97497V8.97412Z" fill="white"/>
<path d="M10.1232 7.83119C10.1171 7.83119 10.111 7.83119 10.105 7.82949C10.0478 7.81929 10.0096 7.76572 10.0192 7.7096C10.293 6.18501 10.5643 4.86959 10.8251 3.79992C11.2229 2.16734 11.2654 1.99643 11.281 1.96412C11.2836 1.95902 11.5401 1.41653 11.6354 0.544969C11.6441 0.469292 11.6476 0.360454 11.5852 0.29328C11.5566 0.262669 11.515 0.241412 11.4604 0.230358C11.4569 0.230358 11.4534 0.228657 11.45 0.227807C11.3754 0.204849 11.3053 0.200598 11.2411 0.214202C11.1649 0.231208 11.0383 0.352801 10.8659 0.57643C10.0192 1.67332 9.67338 3.05846 9.33886 4.39768C9.19673 4.96568 9.05027 5.55324 8.86654 6.11528C8.86048 6.13399 8.85354 6.1578 8.84574 6.18501C8.79894 6.34827 8.71228 6.65352 8.47049 6.93072C8.39163 7.02085 8.30323 7.10248 8.20617 7.17476C8.15937 7.20962 8.0935 7.20027 8.05884 7.15435C8.02331 7.10843 8.03284 7.04381 8.07964 7.0098C8.16457 6.94688 8.24257 6.8746 8.31103 6.79637C8.52249 6.55404 8.59875 6.28789 8.64382 6.12974C8.65248 6.09998 8.65942 6.07362 8.66635 6.05236C8.84748 5.49797 8.99307 4.91381 9.13433 4.34921C9.47405 2.98958 9.82504 1.58319 10.6986 0.452286C10.917 0.169987 11.0609 0.0424418 11.1961 0.0126813C11.2957 -0.00942651 11.4014 -0.00347441 11.5089 0.028837C11.6042 0.0492442 11.6822 0.0909089 11.7403 0.153831C11.8738 0.297532 11.8521 0.500753 11.8443 0.567077C11.7446 1.47605 11.482 2.02959 11.4708 2.05255C11.456 2.09847 11.2957 2.75575 11.0297 3.84498C10.7688 4.91381 10.4984 6.22497 10.2254 7.74531C10.2168 7.79548 10.1717 7.83034 10.1214 7.83034L10.1232 7.83119Z" fill="white"/>
<path d="M0.842374 13.9074C0.435922 13.9074 0.133467 13.7646 0.0095381 13.5044C-0.00866122 13.4661 -0.00172815 13.4219 0.0277374 13.3913C1.03217 12.3156 2.35292 11.5912 3.63034 10.8914C4.6703 10.3217 5.74493 9.73243 6.64103 8.95696C6.68436 8.91954 6.75109 8.92294 6.79009 8.96631C6.82822 9.00882 6.82475 9.0743 6.78055 9.11256C5.86712 9.90249 4.78209 10.4968 3.7326 11.0725C2.49158 11.7527 1.20983 12.4551 0.233996 13.4763C0.433322 13.7595 0.955903 13.7042 1.11883 13.6795C2.50371 13.4661 3.7326 12.7034 4.92076 11.9662C5.42514 11.6533 5.94598 11.3301 6.47463 11.0504L6.5067 11.0334C6.64536 10.9586 6.93395 10.8038 7.3274 10.7341C7.54319 10.6958 7.76505 10.6865 7.98691 10.706C8.04497 10.7111 8.08744 10.7613 8.08224 10.8183C8.07704 10.8752 8.02591 10.9169 7.96784 10.9118C7.76505 10.8939 7.56139 10.9033 7.3638 10.9373C7.00415 11.0011 6.74589 11.1397 6.60636 11.2145L6.57256 11.2324C6.04998 11.5087 5.53173 11.8301 5.03082 12.1405C3.82446 12.8887 2.57738 13.6625 1.14916 13.8827C1.03997 13.8998 0.936837 13.9074 0.838907 13.9074H0.842374Z" fill="white"/>
<path d="M11.7611 17.9999C11.4768 17.9999 11.1649 17.8137 10.8893 17.4694C9.99664 16.3529 9.62138 14.9533 9.25826 13.5988C9.10747 13.0367 8.95148 12.4551 8.76082 11.9033C8.75388 11.882 8.74608 11.8565 8.73655 11.8268C8.68889 11.6686 8.60829 11.405 8.3925 11.1652C8.3223 11.0879 8.24344 11.0173 8.15764 10.9552C8.11084 10.922 8.10044 10.8566 8.13424 10.8107C8.1689 10.7647 8.23477 10.7545 8.28157 10.7877C8.3795 10.8583 8.47049 10.9382 8.55022 11.0275C8.79722 11.3013 8.88908 11.604 8.93848 11.7664C8.94628 11.7936 8.95408 11.8166 8.96014 11.8353C9.1534 12.3939 9.31026 12.9789 9.46192 13.5444C9.81984 14.8776 10.189 16.2568 11.0548 17.3393C11.1571 17.4668 11.5011 17.8562 11.8434 17.7823C11.8391 16.3827 11.3885 15.0111 10.9525 13.6838C10.5842 12.5614 10.2029 11.4008 10.0833 10.212C10.0772 10.1551 10.1197 10.1049 10.1778 10.099C10.2358 10.093 10.287 10.1347 10.293 10.1916C10.4109 11.3582 10.7879 12.5079 11.1536 13.62C11.6025 14.9865 12.0662 16.3997 12.054 17.8588C12.054 17.9005 12.028 17.9379 11.9882 17.954C11.9154 17.9829 11.8391 17.9974 11.7602 17.9974L11.7611 17.9999Z" fill="white"/>
<path d="M11.0427 1.43948C10.9907 1.43948 10.9413 1.42588 10.8997 1.39952C10.7523 1.30514 10.7679 1.09936 10.8139 0.984573C10.8633 0.86128 10.9837 0.733735 11.1311 0.746489C11.2013 0.752441 11.2472 0.788154 11.2654 0.801759C11.3867 0.894441 11.4509 1.10191 11.3529 1.26177C11.3018 1.3451 11.2125 1.40887 11.1146 1.43098C11.0903 1.43608 11.0661 1.43948 11.0427 1.43948ZM11.0149 1.22606C11.0262 1.23286 11.0453 1.23456 11.0669 1.22946C11.1085 1.22011 11.151 1.19035 11.1727 1.15548C11.2143 1.08746 11.1779 0.997328 11.1354 0.964166C11.1285 0.959064 11.1207 0.952262 11.1129 0.952262C11.0886 0.948861 11.034 1.00073 11.0106 1.06025C10.9872 1.11892 10.9846 1.20735 11.0149 1.22691V1.22606Z" fill="white"/>
<path d="M10.7775 2.32475C10.7341 2.32475 10.6908 2.31284 10.6553 2.28903C10.5989 2.25162 10.5634 2.187 10.5591 2.11217C10.5539 2.03139 10.5851 1.95402 10.6423 1.9047C10.696 1.85878 10.774 1.83752 10.8503 1.84858C10.9135 1.85793 10.9647 1.88769 10.9924 1.93276C11.0097 1.95912 11.0167 1.99228 11.0149 2.0399C11.0123 2.10707 11.0089 2.21931 10.9109 2.28393C10.8711 2.31029 10.8243 2.3239 10.7783 2.3239L10.7775 2.32475ZM10.7731 2.11727C10.7775 2.11727 10.787 2.11727 10.7913 2.11387C10.7983 2.10707 10.8009 2.07646 10.8017 2.0535C10.7931 2.0535 10.7844 2.0569 10.7792 2.06115C10.7662 2.07306 10.7645 2.10707 10.7723 2.11812L10.7731 2.11727Z" fill="white"/>
<path d="M10.319 3.86367C10.274 3.86367 10.2289 3.85262 10.189 3.82966C10.079 3.76674 10.0512 3.63919 10.0616 3.54906C10.0746 3.43172 10.1552 3.3637 10.2081 3.31948C10.2462 3.28717 10.293 3.25401 10.3563 3.25061C10.4377 3.2455 10.5192 3.29482 10.5582 3.3739C10.5894 3.43767 10.5894 3.49464 10.5851 3.54736C10.5773 3.63834 10.566 3.76249 10.4516 3.82881C10.4117 3.85177 10.3649 3.86367 10.319 3.86367ZM10.2948 3.6511C10.3104 3.6596 10.332 3.6579 10.3442 3.6511C10.3658 3.63834 10.371 3.57797 10.3753 3.52865C10.3788 3.49124 10.3753 3.47849 10.3693 3.46403C10.3693 3.46233 10.3675 3.46148 10.3667 3.45978C10.3632 3.46233 10.358 3.46573 10.3502 3.47253C10.3026 3.51335 10.2748 3.53716 10.2714 3.57202C10.2696 3.58392 10.2705 3.63664 10.2948 3.65025V3.6511Z" fill="white"/>
<path d="M9.41945 6.62054C9.38392 6.62054 9.34926 6.61374 9.31632 6.59674C9.22793 6.55167 9.17333 6.44368 9.16813 6.30678C9.1638 6.18264 9.20366 6.02363 9.32759 5.94966C9.43419 5.88589 9.60665 5.88503 9.69418 5.98537C9.72711 6.02278 9.73751 6.0636 9.74444 6.10271C9.76524 6.2192 9.79297 6.37906 9.67424 6.5049C9.61271 6.57038 9.51392 6.62139 9.41945 6.62139V6.62054ZM9.41339 6.41307C9.42812 6.41817 9.48445 6.40032 9.51998 6.3629C9.56418 6.31614 9.55552 6.24301 9.53732 6.13672C9.53472 6.12142 9.53298 6.11632 9.53212 6.11632C9.52258 6.10951 9.46712 6.10781 9.43679 6.12567C9.40299 6.14608 9.37872 6.2141 9.37786 6.28723C9.37786 6.3663 9.40385 6.40712 9.41252 6.41307H9.41339Z" fill="white"/>
<path d="M9.44544 7.27098C9.42898 7.27098 9.41251 7.26758 9.39691 7.25908L9.06586 7.08902C9.01386 7.06266 8.99393 7.00059 9.02079 6.94957C9.04766 6.8994 9.11092 6.879 9.16292 6.90535L9.49397 7.07541C9.54597 7.10177 9.5659 7.16385 9.53904 7.21486C9.51997 7.25058 9.48357 7.27013 9.44544 7.27013V7.27098Z" fill="white"/>
<path d="M9.15339 8.19695C9.14559 8.19695 9.13779 8.19695 9.12999 8.1944C8.96533 8.15869 8.82407 8.04815 8.75041 7.9002C8.72527 7.84918 8.74694 7.78711 8.7998 7.76245C8.8518 7.73779 8.91507 7.75905 8.9402 7.81091C8.98527 7.9019 9.07539 7.97162 9.17592 7.99373C9.23312 8.00648 9.26865 8.06175 9.25565 8.11702C9.24439 8.16549 9.20106 8.1978 9.15253 8.1978L9.15339 8.19695Z" fill="white"/>
<path d="M7.94445 8.71651C7.91238 8.71651 7.88118 8.70291 7.86038 8.6757C7.82485 8.63063 7.83438 8.56516 7.88031 8.53115C7.93838 8.48778 7.98084 8.42571 7.99991 8.35684C8.01551 8.30157 8.07271 8.26926 8.12904 8.28456C8.18537 8.29987 8.2183 8.35599 8.2027 8.41126C8.1715 8.52349 8.10217 8.62468 8.00771 8.69526C7.98864 8.70971 7.96611 8.71651 7.94358 8.71651H7.94445Z" fill="white"/>
<path d="M7.21214 7.94192C7.16187 7.94192 7.11767 7.90706 7.10901 7.85689C7.09861 7.80077 7.13587 7.7472 7.19394 7.73615C7.26154 7.72425 7.3274 7.68768 7.37246 7.63752C7.41146 7.595 7.47733 7.59075 7.52153 7.62901C7.56486 7.66728 7.56919 7.7319 7.53019 7.77526C7.45306 7.86114 7.34647 7.91981 7.23207 7.94022C7.226 7.94107 7.21907 7.94192 7.213 7.94192H7.21214Z" fill="white"/>
<path d="M9.30159 9.22316C9.25392 9.22316 9.21059 9.1917 9.19933 9.14408C9.17939 9.06075 9.18199 8.97402 9.20886 8.89324C9.22619 8.83882 9.28599 8.80906 9.34146 8.82607C9.39692 8.84308 9.42725 8.90175 9.40992 8.95617C9.39519 9.00038 9.39345 9.05055 9.40472 9.09561C9.41859 9.15088 9.38392 9.207 9.32672 9.22061C9.31806 9.22231 9.31026 9.22316 9.30159 9.22316Z" fill="white"/>
<path d="M10.6579 9.1968C10.6085 9.1968 10.5643 9.16194 10.5547 9.11262L10.5053 8.85243C10.4949 8.79631 10.5322 8.74274 10.5894 8.73169C10.6466 8.72148 10.7012 8.75805 10.7125 8.81417L10.7619 9.07436C10.7723 9.13048 10.735 9.18405 10.6778 9.1951C10.6717 9.19595 10.6648 9.1968 10.6587 9.1968H10.6579Z" fill="white"/>
<path d="M8.47828 9.6085C8.47828 9.6085 8.47135 9.6085 8.46788 9.6085C8.34829 9.59745 8.24776 9.50137 8.23216 9.38487C8.22436 9.3279 8.26596 9.27689 8.32315 9.26923C8.38035 9.26158 8.43322 9.3024 8.44102 9.35851C8.44362 9.37892 8.46615 9.40103 8.48782 9.40273C8.54588 9.40783 8.58834 9.45885 8.58314 9.51497C8.57794 9.56854 8.53201 9.6085 8.47828 9.6085Z" fill="white"/>
<path d="M8.34829 10.3236C8.33876 10.3236 8.32836 10.3219 8.31883 10.3193C8.1793 10.2794 8.07704 10.1476 8.0753 10.0047C8.0753 9.94776 8.12123 9.901 8.1793 9.90015H8.18016C8.23823 9.90015 8.28503 9.94606 8.28589 10.0022C8.28589 10.0541 8.32663 10.1059 8.37776 10.1204C8.43322 10.1365 8.46615 10.1935 8.44969 10.2488C8.43669 10.2938 8.39422 10.3236 8.34829 10.3236Z" fill="white"/>
<path d="M4.27338 11.9339C4.23785 11.9339 4.20318 11.9262 4.17025 11.9101C4.08186 11.865 4.02639 11.757 4.02206 11.6193C4.01772 11.4951 4.05759 11.3361 4.18152 11.2622C4.28811 11.1984 4.46057 11.1975 4.54811 11.2979C4.58104 11.3353 4.59144 11.3761 4.59837 11.4152C4.6183 11.5317 4.6469 11.6916 4.52817 11.8174C4.46577 11.8829 4.36785 11.9339 4.27338 11.9339ZM4.26732 11.7264C4.28205 11.7315 4.33838 11.7137 4.37391 11.6763C4.41811 11.6295 4.40944 11.5564 4.39124 11.4501C4.38864 11.4348 4.38691 11.4297 4.38604 11.4288C4.37651 11.422 4.32105 11.4203 4.29071 11.4382C4.25692 11.4586 4.23178 11.5266 4.23178 11.5997C4.23178 11.678 4.25778 11.7196 4.26645 11.7256L4.26732 11.7264Z" fill="white"/>
<path d="M16.9228 8.54458C16.8777 8.54458 16.8326 8.53353 16.7928 8.51057C16.6827 8.44765 16.655 8.3201 16.6654 8.22997C16.6784 8.11263 16.759 8.0446 16.8118 8.00039C16.85 7.96808 16.8968 7.93491 16.96 7.93151C17.0424 7.92641 17.123 7.97573 17.162 8.05481C17.1932 8.11858 17.1932 8.17555 17.1888 8.22742C17.181 8.3184 17.1698 8.44254 17.0554 8.50972C17.0155 8.53268 16.9687 8.54458 16.9228 8.54458ZM16.8985 8.332C16.9141 8.34051 16.9358 8.33881 16.9479 8.332C16.9696 8.31925 16.9748 8.25888 16.9791 8.20956C16.9826 8.17215 16.9791 8.15939 16.973 8.14494C16.973 8.14324 16.9713 8.14239 16.9704 8.14154C16.967 8.14409 16.9618 8.14749 16.954 8.15429C16.9063 8.19511 16.8786 8.21892 16.8751 8.25378C16.8734 8.26568 16.8742 8.3184 16.8985 8.332Z" fill="white"/>
<path d="M16.2615 8.68485C16.2182 8.68485 16.1749 8.67295 16.1393 8.64914C16.083 8.61173 16.0475 8.54711 16.0431 8.47228C16.0379 8.3915 16.0691 8.31412 16.1255 8.26481C16.1792 8.21889 16.2572 8.19763 16.3335 8.20869C16.3967 8.21804 16.4479 8.2478 16.4756 8.29287C16.4929 8.32093 16.4998 8.35324 16.4981 8.4C16.4955 8.46718 16.4921 8.57942 16.3941 8.64404C16.3543 8.6704 16.3075 8.684 16.2615 8.684V8.68485ZM16.2572 8.47823C16.2615 8.47823 16.2711 8.47823 16.2754 8.47483C16.2823 8.46803 16.2849 8.43742 16.2858 8.41446C16.2771 8.41446 16.2685 8.41786 16.2633 8.42211C16.2503 8.43317 16.2494 8.46803 16.2563 8.47908L16.2572 8.47823Z" fill="white"/>
<path d="M14.9486 9.06413C14.9035 9.06413 14.8584 9.05307 14.8186 9.03011C14.7076 8.96719 14.6808 8.83965 14.6912 8.74952C14.7042 8.63217 14.7848 8.56415 14.8376 8.51908C14.8758 8.48677 14.9226 8.45361 14.9858 8.45021C15.0682 8.44596 15.1496 8.49443 15.1878 8.5735C15.219 8.63728 15.219 8.69425 15.2146 8.74611C15.2068 8.8371 15.1956 8.96124 15.0812 9.02756C15.0413 9.05052 14.9945 9.06243 14.9486 9.06243V9.06413ZM14.9243 8.85155C14.9399 8.86005 14.9624 8.85835 14.9737 8.85155C14.9954 8.8388 15.0006 8.77843 15.0049 8.72911C15.0084 8.6917 15.0049 8.67894 14.9988 8.66449C14.9988 8.66279 14.9971 8.66193 14.9962 8.66108C14.9928 8.66364 14.9876 8.66704 14.9798 8.67384C14.9321 8.71465 14.9052 8.73846 14.9009 8.77332C14.8992 8.78523 14.9 8.83795 14.9243 8.85155Z" fill="white"/>
<path d="M3.58614 12.087C3.54281 12.087 3.49948 12.075 3.46395 12.0512C3.40761 12.0138 3.37208 11.9492 3.36775 11.8744C3.36255 11.7936 3.39375 11.7162 3.45008 11.6669C3.50381 11.621 3.58181 11.5997 3.65807 11.6108C3.72134 11.6201 3.77247 11.6499 3.8002 11.695C3.81753 11.7213 3.82447 11.7545 3.82273 11.8021C3.82013 11.8693 3.81667 11.9815 3.71874 12.0461C3.67887 12.0725 3.63207 12.0861 3.58614 12.0861V12.087ZM3.58181 11.8803C3.58614 11.8803 3.59567 11.8803 3.60001 11.8769C3.60694 11.8701 3.60954 11.8395 3.61127 11.8166C3.60261 11.8166 3.59394 11.82 3.58874 11.8242C3.57574 11.8361 3.57487 11.8701 3.58181 11.8812V11.8803Z" fill="white"/>
<path d="M2.11373 13.0716C2.06173 13.0716 2.01233 13.058 1.97073 13.0316C1.8234 12.9372 1.839 12.7314 1.88493 12.6167C1.93433 12.4934 2.05393 12.3658 2.20212 12.3786C2.27145 12.3845 2.31825 12.4202 2.33558 12.4338C2.45691 12.5265 2.52104 12.734 2.42398 12.8939C2.37285 12.9772 2.28359 13.041 2.18566 13.0631C2.16139 13.0682 2.13712 13.0716 2.11373 13.0716ZM2.18219 12.5843C2.15619 12.5843 2.10506 12.6337 2.08166 12.6923C2.05826 12.751 2.05566 12.8394 2.08686 12.859C2.09813 12.8658 2.11719 12.8675 2.13886 12.8624C2.18046 12.853 2.22292 12.8233 2.24372 12.7884C2.28532 12.7204 2.24979 12.6294 2.20646 12.5971C2.20039 12.592 2.19172 12.5852 2.18392 12.5852C2.18392 12.5852 2.18306 12.5852 2.18219 12.5852V12.5843Z" fill="white"/>
<path d="M6.19211 7.41385C6.14011 7.41385 6.09071 7.40024 6.04912 7.37388C5.90179 7.2795 5.91739 7.07373 5.96332 6.95894C6.01272 6.83564 6.13405 6.7081 6.28051 6.72085C6.34984 6.72681 6.39664 6.76252 6.41397 6.77612C6.5353 6.86966 6.59943 7.07628 6.50236 7.23614C6.45123 7.31947 6.36197 7.38324 6.26404 7.40535C6.23977 7.41045 6.21551 7.41385 6.19211 7.41385ZM6.16438 7.20042C6.17564 7.20808 6.19471 7.20893 6.21638 7.20382C6.25797 7.19447 6.30044 7.16471 6.32124 7.12985C6.36284 7.06182 6.32644 6.97169 6.28397 6.93853C6.27791 6.93343 6.26924 6.92663 6.26144 6.92663C6.23457 6.92323 6.18258 6.97424 6.15918 7.03462C6.13578 7.09329 6.13318 7.18172 6.16438 7.20127V7.20042Z" fill="white"/>
<path d="M9.63698 11.5965C9.58498 11.5965 9.53558 11.5829 9.49399 11.5565C9.34666 11.4621 9.36226 11.2563 9.40819 11.1416C9.45759 11.0183 9.57632 10.8907 9.72538 10.9035C9.79471 10.9094 9.84151 10.9451 9.85884 10.9587C9.98017 11.0514 10.0443 11.2589 9.94723 11.4188C9.8961 11.5029 9.80684 11.5659 9.70804 11.588C9.68378 11.5931 9.65951 11.5965 9.63611 11.5965H9.63698ZM9.60925 11.383C9.62051 11.3898 9.63958 11.3915 9.66125 11.3864C9.70284 11.3771 9.74531 11.3473 9.76697 11.3125C9.80857 11.2444 9.77217 11.1543 9.72971 11.1211C9.72364 11.116 9.71411 11.1092 9.70718 11.1092C9.68551 11.1058 9.62831 11.1569 9.60491 11.2172C9.58152 11.2759 9.57892 11.3643 9.61011 11.3839L9.60925 11.383Z" fill="white"/>
<path d="M11.0955 16.6853C11.0435 16.6853 10.9941 16.6717 10.9525 16.6454C10.8052 16.551 10.8208 16.3452 10.8667 16.2304C10.9161 16.1071 11.0366 15.9796 11.1839 15.9923C11.2532 15.9983 11.3 16.034 11.3174 16.0476C11.4387 16.1403 11.5028 16.3478 11.4058 16.5076C11.3546 16.5909 11.2654 16.6547 11.1675 16.6768C11.1432 16.6819 11.1189 16.6853 11.0955 16.6853ZM11.0678 16.4719C11.0791 16.4796 11.0981 16.4804 11.1198 16.4753C11.1614 16.466 11.2039 16.4362 11.2247 16.4013C11.2662 16.3333 11.2307 16.2423 11.1874 16.21C11.1813 16.2049 11.1727 16.1981 11.1649 16.1981C11.1415 16.1939 11.086 16.2457 11.0626 16.3061C11.0392 16.3648 11.0366 16.4532 11.0678 16.4728V16.4719Z" fill="white"/>
<path d="M10.1821 14.1966C10.1466 14.1966 10.1119 14.1889 10.079 14.1728C9.99056 14.1277 9.9351 14.0197 9.93076 13.882C9.92643 13.7578 9.9663 13.5988 10.0902 13.5249C10.1968 13.4611 10.3693 13.4602 10.4568 13.5606C10.4897 13.598 10.5001 13.6388 10.5071 13.6779C10.5279 13.7944 10.5556 13.9543 10.4369 14.0801C10.3753 14.1456 10.2766 14.1966 10.1821 14.1966ZM10.176 13.9891C10.1908 13.9942 10.2471 13.9764 10.2826 13.9389C10.3268 13.8922 10.3182 13.8191 10.3 13.7128C10.2974 13.6975 10.2956 13.6924 10.2948 13.6915C10.2852 13.6847 10.2298 13.683 10.1994 13.7009C10.1656 13.7213 10.1405 13.7893 10.1405 13.8624C10.1405 13.9406 10.1665 13.9823 10.1752 13.9883L10.176 13.9891Z" fill="white"/>
<path d="M9.96196 13.2442C9.91863 13.2442 9.8753 13.2323 9.83977 13.2085C9.78344 13.1711 9.74791 13.1064 9.74357 13.0316C9.73837 12.9508 9.76957 12.8734 9.8259 12.8241C9.87963 12.7782 9.95763 12.757 10.0339 12.768C10.0972 12.7774 10.1483 12.8071 10.176 12.8522C10.1934 12.8786 10.2003 12.9117 10.1986 12.9593C10.196 13.0265 10.1925 13.1387 10.0946 13.2034C10.0547 13.2297 10.0079 13.2442 9.96196 13.2442ZM9.95763 13.0367C9.96196 13.0367 9.9715 13.0367 9.97583 13.0333C9.98276 13.0265 9.98536 12.9959 9.98623 12.9729C9.97756 12.9729 9.9689 12.9763 9.9637 12.9806C9.9507 12.9925 9.94983 13.0265 9.95676 13.0376L9.95763 13.0367Z" fill="white"/>
<path d="M2.31824 4.08476C2.27491 4.08476 2.23158 4.07285 2.19605 4.04904C2.13972 4.01163 2.10418 3.94701 2.09985 3.87218C2.09465 3.7914 2.12585 3.71403 2.18218 3.66471C2.23591 3.61879 2.31391 3.59753 2.39017 3.60859C2.45344 3.61794 2.5037 3.6477 2.5323 3.69277C2.54963 3.71998 2.55657 3.75314 2.55483 3.79991C2.55223 3.86708 2.54877 3.97932 2.45084 4.04394C2.41097 4.0703 2.36417 4.08391 2.31824 4.08391V4.08476ZM2.31391 3.87813C2.31911 3.87813 2.32778 3.87813 2.33211 3.87473C2.33904 3.86793 2.34164 3.83732 2.34251 3.81436C2.33384 3.81436 2.32518 3.81776 2.31998 3.82201C2.30698 3.83307 2.30611 3.86793 2.31304 3.87898L2.31391 3.87813Z" fill="white"/>
<path d="M2.8313 4.9053C2.7793 4.9053 2.7299 4.8917 2.68831 4.86534C2.54098 4.77096 2.55658 4.56518 2.60251 4.45039C2.65191 4.3271 2.77064 4.19955 2.9197 4.21231C2.98903 4.21826 3.03583 4.25397 3.05316 4.26758C3.17449 4.36026 3.23862 4.56773 3.14156 4.72759C3.09042 4.81092 3.00116 4.87469 2.90323 4.8968C2.87897 4.9019 2.8547 4.9053 2.8313 4.9053ZM2.89976 4.41808C2.87377 4.41808 2.82177 4.4674 2.79837 4.52607C2.77497 4.58474 2.77237 4.67317 2.80357 4.69273C2.81483 4.69953 2.8339 4.70123 2.85557 4.69613C2.89716 4.68678 2.93963 4.65702 2.96043 4.62215C3.00203 4.55413 2.9665 4.46315 2.92316 4.43084C2.9171 4.42573 2.90756 4.41893 2.90063 4.41893C2.90063 4.41893 2.89976 4.41893 2.8989 4.41893L2.89976 4.41808Z" fill="white"/>
<path d="M3.66673 5.71575C3.61474 5.71575 3.56534 5.70214 3.52374 5.67578C3.37641 5.5814 3.39201 5.37563 3.43794 5.26084C3.48734 5.13754 3.6078 5.01085 3.75513 5.02275C3.82533 5.0287 3.87126 5.06442 3.88946 5.07802C4.01079 5.1707 4.07492 5.37818 3.97699 5.53803C3.92586 5.62136 3.83659 5.68514 3.73867 5.70724C3.7144 5.71234 3.69013 5.71575 3.66673 5.71575ZM3.639 5.50232C3.65027 5.50912 3.66933 5.51082 3.691 5.50572C3.7326 5.49637 3.77506 5.46661 3.79673 5.43175C3.83833 5.36372 3.80193 5.27359 3.75946 5.24043C3.75253 5.23533 3.74473 5.22852 3.73693 5.22852C3.71267 5.22427 3.65807 5.27699 3.63467 5.33651C3.61127 5.39518 3.60867 5.48361 3.639 5.50317V5.50232Z" fill="white"/>
</g>
<defs>
<clipPath id="clip0_487_12175">
<rect width="18" height="18" fill="white"/>
</clipPath>
</defs>
</svg>
