<svg fill="none" height="55" viewBox="0 0 120 55" width="120" xmlns="http://www.w3.org/2000/svg" xmlns:xlink="http://www.w3.org/1999/xlink"><clipPath id="a"><path d="m0 0h120v55h-120z" transform="matrix(-1 0 0 1 120 0)"/></clipPath><g clip-path="url(#a)" fill="#408f95"><path d="m94.5061 6.11159c.1043 0 .2043-.05837.2522-.15782.15-.30914.2087-.61829.1783-.91663-.1588-1.52627-2.5394-2.28725-4.2787-2.84285-1.8349-.58586-3.7786-.92311-5.7744-1.00094-.1479-.01081-.2848.11242-.2914.26807-.0065.15349.1153.2832.2696.28969 1.9459.07567 3.8373.40211 5.6244.97284 1.411.45183 3.7743 1.20632 3.8939 2.37156.0195.19673-.0218.40427-.1261.62046-.0674.13836-.0087.30482.1304.37184.0392.01946.0805.0281.1218.0281z"/><path d="m63.1492 7.8173h.0326c.45-.05188.9001-.14484 1.3371-.27888.5804-.17727 1.0131-.39346 1.1957-.48426l.0609-.03026c1.9806-.95555 4.0243-1.83759 6.0723-2.61802 1.8849-.71774 3.3764-1.28631 5.3809-1.78354 2.1154-.52317 4.3069-.84529 6.5115-.95338.1543-.00865.2739-.13836.2652-.29185-.0087-.1535-.137-.2724-.2935-.26375-2.2415.11025-4.4678.4367-6.6202.97068-2.0393.50587-3.5416 1.07877-5.4461 1.80299-2.0632.78692-4.1221 1.67328-6.1158 2.63531l-.0674.03243c-.1869.09296-.5761.28753-1.1109.45183-.4044.12323-.8197.2097-1.2371.25726-.1544.0173-.2631.15566-.2457.30699.0152.14268.137.24645.2783.24645z"/><path d="m89.3319 11.0428c.0435 0 .0869-.0108.1283-.0302.4804-.2487 1.1979-.6291 1.8784-1.03558.1804-.10809.5174-.30698.9522-.59883.1327-.08864.2762-.18592.424-.29402.5305-.37616 1.0436-.78475 1.5284-1.2128.013-.01297.0261-.02594.037-.04108.0239-.03026.0608-.07566.1087-.13187.4913-.59235.9544-1.20848.7609-1.6495-.0609-.14053-.2109-.31131-.5718-.33077-.1565-.01081-.287.10809-.2957.26159-.0087.15349.1087.28536.2631.29401.0457.00216.0739.00865.0913.01297 0 .09945-.1022.36103-.6805 1.05715-.0435.05189-.0783.09513-.1043.12755-.4653.4086-.9567.79773-1.4632 1.15876-.1457.10377-.2827.19673-.4109.28537-.4218.2832-.7501.47777-.9262.5837-.6696.39778-1.374.77395-1.848 1.01825-.137.0713-.1913.2378-.1196.3762.05.0951.1479.1513.2479.1513z"/><path d="m78.1851 12.6664c2.735 0 5.3613-.307 5.3939-.3113 1.6502-.2054 3.3155-.5081 4.9461-.8993.15-.0368.2435-.186.2066-.3351-.037-.1492-.187-.2422-.337-.2054-1.611.387-3.2547.6853-4.8831.8863-.0348.0044-3.7329.4367-6.8897.2681-.9784-.0519-1.9719-.1708-2.9503-.3567-.437-.0821-.674-.1405-1.6675-.3805l-1.2023-.2918c-.3935-.0951-.737-.1816-1.0414-.2573-.9088-.227-1.5088-.3783-2.0915-.4194-.8631-.0605-1.7436.013-2.6133.2205-.15.0346-.2435.1859-.2065.3351.0348.1492.1848.2421.337.2054.8153-.1924 1.6371-.2616 2.4437-.2054.5348.0368 1.0848.1751 1.9936.4043.3066.0778.6523.1643 1.0458.2594l1.2022.2919c.9806.2378 1.2436.3026 1.6959.3869 1.0022.1881 2.0197.3113 3.0241.3654.524.0281 1.061.0389 1.5937.0389z"/><path d="m62.2684 7.83678c.1195 0 .2304-.07783.2674-.19673.0456-.14701-.037-.30267-.1848-.34806-.6523-.1989-4.0526-1.21497-6.855-1.62573-1.3675-.20105-2.3698-.22051-3.4612-.06918-.3565.04973-.7131.11891-1.0609.20322-.1501.03675-.2414.18808-.2044.33725.0369.14917.187.24213.3392.20322.3282-.07999.6674-.14485 1.0066-.19241 1.0348-.14485 1.9914-.12539 3.3024.06702 2.7612.40643 6.1267 1.40953 6.7724 1.60842.0283.00865.0543.01298.0826.01298z"/><path d="m54.2155 17.9543c.0195 0 .0391 0 .0587-.0065 1.2523-.268 3.3829-1.2992 4.1612-2.0105.6718-.4994 1.2088-.895 1.6654-1.2323 1.5806-1.1652 2.235-1.6451 4.3112-3.3833.1174-.0994.1327-.2745.0348-.3913-.1-.1167-.2761-.1319-.3935-.0346-2.0632 1.7252-2.7133 2.2051-4.2852 3.3617-.4609.3394-1.0022.7372-1.6805 1.2431-.0087.0065-.0153.013-.024.0195-.7.6485-2.7459 1.6343-3.909 1.8829-.1522.0325-.2479.1795-.2153.3308.0283.1297.1435.2205.274.2205z"/><path d="m54.2159 17.9543c.0739 0 .15-.0302.2043-.0886.7283-.7718 1.6632-2.0711 1.9741-3.8784.0935-.5405.3109-1.8051-.2-3.2428-.4674-1.31224-1.2827-2.07106-2.2263-2.95093-.8283-.77179-1.7697-1.43332-2.8003-1.96946-.1369-.07134-.3065-.01946-.3782.11674-.0718.13619-.0196.30482.1174.37616.9848.51236 1.8849 1.14579 2.6763 1.88299.9262.86258 1.6588 1.54573 2.0806 2.7304.4631 1.3015.2631 2.4667.1761 2.9639-.287 1.6712-1.1544 2.8753-1.8306 3.5909-.1065.1124-.1.2875.0131.3935.0543.0497.1239.0756.1913.0756z"/><path d="m58.1225 9.2571c.0826 0 .163-.03459.2174-.10377.0978-.1189.0782-.29401-.0413-.39129-.4762-.38265-.9979-.7091-1.5502-.96636-.6653-.31131-1.3718-.52533-2.1002-.63775-.1522-.02378-.2956.07999-.3196.23348-.0239.15133.0805.29402.2348.3178.6762.10377 1.3306.30266 1.948.59235.511.23997.9958.54046 1.4371.89717.0522.04108.1131.0627.1761.0627z"/><path d="m56.9767 15.2995c.0587 0 .1195-.0194.1717-.0583.6044-.4648 1.6784-1.4658 2.0611-2.9488.1174-.4583.3652-1.4139-.0674-2.38889-.0609-.1362-.1326-.27024-.2131-.39562-.0848-.12972-.2565-.16647-.387-.08215-.1304.08431-.1674.2551-.0826.38481.0652.09944.1239.20755.1718.31775.3543.7999.1478 1.5977.0369 2.0279-.3413 1.323-1.3131 2.2267-1.861 2.6461-.1218.093-.1457.2681-.05.3913.0543.0713.1369.1081.2217.1081z"/><path d="m84.5621 9.32412c.0587 0 .1174 0 .1783-.00432 1.2718-.05405 2.1719-.66369 2.5958-1.02256.1174-.09945.1327-.27456.0327-.3913-.1001-.11674-.2762-.13188-.3936-.03243-.3696.31347-1.1544.84313-2.2567.89069-1.1066.0454-1.8589-.41508-2.3567-.72206-.2718-.16863-.3761-.27024-.4109-.31564.0826-.09296.4391-.2551 1.5958-.46047 1.0392-.18376 2.1328-.22916 3.2503-.13404.1543.01081.2891-.09945.3022-.25294.013-.15349-.1-.28753-.2544-.3005-1.1653-.09944-2.3089-.05188-3.396.14052-1.0631.18809-2.0219.40643-2.0675.98149-.0218.26159.1848.50588.687.81502.4978.30699 1.3153.80854 2.4958.80854z"/><path d="m89.4799 9.72842c.0978 0 .1935-.05189.2457-.14269.0761-.13403.0261-.30482-.1087-.37832-.8588-.47345-1.5741-1.10688-2.1285-1.8765-.2935-.40859-.5392-.85394-.7261-1.32522-.0566-.14269-.2196-.21187-.3631-.15566s-.2131.21835-.1566.36103c.2066.51237.4718.99879.7914 1.44197.6022.8388 1.3806 1.52627 2.3111 2.0408.0435.02378.0891.03459.1348.03459z"/><path d="m92.0517 4.20482c-.0413-.24213-.2718-.40427-.5131-.36319-.2435.04107-.4065.27023-.3652.5102.0413.24213.2717.40426.5131.36319.2435-.04108.4065-.27023.3652-.5102z"/><path d="m79.507 14.6985c.4892-.0064.9653-.0454 1.4349-.1167.6436-.0973 1.2828-.2573 1.898-.4756 2.2611-.7999 3.4982-1.4895 5.5462-2.631.1348-.0757.1826-.2443.1065-.3783-.0761-.1341-.2457-.1816-.3805-.106-2.0914 1.1653-3.2437 1.8074-5.4613 2.5921-.5827.2054-1.1849.3567-1.7937.4497-.4435.067-.8935.1038-1.3414.1102-.5109-.0194-.7566-.0886-.8675-.1383.137-.093.487-.2746 1.3632-.5491.1479-.0454.2283-.2032.1826-.3481-.0456-.147-.2043-.2291-.35-.1816-1.4088.441-1.8849.7437-1.8197 1.1523.0826.5102.887.5988 1.4849.6226z"/><path d="m78.6527 13.4836c.174 0 .3392-.0087.4957-.0173 2.2459-.1384 4.0591-.614 4.1352-.6356.8457-.2248 1.6936-.4994 2.5198-.815.1435-.0562.2152-.2162.1609-.3589-.0566-.1427-.2174-.214-.3609-.16-.8088.3092-1.6371.5772-2.4633.7977-.0739.0195-1.8328.4821-4.0243.6162-.5044.0302-1.0479.0432-1.6849-.1816-.3457-.1211-.674-.2984-.974-.5254-.1239-.0929-.2979-.0691-.3914.0541-.0934.1232-.0695.2962.0544.3891.3457.2616.724.4648 1.124.6053.5196.1838.9914.2314 1.411.2314z"/><path d="m69.4151 14.6986c.7305 0 1.4566-.0714 2.1762-.2141 1.5893-.3178 3.1242-.9966 4.4396-1.9629.1239-.0908.15-.2659.0587-.3892-.0913-.1232-.2674-.1491-.3914-.0583-1.2501.9188-2.7067 1.5652-4.2156 1.8657-1.1349.2269-2.2937.2637-3.4459.1145.0434-.3718.1695-1.0312.5174-1.5068.1-.1362.2652-.3632.5566-.5469.0761-.0498.1348-.0779.2935-.1557l.1109-.054c.3174-.1579.5739-.2897.7435-.3784.137-.0713.1892-.2399.1174-.3761-.0717-.1362-.2413-.1881-.3783-.1168-.1674.0887-.4196.2184-.7327.3719l-.1087.054c-.1674.0822-.2435.1189-.3478.1859-.3805.2422-.5936.5319-.7066.6875-.5414.735-.6327 1.7619-.6479 2.0581-.0065.1427.0957.2681.237.2897.5739.0886 1.1501.134 1.7262.134z"/><path d="m66.9755 5.91919c.4109 0 .8479-.02811 1.3349-.07999.1544-.0173.2653-.15349.2479-.30699-.0174-.15349-.1544-.26591-.3088-.24645-.4696.04972-.887.07567-1.2783.07783-.1544 0-.2783.12539-.2783.27888s.1261.27672.2804.27672z"/><path d="m66.7275 2.76072c.0283 0 .0587-.00432.087-.01297.313-.10377.6261-.2097.9392-.31779.8631-.29618 1.7567-.60316 2.6828-.80638 4.0308-.815022 7.9573-1.165244 11.6663-1.039856.1522.004324.2848-.114579.2892-.268071.0043-.153493-.1153-.2832047-.2696-.2875284-3.7504-.12755-7.7225.2248344-11.8011 1.0506654-.9631.21186-1.8697.52317-2.7481.82583-.3109.10593-.6218.21403-.9327.31564-.1478.04756-.2261.20537-.1782.35022.0391.11674.1478.1924.2652.1924z"/><path d="m88.082 2.10998c.1065 0 .2087-.06053.2544-.16214.063-.14052 0-.30482-.1392-.36751-.7109-.32212-1.4479-.598841-2.1937-.825837-.9631-.294014-1.9567-.508038-2.9568-.63775-.1543-.0194568-.2935.086475-.313.239967-.0196.153492.0869.291852.2413.311308.9675.125389 1.9328.332932 2.8655.618292.7218.22051 1.4392.48858 2.1263.79989.0369.0173.076.02594.1152.02594z"/><path d="m82.5379 1.35116c.0913 0 .1826-.0454.237-.12755.0826-.12971.0457-.302659-.0848-.38481-.0587-.036751-.1457-.090798-.2522-.15133-.4-.224834-.8327-.395621-1.2849-.5102-.35-.0886367-.7109-.1405215-1.074-.1556545-.1544-.0064856-.2848.1124165-.2913.2659095-.0066.153492.113.283204.2674.28969.3261.012971.6479.060532.9609.138359.4044.101608.7914.2551 1.148.453996.0956.05404.1717.1016.2261.13403.0456.03027.0978.04324.15.04324z"/><path d="m78.6397 1.59549c.0913 0 .1826-.0454.2348-.12755.0826-.12972.0457-.3005-.0848-.38482-.0587-.03675-.1457-.090794-.2522-.151327-.4-.224834-.8327-.395621-1.2871-.5102-.35-.088636-.7109-.140521-1.074-.155654-.1543-.008647-.2848.112417-.2913.265909-.0065.153493.1131.283205.2674.28969.3261.012971.6479.060532.961.13836.4044.101612.7914.255102 1.1479.453992.0957.05405.1718.10161.2261.13403.0457.03027.1.04324.15.04324z"/><path d="m75.0438 2.10135c.0913 0 .1826-.0454.237-.12755.0826-.12972.0456-.3005-.0848-.38482-.0587-.03675-.1457-.09079-.2522-.15133-.4022-.22483-.8349-.39562-1.2871-.510197-.35-.088637-.7109-.140521-1.074-.155654-.1544-.006486-.2848.112417-.2913.265911-.0066.15349.113.2832.2674.28969.3261.01297.6479.06053.9609.13836.4044.1016.7914.2551 1.148.45399.0956.05405.1717.10161.2261.13403.0456.03027.0978.04324.15.04324z"/><path d="m69.6996 13.5787h.0065c.9566-.0238 1.8654-.2378 2.6981-.6399.363-.1751.7109-.3848 1.0348-.6248.124-.0929.1501-.2659.0566-.3891s-.2674-.1492-.3914-.0562c-.2957.2205-.6152.4129-.9435.5707-.761.3654-1.5915.5621-2.4677.5837-.1543.0043-.2761.1319-.2739.2854.0044.1513.1283.2724.2805.2724z"/><path d="m70.2042 12.4567c.0326 0 .0653-.0065.0957-.0173l1.5936-.5794c.1457-.0518.2196-.2118.1674-.3567-.0522-.1448-.2152-.2183-.3587-.1664l-1.5936.5793c-.1457.0519-.2196.2119-.1674.3568.0413.1124.1478.1837.263.1837z"/><path d="m66.2341 5.89324c.15 0 .2761-.1189.2804-.27023.0044-.1535-.1174-.28105-.2717-.28537-1.0545-.03026-1.5045-.23348-1.5784-.72206.2-.66802.7131-1.21065 1.5653-1.65599.137-.07134.1892-.23997.1174-.37616-.0717-.1362-.2413-.18809-.3783-.11675-1.0196.53182-1.6284 1.20416-1.8588 2.05378-.0087.03242-.0109.06701-.0087.09944.1174 1.21497 1.524 1.25605 2.1241 1.27334z"/><path d="m54.6593 51.2816c.0892 0 .1761-.0433.2305-.1211.1261-.1837.1956-.3783.2065-.5772.05-.9772-1.3066-1.6517-2.298-2.1446-1.024-.5102-2.135-.882-3.3003-1.1068-.1522-.0281-.2979.0691-.3283.2205-.0305.1513.0696.2961.2218.3264 1.1153.2162 2.1762.5707 3.1568 1.0572.7565.3761 2.0197 1.0052 1.9893 1.6192-.0044.0951-.0413.1924-.1087.2897-.087.1275-.0544.3005.0717.387.0478.0324.1044.0497.1587.0497z"/><path d="m50.8808 53.7915c.026 0 .0543-.0043.0804-.013.5196-.1578 1.0327-.3394 1.5241-.5404.2152-.0887.5087-.2097.8892-.4.3456-.1751.687-.3675 1.0088-.575.0152-.0109.0304-.0217.0434-.0346.0153-.0152.0413-.0368.0718-.0649.3652-.3243.7153-.6702.6261-1.0053-.0261-.0972-.1109-.268-.3913-.3264-.15-.0324-.3.0627-.3327.214-.026.1189.0305.2357.1283.2962-.0587.0778-.1761.2054-.4044.4064-.0261.0238-.05.0433-.0674.0606-.3.1924-.6152.3718-.937.5339-.3609.1816-.6435.2984-.8501.3827-.4739.1946-.9696.3718-1.4719.5232-.1478.0454-.2304.201-.1869.348.0369.1211.1478.1968.2674.1968z"/><path d="m48.4524 53.9493c.7414 0 1.4871-.0303 2.2263-.093.1543-.0129.2674-.147.2544-.3005-.0131-.1535-.1501-.2659-.3022-.2529-.9675.08-1.9459.1081-2.909.08-.0196 0-2.2024-.0778-4.0134-.4562-.5588-.1167-1.1219-.2724-1.6697-.4669-.2435-.0865-.3761-.1405-.9327-.3697l-.6718-.2767c-.1892-.0779-.3566-.1492-.5109-.2141-.487-.2053-.8392-.3545-1.261-.4626-.574-.1492-1.1806-.2183-1.8067-.2032-.1544.0043-.2761.1319-.2739.2854.0043.1535.1282.2745.2869.2724.574-.013 1.1284.0497 1.6524.1837.3826.0995.7174.24 1.1827.4367.1565.067.3261.1384.5174.2162l.6718.2767c.5522.227.7001.2875.9588.3783.5718.2011 1.1588.3654 1.7415.4865 1.861.3869 4.0199.4648 4.1112.4669.2479.0065.4979.0108.7457.0108z"/><path d="m36.5882 49.4786h.0109c.1565-.0065.3153-.0216.4696-.0433.3674-.054.6436-.1426.7631-.1816l.0326-.0108c1.2349-.3783 2.5003-.7091 3.7591-.9793 1.1588-.2486 2.0741-.4453 3.2785-.5556 1.2719-.1167 2.5677-.1081 3.8526.0259.1543.0152.2913-.0951.3065-.2486s-.0957-.2897-.25-.3048c-1.3219-.1362-2.6546-.1448-3.9612-.0259-1.2393.1124-2.1698.3134-3.346.5664-1.2762.2745-2.5568.6075-3.8069.9923l-.0413.0129c-.1043.0346-.35.1125-.6718.16-.1261.0195-.2543.0303-.3804.0368-.2066-.0368-.4131-.0887-.6131-.1557-.2435-.08-.4153-.1621-.4805-.1924-.6631-.3091-2.1893-.8755-3.5134-1.256-.7479-.2162-1.3218-.3416-2.0371-.3524-.2153-.0043-.4348.0043-.6479.0238-.1544.0129-.2674.1491-.2544.3026.0131.1535.15.2659.3044.253.1957-.0173.3935-.0238.5914-.0217.65.0087 1.1848.1276 1.8871.3308 1.4327.4129 2.8894.9728 3.4242 1.2215.0804.0367.2739.1275.5479.2183.237.0778.4805.1384.7261.1816.0152.0022.0305.0043.0479.0043z"/><path d="m30.1443 54.5827c.037 0 .0761-.0086.1131-.0237l3.0872-1.3599c.5674-.2832 1.1175-.5858 1.648-.9036.3978-.2378.7979-.4929 1.1827-.7523.1283-.0865.1609-.2595.0739-.387-.087-.1276-.2609-.16-.3892-.0735-.3783.2551-.7674.5037-1.1566.7372-.5196.3113-1.0588.6075-1.6001.8777l-3.0742 1.3533c-.1413.0627-.2044.227-.1435.3675.0456.1038.1478.1665.2565.1665z"/><path d="m30.1442 54.5828c.0804 0 .1587-.0346.213-.0995.5653-.6658 1.0044-1.4009 1.3067-2.1835.2543-.6572.4543-1.176.3696-1.857-.0957-.7696-.5001-1.2798-1.011-1.9262l-.0435-.0562c-.4196-.5319-.9153-1.0075-1.474-1.4161-.124-.0908-.3001-.0648-.3914.0584s-.0652.2983.0587.3891c.5175.3805.9784.8216 1.3654 1.3123l.0434.0562c.474.601.8175 1.0355.8958 1.6517.0674.5426-.0935.9577-.337 1.5868-.2805.7242-.6892 1.4052-1.2132 2.0256-.1.1168-.0848.2941.0326.3913.0522.0433.1174.0649.1805.0649z"/><path d="m48.9305 52.2912c.6414 0 1.1371-.24 1.3936-.3956.1305-.08.1718-.253.0913-.3827-.0804-.1297-.2522-.1708-.3848-.0908-.2305.1405-.7088.3675-1.3219.3005s-.9914-.3891-1.2435-.6032c-.037-.0302-.0653-.0583-.0892-.0799.15-.0346.4087-.0563.7762-.0649.6131-.0151 1.2436.0562 1.8741.2075.15.0368.3022-.0562.3391-.2053.037-.1492-.0565-.3005-.2065-.3373-.6783-.1643-1.3588-.24-2.0198-.2248-.7087.0173-1.3023.0648-1.4001.4756-.0587.2508.15.4691.3631.6507.2674.227.7631.6464 1.5458.7329.0978.0108.1913.0151.2826.0151z"/><path d="m51.4069 52.9375c.0826 0 .1652-.0367.2217-.1081.0957-.121.0718-.2961-.05-.3913-.4435-.3415-.7914-.7609-1.037-1.243-.1305-.2551-.2283-.5275-.2935-.8107-.0348-.1492-.1848-.2421-.3348-.2076-.1501.0346-.2435.1838-.2088.333.0761.3264.1892.6399.3392.9361.2826.5577.6848 1.0398 1.1936 1.4333.05.0389.1109.0583.1717.0583z"/><path d="m53.1136 50.3801h.0087c.2979-.0043.5392-.2508.5349-.547-.0044-.2983-.2435-.5361-.5501-.5318-.1456 0-.2804.0606-.3805.1643-.1.1038-.1543.24-.1521.3827.0043.294.2478.5318.5413.5318zm.0174-.5405s-.0065.0152-.0174.0173c-.0087 0-.0174-.0086-.0174-.0173zm0 0h-.0348s.0109-.0237.0174-.0173c.0087 0 .0174.0065.0174.0173z"/><path d="m45.9825 55c.3892 0 .7784-.0367 1.161-.1103 1.398-.2659 2.1828-.5577 3.4829-1.042.1457-.054.2174-.214.1631-.3588-.0544-.1449-.2153-.2162-.3609-.1622-1.3175.4908-2.0415.7588-3.3916 1.0161-.3501.067-.6979.0994-1.0632.0994-.2587 0-.5196-.0194-.7761-.054-.1587-.0216-.3044-.0713-.3892-.1124.1087-.0995.3805-.2811.937-.5189.1414-.0605.2088-.2248.1457-.3653-.0609-.1405-.2261-.2076-.3674-.1449-1.2523.534-1.3675.8756-1.3153 1.1372.0826.4086.7174.5296.9087.5556.2848.0389.5849.0583.861.0605z"/><path d="m40.2473 54.1158c.1 0 .2-.0022.3-.0065.9697-.0432 1.9415-.307 2.809-.761.137-.0713.1891-.24.1174-.3761-.0718-.1362-.2413-.1881-.3783-.1168-.7957.4151-1.6849.6572-2.5742.6961-.6283.0281-1.2566-.041-1.8675-.2053.0782-.2379.2044-.5016.3761-.6724.0696-.0692.1718-.1729.3392-.2443.05-.0216.0869-.0324.1717-.0605l.0696-.0216c.2-.0627.3609-.1168.4696-.1535.1457-.0497.2239-.2076.1739-.3546-.05-.1448-.2087-.2226-.3565-.1729-.1044.0367-.2631.0886-.4566.1513l-.0696.0216c-.1152.0368-.163.0519-.2304.0822-.2609.1146-.4283.281-.5088.361-.4043.4043-.5565 1.0204-.5935 1.1999-.0283.1405.0522.2788.1892.3221.6565.2075 1.3349.3113 2.0175.3113z"/><path d="m39.4209 48.7868c.1479 0 .2718-.1168.2805-.2659.0065-.1535-.1131-.2832-.2674-.2919-.274-.013-.5153-.0346-.7392-.0692-.1522-.0216-.2957.0822-.3174.2335-.0218.1513.0826.294.2348.3156.2435.0368.5044.0606.7957.0735h.013z"/><path d="m38.6536 48.7154c.1457 0 .2696-.1124.2783-.2594.0109-.1535-.1065-.2854-.2609-.2962-.7196-.0454-1.0805-.2788-1.1109-.4756-.0283-.1816.2217-.4864.837-.7307.1435-.0562.2131-.2183.1565-.361-.0565-.1427-.2196-.2119-.3631-.1557-.8218.3243-1.2653.8215-1.1827 1.3339.0848.5318.6936.8842 1.6284.9426h.0174z"/><path d="m47.9437 46.96c.1283 0 .2435-.0886.2718-.2162.0348-.1491-.0609-.2983-.2109-.3329-2.3371-.5253-4.6961-.6745-7.0137-.4432-.65.0649-1.3066.16-1.9501.2854-.1522.0302-.2501.1751-.2218.3264.0304.1514.1761.2486.3283.2205.6261-.121 1.2653-.214 1.9002-.2788 2.2567-.2249 4.5569-.08 6.8332.4323.0217.0044.0413.0065.0609.0065z"/><path d="m51.2806 48.3803c.0913 0 .1804-.0454.2348-.1254.0848-.1297.0478-.3005-.0805-.3848-.3891-.2529-.7979-.4842-1.2153-.6831-.3979-.1924-.8153-.361-1.2371-.5016-.0978-.0324-.1826-.0605-.2413-.0778-.1457-.0454-.3044.0368-.35.1816-.0457.147.0369.3027.1826.3481.0565.0173.1348.0432.2283.0735.4.134.7935.294 1.1718.4756.3957.1902.7827.4086 1.1523.6485.0478.0303.1.0454.1522.0454z"/><path d="m47.0063 47.0227c.0435 0 .0848-.0173.1152-.0519.0566-.0627.05-.16-.013-.2162-.0304-.0259-.0761-.0648-.1326-.1102-.2131-.1665-.4479-.3027-.7001-.4086-.1935-.0822-.4-.1449-.6087-.1859-.0827-.0173-.1653.0367-.1805.121s.037.1643.1218.1795c.1891.0367.3739.0929.5478.1664.2261.0951.4392.2205.6305.3675.05.0389.0913.0757.1196.0995.0283.0259.0652.0389.1022.0389z"/><path d="m45.5501 46.9773c.05 0 .1-.0259.1304-.0713.0457-.0714.0261-.1665-.0456-.2119-.0326-.0216-.0805-.0519-.1392-.0865-.2196-.1318-.4565-.2551-.6979-.361-.1891-.0843-.3804-.1578-.5739-.2227-.0805-.0259-.1674.0173-.1957.0973-.0261.08.0174.1665.0978.1946.1827.0605.3674.1319.5457.2119.2305.1016.4544.2183.6653.3437.0565.0324.1022.0627.1326.0821.0261.0173.0544.0238.0826.0238z"/><path d="m43.7082 46.9795c.0478 0 .0935-.0216.1239-.0627.05-.067.037-.1643-.0326-.214-.0326-.0238-.0782-.0584-.1369-.0973-.2175-.147-.4523-.2746-.7001-.3827-.1913-.0821-.3892-.1535-.5892-.2075-.0826-.0238-.1674.0259-.1891.1081-.0218.0821.0261.1665.1087.1881.1848.0497.3696.1145.5478.1924.2305.0994.4479.2183.6501.3545.0544.0368.0978.067.1261.0887.0283.0194.0587.0302.0913.0302z"/><path d="m40.1495 52.8987h.0217l1.2415-.1708c.0847-.0108.1435-.0887.1304-.173-.0109-.0843-.0913-.1427-.1739-.1297l-1.2414.1708c-.0848.0108-.1435.0886-.1305.1729.0109.0757.0761.1319.1522.1319z"/><path d="m32.1659 52.6457c.0413 0 .0848-.0108.1239-.0367.374-.2357.7066-.5253.9849-.8604.3739-.4475.724-.8691.6783-1.4225-.0478-.5643-.4805-.9232-.9392-1.3036-.3761-.3114-.8001-.5578-1.2632-.7286-.1195-.0454-.2522.0151-.2978.134-.0457.1189.0152.2508.1348.2962.4131.1535.7935.374 1.1283.6507.4153.3438.7436.6162.7762.9902.0304.3653-.2348.6853-.5718 1.0896-.2478.2983-.5435.5556-.8783.7674-.1087.067-.1392.2097-.0718.3178.0435.0692.1196.1059.1957.1059z"/><path d="m25.3196 43.2308c.1261 0 .2392-.0843.2718-.2118.0544-.2162.0522-.4216-.0087-.6118-.2957-.934-1.8045-1.0961-2.9046-1.2128-1.1392-.1233-2.3111-.0865-3.4807.1059-.1522.0259-.2566.1686-.2305.32.0261.1513.1674.255.3218.2291 1.1196-.1859 2.2415-.2183 3.3285-.1016.8392.0908 2.2459.2421 2.4307.828.0282.0908.0282.1946 0 .3091-.037.1492.0543.3005.2044.3373.0217.0065.0456.0086.0673.0086z"/><path d="m22.6584 46.8909c.0587 0 .1196-.0195.1696-.0562.4326-.3265.8479-.6745 1.2392-1.0356.1718-.1578.4066-.374.6936-.6831.2631-.2832.5131-.5815.7435-.8885.0109-.0152.0196-.0303.0283-.0476.0087-.0195.0239-.0476.0435-.0843.2304-.4302.437-.8756.2348-1.1609-.0587-.0822-.1979-.2119-.4805-.1708-.1522.0216-.2587.1643-.237.3156.0174.1211.1109.2119.224.2335-.0261.093-.0935.2529-.237.5232-.0174.0302-.0305.0583-.0413.0778-.2153.2854-.4479.5621-.6914.8237-.2718.294-.4979.5015-.6631.6529-.3761.348-.7805.6831-1.1979 1.0009-.124.093-.1457.2681-.0522.3891.0543.0714.1391.1103.2218.1103z"/><path d="m8.7158 49.5954c.03478 0 .06956-.0065.10435-.0195.53266-.2119 1.07619-.3459 1.61315-.4.3936-.0389.7588-.0237 1.2632 0 .1696.0087.3544.0152.5587.0238l.7284.026c.5957.0216.7544.0281 1.0283.0216.6066-.0108 1.2132-.0605 1.8024-.1492 1.8784-.281 3.9308-.9577 4.0177-.988.9305-.3134 1.8589-.6874 2.759-1.1068.1391-.0649.2-.2313.1348-.3697-.0653-.1384-.2327-.1989-.3718-.134-.8805.4129-1.7871.7761-2.6981 1.0831-.0196.0064-2.0915.6896-3.9221.9641-.5652.0844-1.1479.1319-1.7284.1427-.2587.0044-.4 0-1.0001-.0216l-.7305-.0259c-.2022-.0065-.3848-.0152-.5544-.0238-.5283-.0238-.9109-.0411-1.3436.0021-.58917.0584-1.18271.2054-1.76537.4367-.14349.0563-.21306.2184-.15653.3611.04348.1081.14784.1751.2609.1751z"/><path d="m.280521 48.5036c.04131 0 .080441-.0086.119574-.0259.176104-.0843.360905-.16.545704-.2249.613101-.2183 1.154451-.2918 1.884951-.3458 1.48709-.1103 3.05027-.0887 3.63728-.0411.08914.0065.30438.0259.59136.0151.24785-.0086.49787-.0367.74355-.0821.01956-.0044.03913-.0087.05652-.0173.14567-.0606.28699-.1298.42396-.2033.32612-.1772.55222-.3567.65006-.4345l.02825-.0216c1.02618-.7826 2.09587-1.5306 3.18077-2.2202.9979-.6356 1.7871-1.1372 2.8785-1.6582 1.1523-.5491 2.3698-.9901 3.6199-1.3122.15-.039.2391-.1903.2-.3395-.0391-.1491-.1913-.2378-.3413-.1988-1.2871.3307-2.5394.7847-3.7221 1.349-1.1219.5361-1.9241 1.0441-2.9372 1.6905-1.098.6983-2.18285 1.455-3.2199 2.2484l-.03479.0259c-.08696.067-.28698.227-.57179.3827-.11088.0605-.2261.1167-.3435.1664-.20654.0368-.41961.0606-.6305.067-.25437.0087-.44569-.0064-.51744-.0129-.7305-.0606-2.3589-.0606-3.73294.041-.77833.0584-1.35881.1362-2.032787.3762-.204367.0714-.404385.1557-.597881.2465-.1391435.067-.1978536.2313-.1326299.3718.0478306.0995.1478459.1578.2522029.1578z"/><path d="m3.49816 54.8206c.06957 0 .14131-.0259.19566-.08l2.41761-2.3435c.43265-.4626.84138-.936 1.22838-1.4181.29133-.3632.57396-.7372.84573-1.1156.08914-.1254.0587-.2983-.06522-.3869-.1261-.0887-.30004-.0584-.38918.0648-.26524.3697-.54135.7372-.82616 1.0918-.37829.4712-.77832.9339-1.1914 1.3771l-2.40675 2.3348c-.11088.1081-.11305.2832-.00435.3934.05435.0563.12827.0844.20002.0844z"/><path d="m3.49781 54.8206c.11523 0 .22175-.0713.26306-.1838.29568-.8193.45005-1.6624.45875-2.5012.0087-.7048.01304-1.2604-.30438-1.8679-.3609-.6875-.91748-1.0269-1.62189-1.4549l-.06087-.0368c-.57831-.3524-1.21098-.6269-1.878435-.8172-.147839-.0432-.3043676.0433-.34567555.1903-.04348235.147.04346995.3027.19130955.3437.619621.1751 1.204461.4302 1.739291.7567l.06088.0367c.65658.4 1.13054.6875 1.41752 1.2388.25437.4842.24785.9296.24132 1.6041-.00869.7761-.15219 1.5565-.42613 2.3197-.05217.1448.02393.3048.16959.3567.03044.0108.06305.0173.09349.0173z"/><path d="m19.5299 46.3007c.187 0 .3892-.0216.6022-.0735.761-.1903 1.2262-.668 1.4371-.9383.0957-.121.0739-.2961-.0478-.3913-.1218-.0951-.2979-.0735-.3935.0476-.1674.2119-.5349.5902-1.1327.7394-.5979.1491-1.0675-.0217-1.3763-.1341-.0456-.0173-.0826-.0302-.113-.0454.1283-.0843.3652-.1945.7066-.3286.5674-.2248 1.1827-.3783 1.8284-.454.1544-.0173.2631-.1556.2457-.3091s-.1566-.2638-.3109-.2443c-.6936.0821-1.3588.2465-1.9719.4907-.6588.2616-1.198.5124-1.1458.9296.0304.2551.3044.387.5696.4821.237.0865.6218.227 1.1045.227z"/><path d="m22.8521 45.9094c.1196 0 .2305-.0757.2675-.1946.0456-.147-.0348-.3027-.1827-.348-.5348-.1665-1.0088-.4389-1.4088-.8064-.2109-.1946-.4-.4151-.5609-.6572-.0848-.1276-.2587-.1643-.387-.08s-.1652.2572-.0805.3848c.1848.2789.4023.534.6458.7588.4609.4237 1.0066.7372 1.6218.9296.0283.0087.0566.013.0848.013z"/><path d="m23.463 42.9368c.0674 0 .1326-.013.1957-.0368.2783-.1081.4174-.4215.3087-.6983-.1087-.2767-.424-.415-.7022-.3069-.2783.1081-.4175.4215-.3088.6982.0522.1341.1544.24.287.2984.0696.0302.1435.0454.2174.0454zm.0174-.5448c.0043.0086 0 .0194-.0109.0216-.0065.0022-.0195-.0022-.0217-.0108l.0326-.013zm0 0-.0326.013s0-.0195.0109-.0217c.0087-.0021.0195.0022.0217.0109z"/><path d="m17.3339 49.9953c.1805 0 .3457-.0303.4262-.0476.2783-.0605.5544-.1405.8196-.2399.3674-.1341.7218-.307 1.0566-.5081 1.2175-.7329 1.8502-1.2798 2.9003-2.1835.1174-.1016.1304-.2767.0282-.3934-.1021-.1168-.2782-.1297-.3956-.0281-1.0632.9144-1.648 1.4203-2.8242 2.1294-.3044.1838-.6283.3394-.961.4627-.2413.0886-.4935.1621-.7457.2183-.1565.0346-.3109.0389-.4044.0281.0653-.1319.2587-.3956.6957-.8107.1109-.1059.1153-.2832.0087-.3935-.1065-.1102-.2848-.1145-.3956-.0086-.9849.9361-.974 1.295-.8327 1.5219.1261.2011.3848.2552.6196.2552z"/><path d="m10.888 51.2708h.013c.7892-.0389 1.5567-.2119 2.2807-.5167.8935-.3762 1.711-.9599 2.3654-1.6863.1022-.1146.0935-.2897-.0217-.3934-.1153-.1038-.2914-.093-.3957.0216-.6001.6658-1.3501 1.1998-2.1676 1.5457-.5805.2443-1.1914.3978-1.8219.454-.0087-.214.0043-.5145.1174-.7588.0413-.0886.1022-.2205.2304-.3481.0392-.0367.0696-.0605.1392-.1145l.0587-.0454c.1652-.1276.2978-.2357.3848-.307.1196-.0973.137-.2724.0391-.3913-.0978-.1189-.2739-.1362-.3935-.0389-.0848.0691-.2152.1751-.3761.2983l-.0565.0454c-.0957.0735-.1348.1059-.187.1557-.2044.1988-.3022.4129-.35.5145-.237.5167-.1653 1.1479-.137 1.3295.0217.1362.1391.2357.2761.2357z"/><path d="m9.41811 46.372c.01957 0 .03914 0 .05871-.0065.23915-.0497.49352-.1189.77178-.2075.1479-.0476.2283-.2032.1805-.3502-.0479-.147-.2044-.227-.3522-.1795-.26093.0822-.49573.1471-.71749.1925-.15218.0324-.24785.1794-.21524.3307.02826.1319.14349.2205.27394.2205z"/><path d="m8.63529 46.5018c.25654 0 .54569-.0454.86311-.1406.14784-.0432.23264-.1989.18698-.3459-.04348-.147-.20002-.2313-.34786-.1859-.69136.2054-1.11097.1124-1.2088-.0605-.09131-.16.03696-.534.5283-.9729.11523-.1037.12392-.2788.02174-.3934-.10436-.1146-.28045-.1232-.39568-.0216-.65658.588-.89791 1.2084-.64136 1.6603.17175.3026.52396.4605.99357.4605z"/><path d="m9.1616 44.4263c.05001 0 .10001-.0129.14566-.041.54571-.3308 1.11094-.64 1.68274-.9188 2.0372-.9923 4.2417-1.6539 6.5571-1.963.1522-.0195.2609-.16.2392-.3135-.0217-.1513-.1609-.2594-.3152-.2378-2.3742.3178-4.6374.9966-6.7289 2.0149-.587.2853-1.16969.6031-1.72843.9447-.13263.08-.17394.2508-.0935.3827.05218.0864.14567.134.23916.134z"/><path d="m21.1366 41.6808c.1283 0 .2435-.0865.2718-.2162.0348-.1492-.0609-.2984-.2109-.333-.4522-.1016-.9175-.1772-1.3784-.2205-.4413-.041-.8892-.0562-1.3349-.041-.1044.0021-.1913.0064-.2544.0108-.1543.0086-.2717.1383-.2652.2918s.1413.2703.2935.2638c.0587-.0022.1413-.0065.2413-.0108.4218-.013.8479 0 1.2654.041.4391.0411.8783.1103 1.3066.2076.0217.0043.0413.0065.063.0065z"/><path d="m16.6992 41.8818c.0609 0 .1196-.0368.1435-.0973.0305-.08-.0087-.1686-.0891-.1989-.0392-.0151-.0957-.0346-.1631-.0562-.2565-.0821-.5261-.1297-.8-.1405-.2109-.0087-.4262.0021-.6371.0367-.0847.013-.1413.093-.1282.1751.013.0844.0935.1384.1761.1276.1891-.0303.3826-.0411.5718-.0324.2456.0108.4891.054.7196.1275.0609.0195.1109.0389.1457.0519.0173.0065.0369.0108.0543.0108z"/><path d="m15.3164 42.3445c.0717 0 .1348-.0497.15-.1211.0174-.0821-.0348-.1643-.1174-.1816-.037-.0086-.0935-.0194-.1609-.0324-.2522-.0476-.5153-.08-.7827-.0973-.2065-.013-.4131-.0173-.6153-.0108-.0847.0022-.1521.0735-.15.1578.0022.0843.0783.1449.1587.1492.1935-.0065.3892-.0022.5871.0086.2521.0152.5043.0476.7435.093.063.013.1174.0238.1522.0303.0109.0021.0217.0043.0326.0043z"/><path d="m13.5926 42.9844c.0674 0 .1282-.0433.1478-.1103.0239-.0821-.0239-.1664-.1044-.1902-.0391-.0108-.0934-.026-.163-.0433-.2544-.0627-.5196-.1016-.7892-.1145-.2087-.0108-.4196-.0087-.624.0108-.0848.0065-.1478.0821-.1391.1664s.0848.147.1674.1384c.1913-.0173.387-.0195.5805-.0087.25.013.4978.0498.7326.1081.0631.0152.1153.0303.1501.039.0152.0043.0282.0064.0434.0064z"/><path d="m12.3315 49.7661c.0239 0 .05-.0065.0739-.0194l1.1023-.5902c.0739-.0411.1022-.1341.0631-.2076-.0413-.0735-.1348-.1016-.2087-.0627l-1.1023.5902c-.0739.0411-.1022.1341-.0631.2076.0283.0518.0805.0799.1348.0799z"/><path d="m4.73069 52.302c.06957 0 .13914-.0302.1848-.0908.26741-.3502.47831-.7372.6218-1.1479.1935-.547.37395-1.0658.13697-1.5674-.2435-.5123-.77399-.7004-1.33708-.8972-.46091-.1621-.94574-.2442-1.43926-.2464-.12827 0-.23046.1016-.23046.2292 0 .1275.10219.2291.23046.2313.44134 0 .87399.0756 1.28489.2205.51092.1794.91313.3199 1.07401.6594.15654.3329.01958.7242-.15435 1.2214-.12827.3654-.31526.7091-.55441 1.0226-.07827.1016-.05652.2443.04349.3221.0413.0324.09131.0475.13914.0475z"/><path d="m56.466 24.5177c.0978 0 .1957-.0476.2544-.134.1696-.2443.2609-.5016.2739-.7653.0674-1.3144-1.8045-2.244-3.1698-2.9229-1.4284-.7091-2.9764-1.2279-4.5983-1.5414-.1674-.0324-.3283.0757-.3609.2422-.0326.1664.0761.3264.2435.3588 1.5676.3027 3.0633.8042 4.4396 1.4874 1.0761.5361 2.8763 1.4311 2.8306 2.3456-.0065.147-.063.2983-.1674.4497-.0956.1405-.0608.3307.0805.4259.0522.0367.113.054.1739.054z"/><path d="m51.1786 28.0307c.0304 0 .0608-.0043.0891-.013.724-.2183 1.4393-.4734 2.1263-.7545.3-.1232.7109-.2918 1.2392-.5577.4827-.2422.9545-.5124 1.4067-.8021.0174-.0108.0326-.0238.0478-.0367.0217-.0216.0587-.0541.1022-.093.4935-.4367.9653-.8993.8522-1.3252-.0304-.1167-.1348-.3243-.4826-.3978-.1652-.0346-.3305.0692-.3653.2357-.0348.1599.0653.3177.2218.3588-.0587.1081-.2261.3048-.6348.6702-.0392.0346-.0718.0649-.0979.0865-.4261.2724-.8718.5253-1.3262.7545-.5066.2551-.9044.4194-1.1957.5383-.6675.2745-1.3654.521-2.0698.735-.1631.0497-.2544.2205-.2044.3827.0413.1318.1631.2183.2957.2183z"/><path d="m47.7802 28.2512c1.0349 0 2.0763-.0432 3.109-.1297.1696-.0151.2957-.1621.2805-.3307-.0131-.1687-.1631-.294-.3327-.2789-1.3588.1146-2.7307.1513-4.0808.1124-.0283 0-3.0894-.1102-5.6331-.6399-.787-.1643-1.5784-.3848-2.348-.6551-.3436-.121-.5284-.1967-1.3067-.5166l-.9436-.387c-.263-.1081-.4978-.2075-.7152-.2983-.6805-.2876-1.1719-.493-1.7567-.6464-.7957-.2076-1.6371-.3005-2.5068-.2811-.1695.0043-.3043.1449-.3.3135.0044.1686.1522.2983.3153.2983.8109-.0194 1.5958.0692 2.3349.2616.5414.1405 1.0154.3416 1.6719.6161.2174.093.4544.1924.7197.3005l.9435.387c.7697.3178.9762.4021 1.3371.5275.7957.2789 1.6132.508 2.4285.6767 2.5981.5404 5.7092.6507 5.7418.6529.3457.0108.6936.0151 1.0436.0151z"/><path d="m31.1679 21.9948h.013c.2174-.0087.4348-.0281.6479-.0605.5087-.0735.8914-.1968 1.0544-.2508l.0479-.0152c1.7327-.5318 3.5046-.9923 5.27-1.3727 1.6241-.3503 2.909-.6248 4.6004-.7805 1.785-.1621 3.6069-.1513 5.4114.0346.1696.0195.3218-.1038.3392-.2724s-.1044-.3199-.274-.3372c-1.8436-.1903-3.7047-.2011-5.5309-.0368-1.7284.1578-3.0285.4367-4.6743.7913-1.7828.3826-3.5743.8496-5.3223 1.3857l-.0565.0173c-.1478.0476-.4957.16-.9523.227-.1826.026-.3674.0454-.5522.0519-.2978-.0519-.5935-.1254-.8805-.2205-.3435-.1146-.5892-.2292-.6827-.2724-.924-.4302-3.0568-1.2215-4.9048-1.7533-1.0414-.3005-1.8371-.4756-2.8285-.4886-.3-.0043-.6022.0065-.8979.0325-.1696.0151-.2957.1643-.2804.3329.0152.1686.163.294.3348.2789.2761-.0238.5565-.0325.837-.0303.9196.013 1.6741.1794 2.6655.4648 2.011.5794 4.0568 1.3663 4.8069 1.7144.1109.0518.3805.1772.7588.3026.3283.1081.6653.1924 1.0044.2508.0174.0022.0348.0043.0522.0043z"/><path d="m22.1453 29.1398c.0413 0 .0848-.0087.124-.026l4.3221-1.9024c.787-.3935 1.5567-.8172 2.3002-1.2604.5587-.3351 1.1153-.6896 1.6523-1.0528.1413-.0951.1761-.2854.0805-.4259-.0957-.1405-.287-.1773-.4283-.08-.5283.3567-1.074.7048-1.6241 1.0334-.7305.4367-1.4849.8518-2.2458 1.2323l-4.307 1.8959c-.1565.0692-.2261.2486-.1565.4043.05.1146.1631.1816.2826.1816z"/><path d="m22.1455 29.1397c.087 0 .1739-.0367.2348-.1081.7849-.9252 1.3958-1.9456 1.8154-3.033.3522-.9102.6283-1.6279.5131-2.5597-.1326-1.055-.6914-1.7619-1.398-2.6569l-.0608-.0779c-.5827-.7372-1.2697-1.3987-2.048-1.9673-.137-.0994-.3305-.0713-.4305.0649s-.0718.3286.0652.4281c.7327.5361 1.3806 1.1587 1.9284 1.8527l.0609.0778c.674.8518 1.161 1.4679 1.2719 2.3543.0978.7782-.1305 1.3684-.4762 2.2634-.3956 1.0248-.9718 1.9868-1.7132 2.858-.1087.1297-.0934.3221.037.4324.0587.0476.1283.0713.1978.0713z"/><path d="m48.4481 25.9316c.8784 0 1.5567-.3286 1.9067-.5427.1457-.0886.1892-.2767.1-.4215-.0891-.1449-.2783-.1903-.4239-.0995-.3327.2033-1.0219.5297-1.9024.4324-.8827-.0973-1.4262-.5599-1.7871-.8647-.1152-.0973-.1848-.1687-.2261-.2162.1457-.0562.4848-.1124 1.2392-.1319.8632-.0195 1.7545.0778 2.6459.294.1653.0411.3327-.0605.3718-.2248.0413-.1643-.0609-.3308-.2261-.3697-.9436-.2292-1.8893-.3329-2.8068-.3113-.9218.0216-1.7588.0843-1.8828.601-.0587.2464.0805.4864.4827.828.3913.3329 1.0479.8885 2.1197 1.0074.1327.0152.2631.0216.387.0216z"/><path d="m51.9157 26.8374c.0913 0 .1826-.0411.2435-.1189.1044-.1341.0805-.3265-.0543-.4302-.6305-.4865-1.1262-1.081-1.4762-1.7684-.1848-.3632-.3262-.7524-.4197-1.1523-.0391-.1643-.2043-.2681-.3695-.2292-.1653.0389-.2696.2032-.2305.3675.1044.4497.2631.8842.4696 1.2907.3892.7696.9436 1.4333 1.648 1.9759.0565.0433.1217.0649.1891.0649z"/><path d="m54.3028 23.2552h.0108c.3718-.0043.6718-.3113.6653-.681-.0043-.3675-.3065-.6615-.6761-.6615-.0022 0-.0066 0-.0087 0-.3718.0043-.6718.3113-.6653.6809.0043.3676.3065.6616.6761.6616zm0-.7307c.0326 0 .0587.0259.0587.0583 0 .0195-.0087.0346-.0174.0411-.0087.0087-.0218.0173-.0413.0173-.0305 0-.0587-.0259-.0609-.0584 0-.0324.0261-.0583.0587-.0605z"/><path d="m44.319 29.7235c.5392 0 1.0806-.0519 1.611-.1514 1.9502-.3718 3.046-.7782 4.8635-1.4549.1587-.0584.2392-.2357.1805-.3935-.0609-.1578-.237-.2378-.3957-.1794-1.848.6875-2.8655 1.0658-4.7635 1.4268-.4913.093-.9957.1405-1.4936.1405h-.0087c-.3653 0-.7348-.0259-1.0979-.0778-.3066-.0432-.5696-.1491-.6631-.2205.0891-.1167.4435-.4086 1.4088-.8215.1565-.067.2283-.2465.1609-.4021-.0674-.1557-.2479-.227-.4044-.16-1.7067.7286-1.8545 1.1847-1.7915 1.5004.1066.5318 1.0219.6874 1.2023.7134.3914.054.7892.0821 1.1827.0843h.0109z"/><path d="m36.2902 28.4847c.1392 0 .2783-.0022.4175-.0086 1.3457-.0606 2.6937-.4259 3.896-1.055.15-.0779.2087-.2638.1282-.4129-.0782-.1492-.2652-.2076-.4152-.1276-1.124.588-2.3828.9274-3.6373.9858-.9197.0411-1.835-.0648-2.7242-.3135.0892-.2961.2653-.7501.5718-1.0571.0957-.0951.2522-.2529.5001-.361.0652-.0281.1152-.0454.25-.0865l.0957-.0303c.2782-.0886.5044-.1643.6544-.2162.1608-.054.2456-.2291.1913-.3891-.0565-.16-.2305-.2443-.3914-.1902-.1478.0497-.3674.1253-.6413.2118l-.0957.0303c-.1456.0454-.2174.0692-.3152.1102-.3522.1557-.5696.3719-.6849.4865-.55.5491-.7587 1.3922-.8087 1.6365-.0326.1535.0587.307.2087.3545.9109.2876 1.8523.4346 2.7981.4346z"/><path d="m35.1337 21.0241c.1631 0 .3001-.1275.3088-.2918.0087-.1686-.124-.3113-.2935-.32-.3849-.0173-.7262-.0497-1.0436-.0951-.1674-.0259-.3261.0908-.35.2573-.0261.1664.0913.3243.2587.348.337.0498.7.0843 1.1066.1016h.0152z"/><path d="m34.0595 20.9247c.1609 0 .2957-.1254.3066-.2875.0108-.1686-.1174-.3157-.287-.3265-1.0588-.067-1.5828-.4172-1.6328-.735-.0435-.2746.25-.7285 1.224-1.1112.1588-.0627.2348-.24.174-.3978-.0631-.1578-.2414-.2356-.4001-.1729-1.1109.4367-1.711 1.1025-1.6045 1.777.1109.7026.9349 1.1696 2.2024 1.2517h.0196z"/><path d="m47.0651 18.4666c.1413 0 .2674-.0972.3-.2378.037-.1643-.0674-.3286-.2326-.3653-3.2634-.7329-6.5571-.9404-9.7922-.6183-.9088.0908-1.8241.2248-2.7242.3978-.1674.0324-.2761.1924-.2435.3588.0326.1665.1935.2746.3609.2422.8806-.1708 1.7763-.3027 2.6677-.3913 3.1676-.3157 6.3962-.1124 9.5943.6075.0239.0043.0457.0086.0674.0086z"/><path d="m51.7374 20.4556c.1 0 .2-.0498.2587-.1384.0935-.1405.0544-.3308-.0891-.4237-.5414-.3524-1.111-.6724-1.6915-.9512-.5565-.2681-1.1348-.5016-1.7219-.6983-.1369-.0454-.2543-.0822-.3369-.1081-.1609-.0519-.3349.0389-.3849.201-.05.1622.0392.333.2022.3827.0783.0238.1892.0605.3218.1038.5631.188 1.1175.415 1.6502.6701.5587.2681 1.1044.5751 1.6218.9123.0522.0346.1109.0498.1674.0498z"/><path d="m45.8303 18.8817c.063 0 .1282-.0259.1739-.0778.0848-.0951.0761-.24-.0196-.3243-.0434-.0389-.1065-.0929-.1869-.1556-.2979-.2335-.6284-.4259-.9827-.5751-.274-.1146-.561-.2032-.8566-.2616-.124-.0259-.2457.0562-.2718.1816-.0239.1254.0565.2443.1826.2703.2631.0518.5196.1297.7653.2334.3174.1341.6131.307.8784.5146.0717.0562.1282.1037.1674.1383.0434.0389.0978.0584.1521.0584z"/><path d="m43.7129 18.5898c.0761 0 .15-.0367.1957-.1059.0696-.1059.0369-.2486-.0696-.3178-.0456-.0302-.113-.0713-.1957-.121-.3087-.186-.637-.3567-.9805-.5081-.263-.1167-.5348-.2226-.8044-.3113-.1218-.0411-.2522.0238-.2935.1449-.0413.121.0239.2507.1457.2918.2565.0843.513.1859.7631.2962.3239.1448.637.3048.9283.4821.0783.0475.1413.0865.1848.1146.0391.0237.0826.0367.1239.0367z"/><path d="m41.1362 18.5942c.0718 0 .1413-.0324.187-.0929.0761-.1016.0543-.2465-.0478-.3222-.0457-.0324-.1109-.0799-.1914-.1362-.3043-.2053-.6348-.3848-.9827-.5361-.2696-.1167-.5478-.214-.8261-.2897-.1239-.0324-.25.0389-.2848.16-.0348.1232.0391.2486.1609.2832.2587.0713.5152.1621.7631.2681.3217.1383.6261.3069.9066.495.0761.0498.1348.0952.1761.1254.0413.0303.0891.0454.1369.0454z"/><path d="m36.1553 26.8806s.0217 0 .0326-.0021l1.7371-.24c.1261-.0173.2152-.1341.1978-.2594-.0174-.1254-.1348-.2141-.2609-.1968l-1.7371.24c-.1261.0173-.2152.134-.1978.2594.0152.1146.1152.1989.2283.1989z"/><path d="m24.9763 26.418c.0413 0 .0848-.0108.1239-.0368.5153-.3264.974-.7242 1.3588-1.1869.5087-.6118.9892-1.189.9283-1.924-.063-.7523-.6565-1.2431-1.2827-1.7641-.5174-.4302-1.1022-.7675-1.7393-1.0053-.1195-.0454-.2522.0152-.2978.1341-.0457.1189.0152.2507.1348.2961.5892.2206 1.1283.5319 1.6066.9275.5979.4972 1.0697.8885 1.1175 1.4484.0457.5492-.3369 1.0096-.8218 1.5933-.3544.4259-.774.7913-1.2501 1.0918-.1087.067-.1391.2097-.0717.3178.0435.0691.1195.1059.1956.1059z"/><path d="m93.5262 31.1481c.1131 0 .2196-.0691.2609-.1794.0805-.2075.1-.4129.0631-.6096-.1848-.9621-1.6632-1.2972-2.7416-1.5436-1.1175-.2551-2.285-.3546-3.4698-.3005-.1544.0065-.274.1384-.2675.2918.0066.1535.137.2681.2935.266 1.1349-.0541 2.2502.0432 3.3177.2853.824.1881 2.2024.5016 2.3176 1.1047.0174.093.0044.1968-.0369.307-.0544.1427.0174.3048.163.3589.0326.013.0653.0173.1.0173z"/><path d="m90.4518 34.4731c.0479 0 .0979-.013.1413-.0389.4675-.2746.9219-.5729 1.3523-.8842.187-.1362.4457-.3221.7697-.5989.2957-.2507.5783-.5188.8435-.7955.0131-.013.0239-.0281.0348-.0433.0109-.0173.0305-.0454.0544-.0778.2783-.4021.537-.8193.3696-1.1242-.0479-.0886-.1696-.2356-.4566-.2248-.1544.0043-.2761.1319-.2718.2854.0044.121.0848.2226.1957.2572-.0369.0908-.1217.24-.2957.4908-.0195.0281-.0369.054-.05.0735-.2456.2572-.5109.5059-.7848.7372-.3088.2616-.5544.441-.7349.5707-.4152.3005-.8544.588-1.3066.8539-.1326.0779-.1761.2487-.0979.3805.0522.0887.1457.1362.2414.1362z"/><path d="m82.9357 35.874c.1435 0 .2848-.0022.4261-.0065 1.9002-.0605 4.0156-.4929 4.1047-.5123.9632-.2033 1.9263-.4648 2.8699-.7783.1456-.0497.2261-.2054.1761-.3524-.05-.1448-.2066-.2248-.3544-.1751-.9218.307-1.8676.5621-2.8068.761-.0196.0043-2.1589.441-4.009.5015-.5718.0195-1.1567 0-1.7328-.0605-.2587-.026-.4-.0476-.9958-.1405l-.7174-.1103c-.2-.0303-.3805-.0605-.5457-.0865-.5218-.0843-.9001-.147-1.3349-.1535-.5914-.0108-1.2001.0671-1.8045.227-.15.039-.237.1925-.1979.3416.0392.1492.1935.2357.3435.1967.5544-.147 1.1088-.2183 1.6502-.2097.3957.0065.7566.0649 1.2545.1471.1674.0281.35.0562.5522.0886l.7153.1102c.5913.0908.7522.1168 1.024.1427.4587.0454.9218.0692 1.3805.0692z"/><path d="m75.2179 33.6537c.1131 0 .2283-.0043.3414-.0108.0195 0 .0391-.0043.0565-.0108.15-.0432.3-.0951.4457-.1535.3457-.1383.5913-.2897.6979-.3545l.0282-.0173c1.111-.6594 2.2611-1.2755 3.4199-1.8354 1.0675-.5146 1.9089-.921 3.0546-1.3101 1.2088-.4108 2.4698-.707 3.7504-.8821.1522-.0216.2609-.16.2391-.3134-.0217-.1514-.1609-.2616-.3152-.2378-1.3175.1772-2.6133.482-3.8569.9058-1.1762.3999-2.0328.8128-3.1155 1.336-1.174.5664-2.3393 1.1912-3.4633 1.857l-.037.0217c-.0935.0583-.3131.1924-.6131.3134-.1174.0476-.2392.0887-.3609.1254-.2109.013-.424.0108-.6327-.0065-.2565-.0216-.4435-.0583-.5131-.0735-.7174-.1448-2.335-.3351-3.7112-.3956-.7783-.0324-1.3653-.0216-2.061.1362-.2109.0476-.4196.1081-.624.1751-.1457.0497-.2239.2076-.1761.3524.05.1448.2087.2227.3544.1751.1848-.0627.3761-.1167.5696-.16.6348-.1448 1.1805-.1556 1.9132-.1232 1.4893.0649 3.0394.2659 3.6177.3827.0848.0173.2957.0605.5849.0843.1348.0108.2717.0173.4065.0173z"/><path d="m70.4913 40.1156c.0587 0 .1196-.0195.1696-.0584l2.6763-2.0473c.4827-.4086.9458-.8323 1.3871-1.2668.3305-.3265.6588-.6659.9718-1.0096.1044-.1146.0957-.2897-.0195-.3935-.1153-.1038-.2914-.0951-.3957.0195-.3066.3372-.6262.668-.9501.9879-.4305.4238-.8849.8388-1.3458 1.2301l-2.6654 2.0387c-.1218.0929-.1457.268-.0522.3913.0543.0713.1391.1081.2217.1081z"/><path d="m70.4893 40.1156c.1022 0 .2022-.0562.25-.1535.3914-.7804.6436-1.5976.7523-2.4299.0913-.6983.163-1.2496-.0827-1.8917-.2761-.7242-.7892-1.1263-1.4392-1.6343l-.0565-.0433c-.5327-.4172-1.1284-.7631-1.7698-1.0312-.1435-.0605-.3065.0065-.3652.1492s.0065.3048.15.3632c.5935.2464 1.1458.5686 1.6393.9534l.0565.0432c.6044.4734 1.0414.815 1.2632 1.3944.1956.5102.1369.9534.05 1.6214-.1.7696-.3348 1.5284-.6979 2.2527-.0696.1383-.0131.3048.1261.374.0391.0194.0826.0302.1239.0302z"/><path d="m87.669 33.5392c.1022 0 .2087-.0065.3174-.0195.7783-.0994 1.2979-.521 1.5393-.7631.1087-.1103.1087-.2854-.0022-.3935s-.287-.1081-.3957.0022c-.1913.1924-.6.5253-1.2131.6031-.611.08-1.0567-.1448-1.3523-.294-.0435-.0216-.0783-.041-.1066-.0562.137-.0692.3848-.1491.7392-.2443.5914-.1578 1.2197-.2378 1.8698-.2378.1543 0 .2804-.1254.2804-.2789 0-.1534-.1261-.2788-.2804-.2788-.7001 0-1.3762.0864-2.0154.2572-.6849.1838-1.2502.3675-1.248.7913 0 .2551.2457.4129.5088.5448.2696.134.737.3696 1.3588.3696z"/><path d="m90.7605 33.5219c.1065 0 .2087-.0606.2566-.1643.063-.1405 0-.3049-.1414-.3675-.5109-.2292-.95-.5535-1.3023-.9642-.1869-.2184-.3478-.4605-.4783-.7178-.0695-.1383-.2369-.1924-.3761-.1232-.1391.0692-.1935.2356-.1239.374.15.2983.337.5772.5522.8302.4066.4756.911.8496 1.5002 1.1112.0369.0173.0761.0237.1152.0237z"/><path d="m91.7476 30.6423c.0457 0 .0914-.0065.137-.0173.2892-.0735.4653-.3697.3892-.6572-.037-.1405-.1239-.2573-.25-.3286-.1261-.0735-.2718-.093-.411-.0584-.1413.0368-.2587.1232-.3326.2486-.0739.1233-.0935.2703-.0587.4086.037.1384.1239.2573.25.3286.0848.0497.1783.0757.274.0757zm0-.5556s.0153.0065.0174.013c0 .0086-.0043.0194-.013.0216-.0109.0021-.0196-.0043-.0218-.013-.0021-.0086.0022-.0195.0131-.0216h.0022z"/><path d="m84.9842 36.9463c.0891 0 .163-.0065.2109-.0108.2826-.0281.5674-.0757.8435-.1427.3783-.0908.7523-.2205 1.1088-.3805 1.2936-.5859 1.9872-1.055 3.1373-1.8311.1282-.0865.1608-.2594.0739-.387-.087-.1275-.2609-.16-.3892-.0735-1.1631.7848-1.8045 1.2171-3.0546 1.7857-.324.147-.6653.2638-1.0088.3459-.25.0605-.5087.1038-.7653.1297-.1587.0151-.3131.0022-.4044-.0173.0805-.1232.3044-.3632.7871-.7242.1239-.093.1478-.2659.0565-.3891-.0935-.1233-.2674-.147-.3914-.0562-1.0892.8128-1.1196 1.1717-1.0066 1.4138.1326.2854.5327.3373.8044.3373z"/><path d="m78.6944 37.4673c.6305 0 1.2523-.0887 1.8588-.2638.9327-.2702 1.8133-.7545 2.5481-1.3987.1152-.1016.1261-.2767.0239-.3935-.1022-.1145-.2783-.1253-.3957-.0237-.6739.5901-1.4805 1.0333-2.335 1.2819-.6065.1752-1.2327.2551-1.8632.24.0152-.2119.0652-.5124.2044-.7415.05-.0822.1261-.2075.2718-.3178.0434-.0324.076-.0519.1521-.0973l.0631-.0367c.1783-.1081.3239-.1989.4196-.2595.1304-.0821.1674-.2551.0848-.3848s-.2566-.1664-.387-.0843c-.0935.0605-.2326.147-.4087.253l-.0609.0367c-.1022.0627-.1457.0886-.2044.1319-.2283.1729-.35.374-.4087.4713-.2979.4885-.2979 1.122-.2913 1.3036.0043.1427.1174.2572.2609.268.1565.0108.3108.0152.4674.0152z"/><path d="m77.3636 32.415h.0261c.2457-.0216.5044-.0605.7914-.1146.1522-.0302.25-.1751.2218-.3264-.0305-.1513-.1783-.2486-.3283-.2205-.2696.0519-.5088.0865-.7349.1081-.1543.013-.2674.1491-.2544.3026.0131.1449.1348.253.2783.253z"/><path d="m76.8224 32.4669c.1826 0 .3804-.0173.5913-.054.1522-.026.2544-.1708.2261-.3222-.0261-.1513-.1717-.2529-.3239-.2248-.7109.1254-1.1153-.0173-1.1936-.1989-.0717-.1686.0978-.5253.6392-.9058.1261-.0886.1565-.2616.0674-.387-.0892-.1254-.2631-.1556-.3892-.067-.7218.508-1.0327 1.0961-.8327 1.5738.1609.3827.6001.5881 1.2154.5881z"/><path d="m77.3396 30.4542c.0391 0 .0783-.0087.1174-.026.5805-.2659 1.1784-.5058 1.7806-.7155 2.1393-.748 4.4091-1.148 6.7441-1.1869.1543-.0022.2783-.1297.2761-.2832s-.1348-.2767-.2848-.2746c-2.3959.039-4.7244.4497-6.9202 1.2172-.6175.2162-1.2327.4626-1.8284.735-.1414.0649-.2022.2292-.137.3697.0478.1016.1478.1621.2544.1621z"/><path d="m89.554 29.1225c.1152 0 .2239-.0714.263-.1859.0522-.1449-.0239-.3049-.1695-.3546-.437-.1556-.8892-.281-1.3436-.3783-.4327-.093-.8784-.1578-1.3219-.1967-.1044-.0087-.1913-.0152-.2522-.0195-.1565-.0108-.287.1059-.2978.2594-.0087.1535.1065.2854.2609.2962.0587.0043.1413.0087.2391.0173.4196.0368.8414.0994 1.2523.1881.4305.0908.8588.2118 1.274.3589.0305.0108.0631.0151.0935.0151z"/><path d="m85.1101 28.8047c.0544 0 .1087-.0303.137-.0822.0391-.0756.0109-.1664-.0652-.2075-.037-.0195-.0892-.0454-.1566-.0757-.2456-.1102-.5065-.1902-.7783-.2335-.2087-.0345-.4218-.0454-.637-.0367-.0848.0043-.15.0757-.1478.16.0043.0843.0739.1491.1608.147.1914-.0087.3849.0021.574.0324.2435.0389.4783.1103.7001.2097.0587.026.1065.0497.1391.067.0239.013.0478.0173.0718.0173z"/><path d="m83.6816 29.1008c.0631 0 .124-.0389.1457-.1037.0283-.08-.0152-.1665-.0957-.1946-.0369-.013-.0913-.0303-.1565-.0519-.2457-.0756-.5022-.1405-.7653-.1881-.2022-.0367-.4087-.0648-.6109-.0821-.0826-.0087-.1587.0562-.1674.1405-.0065.0843.0565.1578.1413.1665.1913.0173.387.0432.5805.0778.25.0454.4957.1059.7283.1773.0631.0194.1131.0367.1479.0475.0174.0065.0326.0087.05.0087z"/><path d="m81.8947 29.5376c.0608 0 .1174-.0346.1413-.093.0326-.0778-.0044-.1686-.0826-.2011-.037-.0151-.0913-.0367-.1566-.0605-.2456-.0908-.5044-.16-.7696-.2075-.2065-.0346-.4152-.0562-.6218-.0627-.0848 0-.1565.0648-.1587.1491-.0022.0844.0652.1557.15.1579.1913.0065.387.0259.5783.0583.2479.0433.487.1081.7153.1924.0609.0217.1109.0433.1435.0562.0196.0087.0391.013.0587.013z"/><path d="m79.842 36.1248c.0196 0 .0391-.0044.0565-.0109l1.1653-.4583c.0783-.0302.1174-.121.087-.1989-.0304-.0778-.1217-.1167-.2-.0864l-1.1653.4583c-.0783.0302-.1174.121-.087.1989.0239.0605.0826.0973.1435.0973z"/><path d="m72.0064 37.7569c.0609 0 .1218-.0237.1675-.0713.3087-.3178.5609-.6767.7522-1.068.2565-.521.4979-1.0139.3196-1.5414-.1805-.5383-.687-.7847-1.224-1.0463-.4392-.214-.9088-.3524-1.4002-.4129-.1282-.0152-.2413.0735-.2565.201-.0152.1254.0739.24.2022.2551.437.0519.8588.1773 1.2501.3675.4848.2379.8696.4238.9892.7805.1174.348-.0652.722-.2978 1.1933-.1696.3481-.3957.668-.6697.9512-.0891.0908-.0848.2379.0066.3243.0456.0433.1021.0649.1608.0649z"/><path d="m113.123 5.09122c.044 0 .087-.01081.129-.03026 1.008-.51885 2.065-.89285 3.137-1.11336.828-.17079 2.211-.45616 2.57.04539.054.07783.087.17728.095.29402.011.15349.146.26807.298.25942.155-.01081.272-.14268.261-.29617-.015-.22268-.083-.41724-.198-.57938-.569-.79773-2.054-.49075-3.139-.26807-1.122.23131-2.224.62261-3.281 1.16524-.137.07134-.191.23781-.119.374.05.09513.147.15133.247.15133z"/><path d="m117.93 8.84204c.089 0 .176-.04107.231-.1189.311-.44318.598-.9015.858-1.36414.114-.20105.27-.47777.448-.86258.163-.35022.309-.71125.435-1.07445.007-.01729.011-.03459.013-.05404.002-.02162.009-.05405.015-.09513.085-.47993.146-.96635-.134-1.17605-.081-.06053-.255-.14268-.511-.01513-.139.06701-.196.23564-.129.37184.055.10809.172.16862.285.15349.002.09728-.011.27023-.063.56857-.006.03459-.011.06486-.015.08864-.117.33725-.252.67234-.404.99662-.17.36535-.32.6291-.429.82367-.252.44534-.53.88852-.83 1.31873-.089.12539-.057.3005.069.38698.048.03459.105.04972.159.04972z"/><path d="m105.496 15.6736c.063 0 .126-.0216.179-.0649.441-.3632.917-.6572 1.411-.8734.361-.1578.713-.2529 1.202-.3848.163-.0454.341-.0929.539-.1492l.7-.1967c.574-.1621.729-.2054.989-.294.574-.1946 1.135-.4281 1.67-.6918 1.702-.841 3.444-2.1121 3.518-2.1662.789-.5837 1.557-1.22144 2.283-1.89594.113-.10593.119-.28104.013-.39346-.107-.11242-.283-.1189-.396-.01297-.711.65937-1.461 1.28415-2.233 1.85487-.017.013-1.778 1.295-3.435 2.1143-.513.2529-1.05.4756-1.6.6637-.246.0822-.383.1211-.959.2832l-.7.1967c-.196.0562-.372.1038-.535.147-.511.1384-.878.24-1.278.413-.544.2356-1.063.5577-1.544.9533-.119.0973-.135.2724-.037.3913.055.0671.135.1016.216.1016z"/><path d="m97.1303 17.2106c.0696 0 .137-.0259.1913-.0756.1435-.1341.2935-.2616.4501-.3805.5152-.3935 1.0088-.6291 1.6871-.9037 1.3832-.5578 2.8742-1.0161 3.4482-1.1501.085-.0195.296-.0692.567-.1665.235-.0843.463-.1859.683-.3048.017-.0086.033-.0194.048-.0324.117-.1016.232-.2097.341-.3243.255-.2681.418-.508.485-.6118l.02-.0281c.732-1.0572 1.521-2.097 2.341-3.085.757-.91013 1.35-1.62787 2.226-2.45587.927-.87339 1.948-1.66679 3.04-2.35427.13-.08215.169-.2551.087-.38481-.083-.12971-.257-.16862-.387-.08647-1.122.70693-2.174 1.52195-3.127 2.42128-.9.85178-1.506 1.58033-2.272 2.50344-.832 1.0031-1.63 2.0538-2.371 3.1261l-.024.0345c-.061.0908-.205.3027-.427.5384-.086.0929-.18.1816-.276.2637-.184.0994-.38.1859-.578.2573-.241.0864-.426.1297-.498.147-.713.1664-2.263.6615-3.5393 1.1782-.7218.2918-1.2501.5448-1.8175.9771-.1718.1319-.337.2724-.4936.4173-.113.1059-.1174.281-.0108.3934.0543.0584.1282.0865.2043.0865z"/><path d="m102.144 22.2391c.1 0 .198-.054.248-.1491l1.576-2.9683c.267-.5729.511-1.1479.73-1.7251.166-.4324.32-.8756.459-1.3209.046-.147-.035-.3027-.182-.3481-.148-.0454-.305.0346-.351.1816-.136.4345-.289.8691-.45 1.2906-.215.5643-.452 1.1285-.708 1.6755l-1.57 2.9552c-.072.1362-.02.3049.117.3762.042.0216.087.0324.131.0324z"/><path d="m102.146 22.2391c.15 0 .274-.1189.281-.2702.028-.8712-.085-1.7187-.335-2.5207-.211-.6724-.376-1.2042-.867-1.6841-.555-.5448-1.19-.6962-1.994-.8886l-.0696-.0173c-.6588-.1578-1.3458-.227-2.0393-.2032-.1544.0043-.2761.1341-.2696.2876.0043.1534.1304.2767.2891.268.6436-.0216 1.2784.0411 1.8894.1881l.0695.0173c.7479.1794 1.2875.3091 1.7325.7458.392.3827.524.8086.724 1.4528.233.7415.337 1.5285.309 2.337-.004.1535.115.2832.272.2875z"/><path d="m113.98 9.35007c.367 0 .891-.04973 1.426-.38265.665-.41292.961-1.01176 1.078-1.33171.052-.14485-.021-.30483-.167-.35671s-.307.02162-.359.16646c-.093.25294-.326.72639-.85 1.05067-.522.32428-1.022.30482-1.352.29185-.048 0-.087-.00432-.12-.00865.098-.1189.287-.29617.57-.52965.472-.38914 1.009-.72207 1.6-.99014.141-.06485.202-.22915.137-.36968-.063-.14052-.231-.20105-.372-.13619-.635.28969-1.215.64856-1.724 1.06796-.546.44967-.983.85394-.804 1.23659.108.23348.408.27455.691.28536.07.00216.152.00649.244.00649z"/><path d="m117.776 7.84759h.037c.154 0 .278-.12755.278-.28104s-.126-.27672-.28-.27672c-.011 0-.024 0-.035 0-.548 0-1.072-.11241-1.557-.33725-.26-.12106-.508-.27456-.737-.45399-.121-.09728-.297-.07783-.393.04324-.096.12106-.078.29617.043.39129.263.20971.548.38482.85.52534.559.25726 1.161.38913 1.792.38913z"/><path d="m117.395 4.84475c.12 0 .242-.03891.342-.12106.113-.0908.182-.22051.198-.3632.015-.14268-.029-.2832-.12-.39562s-.222-.18159-.365-.19673c-.144-.01513-.285.02594-.398.1189-.113.0908-.183.22051-.198.3632-.015.14268.028.2832.12.39562.106.13187.263.19889.421.19889zm0-.5556s.011 0 .013.00649c.005.00648.005.01945-.002.02378-.006.00648-.019.00432-.024-.00216-.004-.00649-.004-.01946.002-.02378.003-.00217.007-.00433.011-.00433z"/><path d="m113.575 13.4684c.289 0 .607-.1664.724-.2356.246-.1427.483-.3027.707-.4778.306-.24.593-.5124.85-.8064.93-1.0701 1.365-1.7813 2.085-2.96388.08-.13188.037-.30266-.094-.38265-.132-.07999-.304-.03675-.384.09296-.729 1.19551-1.131 1.85487-2.031 2.88827-.233.2681-.494.5145-.772.7329-.202.1599-.419.3048-.643.4345-.139.08-.283.1319-.376.1513.021-.1448.123-.4561.413-.9836.074-.1341.024-.3049-.113-.3784-.135-.0735-.307-.0237-.381.1125-.65 1.1911-.528 1.5284-.324 1.7035.096.08.213.1103.337.1103z"/><path d="m108.082 16.6031c.032 0 .065-.0064.097-.0172.74-.2768 1.416-.6767 2.009-1.1891.735-.6312 1.333-1.4376 1.731-2.3261.063-.1406 0-.3049-.141-.3676-.142-.0626-.307 0-.37.1406-.365.8172-.913 1.5543-1.585 2.1316-.476.4107-1.011.7415-1.594.9901-.073-.2011-.154-.4907-.123-.7588.01-.0951.028-.24.113-.4021.026-.0476.047-.0778.097-.1514l.042-.0605c.117-.1729.211-.3156.271-.4107.083-.1298.046-.3027-.084-.3849-.131-.0821-.303-.0454-.387.0844-.059.0929-.15.2313-.266.3999l-.041.0605c-.067.0995-.096.1406-.128.2054-.135.253-.161.4843-.174.5967-.065.5642.198 1.1415.28 1.3058.048.0972.148.1534.25.1534z"/><path d="m105.171 12.3918c.047 0 .095-.0108.139-.0367.213-.1211.432-.2638.672-.4324.126-.0886.154-.2637.065-.3891s-.265-.1535-.392-.0649c-.221.1578-.426.2897-.624.4021-.134.0757-.18.2465-.104.3805.052.0886.146.1405.244.1405z"/><path d="m104.068 12.822c.361 0 .798-.1621 1.261-.4799.128-.0865.159-.2616.072-.387-.087-.1275-.263-.1578-.389-.0713-.594.4064-1.022.4475-1.168.3113-.135-.1254-.13-.5189.202-1.0874.079-.1319.033-.3027-.102-.3805-.132-.0778-.304-.0324-.382.1016-.444.761-.481 1.4247-.098 1.7749.158.1448.365.2183.604.2183z"/><path d="m104.325 10.6191c.078 0 .156-.0324.213-.0972.417-.4821.858-.94911 1.317-1.38796 1.631-1.56736 3.527-2.8688 5.633-3.8719.139-.06702.198-.23349.133-.37184-.068-.13836-.233-.19673-.374-.13188-2.161 1.02689-4.107 2.36508-5.781 3.97351-.47.45183-.926.93176-1.352 1.42687-.1.1167-.087.2918.03.3934.052.0454.118.067.183.067z"/><path d="m112.045 4.99823c.033 0 .067-.00648.1-.01945.054-.02162.133-.04973.226-.08216.398-.14052.807-.25726 1.218-.34806.43-.09512.869-.16214 1.308-.20105.155-.01297.268-.14917.255-.30266s-.148-.26591-.305-.25294c-.463.04108-.926.11242-1.38.21186-.433.09513-.863.21835-1.283.36752-.098.03459-.18.06486-.239.08864-.143.05404-.217.21618-.161.35887.044.11025.148.17943.261.17943z"/><path d="m109.258 6.20676c.024 0 .048-.00648.069-.01729.172-.08647.35-.15565.535-.20754.237-.06486.483-.09728.724-.09945.065 0 .12 0 .155.00433.089.00432.158-.06053.163-.14485.004-.08431-.061-.15781-.146-.16214-.041-.00216-.102-.00432-.174-.00432-.27 0-.541.03675-.804.11026-.205.0562-.405.13403-.594.22915-.076.03892-.106.13188-.067.20538.028.05405.08.08431.137.08431z"/><path d="m108.088 7.08664c.017 0 .035-.00216.052-.00865.183-.06485.37-.12106.561-.17078.246-.0627.494-.1081.737-.14052.065-.00865.118-.01298.154-.0173.085-.00865.148-.08215.14-.16646-.009-.08432-.085-.14485-.168-.13836-.039.00432-.095.00864-.163.01729-.254.03243-.515.08215-.774.14701-.2.04972-.398.11025-.589.17943-.08.02811-.122.11675-.093.19673.021.0627.082.10161.145.10161z"/><path d="m106.642 8.21512c.02 0 .039-.00433.061-.01297.178-.07567.363-.1362.55-.18592.244-.0627.489-.10377.731-.12107.065-.00432.117-.00648.154-.00865.085-.00216.152-.0735.15-.15781-.002-.08432-.072-.14917-.159-.14917-.039 0-.098.00432-.167.00865-.261.01945-.526.06269-.787.13187-.2.05188-.4.1189-.591.20105-.079.03243-.116.12323-.083.20106.024.05837.083.09296.141.09296z"/><path d="m109.029 14.7245c.042 0 .081-.0152.111-.0476l.868-.8993c.058-.0606.056-.1578-.005-.2162s-.158-.0562-.217.0043l-.868.8993c-.058.0606-.056.1579.005.2162.03.0281.067.0433.106.0433z"/><path d="m102.555 19.4633c.096 0 .185-.0584.217-.1535.148-.4172.226-.8474.237-1.282.013-.5815.028-1.1285-.354-1.5349-.389-.4129-.952-.428-1.55-.4453-.489-.013-.974.0562-1.4461.2053-.1217.0389-.1891.1687-.15.2897.0391.1211.1696.1881.2913.1492.4198-.134.8568-.1946 1.2918-.1838.541.0152.967.026 1.226.3005.252.2681.241.6832.23 1.2085-.008.387-.08.7718-.211 1.1415-.041.1189.022.2508.142.2918.026.0087.052.013.076.013z"/></g></svg>