<svg fill="none" height="50" viewBox="0 0 50 50" width="50" xmlns="http://www.w3.org/2000/svg"><g fill="#0d2936"><path d="m41.1758 23.3034c-.0042-.1936-.0581-.383-.1567-.5505-.2772-.4761-.8871-.779-1.8114-.9006-.5348-.0703-1.0377-.1564-1.4946-.256-1.4007-.3074-2.836-.4335-4.2697-.3752-1.2063.0447-2.4093.1523-3.604.3222-.2531.0379-.5471.0841-.873.1356-2.4204.3809-7.3446 1.1556-10.4032.5584-.4154-.7732-.487-1.4641-.2125-2.0554.5962-1.2841 2.6147-1.8858 3.3455-2.0652.8651 1.3027 1.9647 2.1044 3.2711 2.3843 2.4298.5205 4.6679-.9623 4.762-1.0255.0719-.0485.1261-.1183.1548-.1994.0287-.081.0303-.169.0046-.2509-.0257-.082-.0774-.1538-.1475-.2048-.07-.0509-.1548-.0785-.2418-.0785-.2209-.0154-.4339-.0869-.6183-.2076-.4068-.2436-.7395-.5908-.9632-1.0049-.8326-1.5122-2.0346-2.0759-2.725-2.2824 1.4052-3.3174-.4219-5.48572-.5042-5.58041l-.0112-.01188c-.4407-.46785-.1929-1.316-.1906-1.32313.0231-.07466.0236-.15434.0015-.22929s-.0658-.14194-.1259-.19279-.1339-.08336-.2124-.09356c-.0785-.01019-.1583.00236-.2297.03614-1.9406.91563-3.0962 2.62142-3.3423 4.93282-.0875.8774-.0561 1.7624.0934 2.6316-.9361-.0619-1.8759-.042-2.8084.0594-.3686.0357-7.3661.7751-10.47184 6.2263-1.36686 2.3991-1.49463 5.2795-.34208 7.7049.94017 1.9789 2.49447 3.5016 4.62182 4.5342-.6218.6489-1.1323 1.3932-1.5114 2.2037-1.31614 2.8104-4.0982 2.398-4.21512 2.3791-.08621-.0143-.17482-.001-.25277.0381-.07794.039-.14108.1017-.1801.1789-.03902.0771-.05186.1645-.03662.2494s.05776.1626.12127.2219c1.32251 1.2332 3.00963 1.9597 4.65034 1.8454 3.1132-.2168 5.6614-2.8676 6.6118-4.0084.3914-.476.826-.9159 1.2985-1.3141.0178.0017.0356.0023.0534.0018 1.9791-.1244 4.5172.0107 4.5365.0119.067.0046.1326.0078.1993.0119-.7581.5297-1.3847 1.2219-1.8327 2.0245-.6549 1.158-2.3327 3.576-4.9287 3.5933.4674-.348.8328-.812 1.0589-1.3446.2261-.5325.3049-1.1147.2282-1.6871-.005-.0531-.0208-.1047-.0462-.1518-.0255-.047-.0603-.0886-.1022-.1223-.042-.0337-.0903-.0589-.1423-.074-.0519-.015-.1063-.0198-.1601-.0139-.0538.0058-.1059.0222-.1532.0481s-.0889.0609-.1224.1028-.0582.09-.0726.1414-.0183.1052-.0115.1581c.077.5997-.0655 1.2068-.4018 1.7123-.3642.513-.8973.8859-1.5088 1.0554-.0892.0186-.1695.0662-.2281.1352-.0585.0689-.0919.1552-.0948.2451-.003.0898.0247.178.0787.2505.0539.0725.131.1251.2188.1494.4741.1334.9645.2021 1.4575.2042 3.0116 0 4.9075-2.7104 5.643-4.0112.428-.7736 1.0486-1.4272 1.8034-1.8994.2858-.1736.5856-.3237.8963-.4489.0048-.002.0088-.005.0135-.0072.1275.0016.2552.0034.3812.0034 8.268 0 13.2662-3.369 15.1198-4.912.441-.3675.9995-.5694 1.5769-.5703h1.0095c.4233.0056.8385-.114 1.1921-.3433.8989-.5983.7742-1.5634.5527-2.074.0154-.6144-.0837-3.5004-3.1954-4.6212zm-24.9475 13.2361c-.6888.8265-3.159 3.5379-6.0329 3.7162-1.11087.0689-2.17965-.2474-3.18973-.9416 1.16593-.1361 2.90356-.7164 3.89773-2.8395.011-.0247 1.1216-2.4809 2.8602-2.9093.1041-.0265.1934-.0925.2484-.1837.055-.0911.0712-.1999.0451-.3028s-.0923-.1914-.1843-.2464c-.092-.0549-.2023-.0718-.3069-.0469-.4411.1146-.8559.3114-1.222.5798-2.1184-.9514-3.65219-2.3962-4.5562-4.299-1.04142-2.1911-.92378-4.7969.31459-6.9704 2.91031-5.1087 9.77531-5.8139 9.84431-5.8203.0018 0 .0034-.0008.0052-.0011.0018-.0002.0035 0 .0052 0 .0173-.002 1.7378-.2026 3.1683-.001.0667.0093.1346.0022.1978-.0207.0632-.0228.1197-.0607.1644-.1103s.0763-.1093.092-.1738c.0156-.0645.0149-.1318-.0023-.196-.2228-.9593-.2856-1.9479-.186-2.9271.1917-1.7495.9344-3.05616 2.2112-3.89481-.0007.45617.1659.89723.4689 1.24201.1171.1402 1.6962 2.1227.176 5.1611-.0293.0585-.0437.1232-.042.1884.0018.0652.0196.129.052.1859.0323.0569.0782.1052.1338.1407.0555.0355.119.0571.1849.063.0161.0014 1.6249.1656 2.6257 1.9814.2937.5413.7299.9946 1.2629 1.3121.0043.0024.0086.005.013.0076-.7851.3535-2.0537.7604-3.3422.4819-1.1571-.2495-2.1325-1.0098-2.8986-2.2606-.043-.0701-.1067-.1256-.1825-.159-.0759-.0335-.1603-.0433-.2419-.0281-.1341.0247-3.296.631-4.2021 2.5787-.3013.6491-.3197 1.3581-.0564 2.116-.4131-.1407-.7907-.3672-1.1072-.6643-.2385-.2303-.4194-.5119-.5287-.8228-.0164-.0505-.0428-.0972-.0777-.1375-.0348-.0404-.0774-.0735-.1252-.0976-.0479-.024-.1002-.0385-.1537-.0426-.0536-.0041-.1075.0023-.1586.0188-.051.0165-.0983.0428-.139.0774-.0407.0345-.0741.0767-.0982.124-.0241.0474-.0385.099-.0423.1518-.0039.0528.003.1059.02.1561.148.4289.3953.8178.7223 1.1362 2.3248 2.3277 9.4185 1.2111 13.2296.6112.3234-.051.6147-.0968.8665-.1344 1.1658-.1656 2.3397-.2703 3.5167-.3138 1.3628-.0555 2.7272.0643 4.0586.3564.4793.1044 1.0051.1947 1.5627.268.8516.1119 1.0835.3176 1.2596.6497-.1916.0607-.3893.1006-.5897.1188-.3246.0312-.6519.0237-.9747-.0223-2.1301-.2635-4.2923.075-6.2347.9761-1.3519.6494-2.54 1.5874-3.4781 2.746-.8855 1.0721-3.3509 3.5691-7.1096 3.5987-.107.0022-.2088.0457-.2835.1212-.0747.0754-.1163.1768-.1159.2822.0005.1055.0429.2065.1182.2814s.1774.1176.2844.1189h.0034c4.105-.0322 6.7772-2.7347 7.7353-3.895.8623-1.0664 1.9548-1.93 3.198-2.5283 1.7986-.8351 3.801-1.1488 5.7736-.9046.388.0546.7812.0629 1.1713.0248.308-.0265.6107-.0961.899-.2065 1.991.6572 2.5778 2.1148 2.7431 3.0676-.7082-.4722-1.5385-.7353-2.3933-.7583h-.0048c-4.5275-.389-8.3026 3.0167-8.5941 3.2869-3.3698 2.6738-8.8593 3.3504-8.914 3.357-.008.001-.0162.0023-.0241.0036l-2.8429.5076c-.1528.0228-1.3854.2426-3.0339 1.5947-.5345.4431-1.0247.9355-1.464 1.4705zm23.2684-6.2269c-1.0931.8912-2.2873 1.6546-3.5587 2.2747.3334-.5282.6087-1.09.8212-1.6758.0372-.1001.0325-.2107-.013-.3073-.0455-.0967-.1281-.1716-.2296-.2083-.0503-.0181-.1037-.0264-.1572-.0242s-.106.0148-.1546.037c-.0981.0448-.1741.1262-.2113.2263-.8196 2.2059-1.906 2.7581-1.9332 2.7714-.0037.0016-.0065.0041-.01.0058-.7482.2857-1.511.5324-2.2854.7392.4931-.6083.8657-1.3025 1.0985-2.0465.7124-2.1524 1.4825-2.8819 1.5963-2.9809.8835-.5973 1.8374-1.0867 2.8407-1.4572-.2478.3533-.461.729-.6367 1.122-.0235.0479-.0368.1-.0392.1531-.0024.0532.0063.1063.0255.156s.0485.0951.0861.1332c.0376.0382.0827.0684.1325.0888.0999.0298.2069.0262.3044-.0104.0976-.0365.1801-.1039.2346-.1915.6844-1.5014 1.4332-1.8488 1.5534-1.8965.6883-.1244 1.3904-.1578 2.0877-.0993.0149.0013.031.0016.0461.0015h.011c-.2552.4058-.4467.8474-.568 1.3096-.2012.6948-.5568 1.3368-1.0411 1.8793zm-11.8185 4.574c.2524-.2888.4592-.6135.6134-.9631.0019-.0045.004-.0092.0058-.0138.0041-.01.3969-.9758.9522-1.5839 1.1822-.4522 2.3034-1.0463 3.3382-1.7689-.1884.4243-.3551.8575-.4995 1.2982-.7239 2.1876-2.0298 2.6679-2.1661 2.7127-.7113.1332-1.4582.2421-2.244.3191zm-8.3229.0008c.8928-.5214 1.4738-.6151 1.4923-.6178.0028 0 .0053-.0015.0081-.0019.0028-.0003.0067 0 .0102-.0009l2.6012-.4646c-.2614.4463-.6188.8308-1.0471 1.1264-.5982-.0249-1.8185-.0654-3.0647-.0408zm4.2307.1024c.3693-.3897.6604-.8447.8583-1.3409 1.1841-.2036 2.3522-.4894 3.4955-.8554-.1483.2634-.2811.5349-.3978.8133-.4265.9521-1.1123 1.3009-1.3018 1.3821-.846.0383-1.7303.0418-2.6544.0013zm19.7763-5.657c-.2188.1392-.4749.2108-.7353.2056h-1.0101c-.225.0007-.4494.0246-.6694.0713.1566-.3088.2827-.6317.3765-.9643.2291-.8198.5504-1.2273.6905-1.3748.6126.1727 1.1667.5052 1.6037.9623.0721.1661.2755.7463-.2562 1.1002z"/><path d="m13.3829 17.8526c.0614.0223.1266.0323.1919.0294.0653-.003.1293-.0188.1885-.0465.0591-.0277.1123-.0668.1563-.1151s.078-.1048.1002-.1663c.0284-.0784.0591-.1561.0919-.2331.0256-.0601.0391-.1246.0397-.19.0006-.0653-.0117-.1301-.0361-.1907-.0244-.0605-.0605-.1157-.1063-.1624-.0457-.0466-.1002-.0837-.1603-.1093s-.1247-.0391-.19-.0397-.1301.0117-.1907.0361-.1158.0605-.1624.1063c-.0466.0457-.0838.1002-.1093.1603-.04.094-.0775.189-.1119.2841-.0223.0615-.0322.1266-.0292.1919.003.0652.0188.1293.0465.1884.0277.0592.0668.1123.1151.1563.0482.044.1047.0781.1661.1003z"/><path d="m26.3769 27.6864c.1043.0001.2059-.0327.2903-.0939l.4759-.3426c.1051-.0779.1754-.194.1955-.3233.0202-.1292-.0114-.2612-.0879-.3674-.0765-.1061-.1917-.1779-.3207-.1997s-.2614.0081-.3685.0832l-.4758.3426c-.0854.0615-.1491.1486-.182.2486-.0328.1-.0331.2079-.0007.308.0324.1002.0957.1875.1809.2494.0851.0619.1877.0952.293.0951z"/><path d="m17.9096 27.3441c.2748 0 .4975-.2227.4975-.4975 0-.2747-.2227-.4975-.4975-.4975s-.4975.2228-.4975.4975c0 .2748.2227.4975.4975.4975z"/><path d="m12.55 31.1582c-.0979.0097-.1907.0482-.2667.1106-.076.0625-.1318.1461-.1604.2402-.0285.0942-.0285.1947.0001.2888.0286.0942.0845.1777.1605.2401.0761.0624.169.1008.2669.1105.0979.0096.1965-.01.2832-.0564.0868-.0464.1579-.1175.2042-.2042.0464-.0868.066-.1854.0564-.2833-.0064-.065-.0256-.1282-.0564-.1858s-.0727-.1086-.1232-.1501c-.0506-.0414-.1088-.0725-.1713-.0915-.0625-.0189-.1282-.0254-.1933-.0189z"/><path d="m9.9895 25.4077c-.0979.0097-.19074.0482-.26676.1107-.07603.0624-.13183.146-.16036.2401-.02852.0942-.02849.1947.0001.2889.02859.0941.08445.1776.16052.24s.16893.1009.26684.1105c.09796.0096.19646-.01.28326-.0564.0867-.0464.1578-.1174.2042-.2042s.066-.1854.0563-.2833c-.0064-.065-.0255-.1282-.0563-.1858-.0308-.0577-.0727-.1087-.1232-.1501-.0506-.0415-.1088-.0725-.1713-.0915-.0626-.0189-.1283-.0254-.1933-.0189z"/></g></svg>