<svg fill="none" height="64" viewBox="0 0 64 64" width="64" xmlns="http://www.w3.org/2000/svg"><g fill="#408f95"><path d="m57.2616 29.3118c-.0065-.3068-.0907-.6069-.2447-.8723-.4329-.7543-1.3854-1.2343-2.8288-1.4268-.8352-.1115-1.6205-.2479-2.3341-.4057-2.1873-.4869-4.4288-.6868-6.6678-.5944-1.8838.0708-3.7625.2412-5.6283.5105-.3953.06-.8544.1332-1.3634.2148-3.7797.6034-11.4697 1.8309-16.2462.8847-.6488-1.2251-.7606-2.3197-.3318-3.2565.931-2.0346 4.0832-2.9879 5.2244-3.2721 1.351 2.064 3.0683 3.3342 5.1084 3.7777 3.7946.8246 7.2897-1.5247 7.4368-1.6249.1122-.0767.1969-.1874.2417-.3158.0447-.1284.0472-.2678.0071-.3977-.0402-.1299-.1208-.2436-.2302-.3243-.1094-.0808-.2418-.1244-.3778-.1245-.3448-.0243-.6775-.1376-.9655-.3289-.6353-.386-1.1549-.936-1.5041-1.5922-1.3004-2.3959-3.1775-3.2891-4.2557-3.6162 2.1945-5.2561-.6588-8.6916-.7874-8.84163l-.0175-.01882c-.6881-.74127-.3011-2.08508-.2976-2.09638.0361-.11829.0369-.24452.0024-.36328s-.1028-.2249-.1966-.30546c-.0939-.08057-.2091-.13207-.3317-.14823-.1226-.01615-.2473.00374-.3588.05725-3.0306 1.45073-4.8352 4.15342-5.2195 7.81555-.1367 1.3902-.0877 2.7924.1458 4.1696-1.4618-.0981-2.9295-.0666-4.3858.0941-.5757.0565-11.50348 1.228-16.35355 9.8648-2.13459 3.8013-2.33412 8.365-.53421 12.2079 1.46823 3.1352 3.89553 5.5478 7.21766 7.184-.9709 1.028-1.76813 2.2072-2.36025 3.4914-2.05534 4.4528-6.4 3.7995-6.58259 3.7696-.13463-.0228-.27302-.0017-.39474.0602s-.22032.1612-.28126.2834-.08099.2608-.05719.3952c.02381.1345.0902.2577.18938.3516 2.06532 1.9539 4.70005 3.1049 7.26231 2.9239 4.86174-.3436 8.84124-4.5435 10.32544-6.3509.6112-.7543 1.29-1.4512 2.0279-2.0821.0277.0028.0555.0037.0834.0028 3.0906-.197 7.0543.017 7.0844.0189.1046.0073.207.0124.3113.0188-1.184.8394-2.1625 1.9361-2.8621 3.2077-1.0227 1.8347-3.6429 5.6659-7.6969 5.6932.7299-.5514 1.3005-1.2865 1.6536-2.1303s.4761-1.7662.3563-2.6731c-.0078-.0842-.0324-.1659-.0722-.2405s-.094-.1405-.1596-.1939c-.0655-.0534-.141-.0932-.2221-.1171s-.1661-.0314-.2501-.0221-.1654.0352-.2393.0763c-.0738.041-.1388.0964-.1911.1628s-.0908.1426-.1133.2241c-.0226.0814-.0287.1666-.0179.2504.1202.9502-.1023 1.9122-.6276 2.7131-.5687.8128-1.4012 1.4036-2.3562 1.6721-.1393.0295-.2647.1049-.3562.2141-.0914.1093-.1436.246-.1482.3884-.0045.1423.0388.2821.123.397s.2046.1982.3417.2366c.7404.2113 1.5062.3202 2.2762.3236 4.703 0 7.6638-4.2944 8.8124-6.3554.6684-1.2257 1.6376-2.2613 2.8164-3.0093.4462-.2751.9144-.513 1.3997-.7114.0075-.0032.0137-.0079.0211-.0113.1991.0025.3985.0053.5953.0053 12.9119 0 20.7174-5.3378 23.6121-7.7826.6887-.5821 1.5609-.9022 2.4627-.9035h1.5764c.661.0089 1.3095-.1806 1.8617-.544 1.4039-.948 1.209-2.477.8631-3.286.024-.9734-.1307-5.546-4.9902-7.3218zm-38.9598 20.9713c-1.0756 1.3095-4.9332 5.6054-9.42134 5.888-1.73478.1092-3.40386-.3921-4.98127-1.492 1.8208-.2155 4.5344-1.135 6.08696-4.4988.01715-.0391 1.75155-3.9307 4.46665-4.6095.1626-.0421.3021-.1467.3879-.2911.0859-.1443.1112-.3168.0705-.4798s-.1442-.3033-.2879-.3903-.3159-.1138-.4792-.0744c-.6889.1817-1.3367.4935-1.9083.9186-3.30828-1.5074-5.70358-3.7965-7.11534-6.8113-1.62636-3.4716-1.44264-7.6002.49129-11.0439 4.54495-8.0942 15.26585-9.2115 15.37355-9.2217.0028 0 .0053-.0013.0081-.0017s.0055 0 .0081 0c.0271-.0032 2.714-.3211 4.9479-.0017.1041.0148.2102.0035.3089-.0327s.1869-.0962.2567-.1748c.0699-.0785.1192-.1731.1437-.2753.0244-.1023.0232-.2089-.0036-.3106-.3479-1.5199-.446-3.0863-.2904-4.6377.2993-2.77198 1.4592-4.84219 3.4532-6.17095-.0011.72276.2589 1.42158.7322 1.96782.1828.22211 2.6489 3.36323.2748 8.17733-.0457.0927-.0682.1951-.0655.2984s.0305.2045.0811.2946c.0505.0902.1222.1667.209.2229.0867.0562.1858.0905.2887.0998.0253.0023 2.5376.2624 4.1006 3.1394.4586.8576 1.1399 1.5758 1.9721 2.0789.0068.0038.0136.0079.0203.0121-1.2259.56-3.2071 1.2047-5.2194.7634-1.807-.3953-3.3302-1.6-4.5266-3.5817-.0672-.111-.1666-.1989-.2851-.2519-.1184-.053-.2502-.0685-.3777-.0446-.2093.0392-5.1473.9999-6.5623 4.0859-.4706 1.0283-.4992 2.1517-.0881 3.3524-.6451-.2228-1.2348-.5817-1.7291-1.0524-.3723-.3648-.655-.8111-.8256-1.3037-.0257-.0799-.0669-.154-.1213-.2179s-.1209-.1164-.1956-.1545c-.0748-.0382-.1564-.0611-.24-.0676-.0837-.0065-.1679.0036-.2476.0298-.0798.0262-.1535.0678-.2171.1226s-.1157.1216-.1534.1966-.0601.1567-.0661.2404.0047.1678.0313.2474c.2312.6794.6173 1.2957 1.1279 1.8001 3.6307 3.6881 14.7087 1.9189 20.6604.9685.505-.0808.96-.1535 1.3532-.2129 1.8206-.2624 3.6538-.4284 5.4919-.4974 2.1283-.0879 4.2589.1019 6.3381.5647.7486.1655 1.5697.3086 2.4405.4247 1.3299.1773 1.692.5032 1.967 1.0295-.2991.0961-.6079.1593-.9208.1882-.507.0494-1.0181.0376-1.5223-.0354-3.3264-.4176-6.7031.1188-9.7364 1.5466-2.1113 1.0288-3.9668 2.515-5.4318 4.3506-1.3827 1.6987-5.2329 5.655-11.1028 5.7019-.167.0034-.326.0724-.4427.1919-.1166.1196-.1816.2802-.1809.4473.0006.167.0669.3271.1845.4457.1176.1187.2771.1864.4441.1885h.0053c6.4107-.051 10.5837-4.3328 12.08-6.1713 1.3467-1.6895 3.0527-3.0579 4.9943-4.0058 2.8088-1.3231 5.9359-1.8202 9.0165-1.4333.6059.0865 1.22.0997 1.829.0394.4812-.0421.9539-.1523 1.4041-.3272 3.1092 1.0411 4.0256 3.3506 4.2838 4.8603-1.106-.7482-2.4027-1.1651-3.7376-1.2016h-.0075c-7.0705-.6162-12.9658 4.7797-13.4212 5.208-5.2625 4.2362-13.8353 5.3082-13.9207 5.3187-.0124.0015-.0252.0036-.0377.0057l-4.4395.8043c-.2387.0361-2.1636.3844-4.7381 2.5267-.8346.7019-1.6002 1.4821-2.2863 2.3298zm36.3377-9.866c-1.707 1.4121-3.572 2.6215-5.5576 3.6041.5207-.8369.9506-1.727 1.2824-2.6552.0581-.1586.0508-.3337-.0202-.4869-.0711-.1532-.2-.2719-.3586-.33-.0785-.0287-.1619-.0417-.2455-.0383-.0835.0035-.1655.0234-.2414.0586-.1532.071-.2719.2-.33.3586-1.28 3.4949-2.9765 4.3699-3.0191 4.3909-.0056.0027-.0101.0066-.0156.0093-1.1683.4526-2.3596.8435-3.5689 1.1712.77-.9638 1.3519-2.0637 1.7154-3.2426 1.1126-3.4102 2.3153-4.566 2.493-4.7228 1.3797-.9464 2.8693-1.7218 4.4361-2.3089-.3869.5598-.7198 1.155-.9943 1.7777-.0367.0759-.0575.1585-.0612.2427-.0036.0842.0099.1683.0399.2471.0299.0787.0757.1506.1344.2111s.1291.1084.2069.1407c.156.0472.3232.0414.4755-.0165s.2811-.1646.3663-.3035c1.0688-2.3787 2.2381-2.9291 2.4258-3.0048 1.075-.197 2.1715-.2499 3.2604-.1574.0232.0021.0484.0027.0719.0025h.0172c-.3986.643-.6976 1.3425-.887 2.0749-.3142 1.1009-.8696 2.118-1.6258 2.9775zm-18.4566 7.2471c.3942-.4576.7171-.972.9579-1.5259.003-.0071.0062-.0147.009-.0218.0064-.016.6199-1.5462 1.4871-2.5096 1.8462-.7165 3.5971-1.6578 5.2132-2.8026-.2943.6721-.5547 1.3586-.7801 2.0568-1.1305 3.466-3.1699 4.2271-3.3828 4.298-1.1107.211-2.2772.3836-3.5043.5056zm-12.9977.0013c1.3943-.8262 2.3016-.9745 2.3306-.9788.0043 0 .0082-.0025.0126-.0031.0043-.0005.0105 0 .016-.0015l4.0621-.736c-.4083.7072-.9664 1.3163-1.6352 1.7847-.9342-.0395-2.8399-.1037-4.7861-.0648zm6.6071.1622c.5766-.6174 1.0313-1.3383 1.3402-2.1246 1.8493-.3224 3.6735-.7753 5.4588-1.3553-.2315.4174-.4389.8476-.6211 1.2887-.666 1.5085-1.7371 2.0612-2.033 2.1897-1.3212.0608-2.7021.0663-4.1453.0021zm30.8839-8.963c-.3417.2206-.7415.3341-1.1482.3259h-1.5774c-.3515.0011-.7019.039-1.0455.1129.2446-.4892.4416-1.0009.5881-1.5279.3576-1.2988.8594-1.9445 1.0782-2.1783.9567.2738 1.822.8005 2.5045 1.5247.1125.2632.4303 1.1825-.4 1.7433z"/><path d="m17.131 22.8518c.0786.0285.1621.0413.2457.0375.0835-.0037.1655-.0239.2412-.0594.0758-.0355.1437-.0856.2001-.1474.0563-.0618.0999-.1342.1283-.2128.0364-.1004.0756-.1999.1176-.2984.0328-.0769.05-.1596.0508-.2432s-.0149-.1665-.0461-.2441c-.0313-.0775-.0775-.1481-.1361-.2078s-.1283-.1073-.2052-.14c-.077-.0327-.1596-.05-.2432-.0508s-.1666.0149-.2441.0462c-.0776.0312-.1482.0775-.2079.136-.0596.0586-.1072.1283-.1399.2053-.0512.1202-.0992.2418-.1433.3636-.0284.0787-.0411.1621-.0373.2456s.024.1655.0595.2412.0855.1437.1473.2c.0618.0564.134.1.2126.1285z"/><path d="m33.7634 35.4389c.1335.0002.2635-.0419.3716-.1201l.6091-.4386c.1346-.0997.2246-.2483.2503-.4138.0258-.1655-.0146-.3344-.1125-.4703s-.2454-.2277-.4105-.2556-.3346.0103-.4717.1065l-.609.4385c-.1094.0788-.1909.1902-.233.3182-.042.128-.0423.2661-.0009.3943.0415.1282.1225.24.2315.3192.109.0793.2404.1218.3751.1217z"/><path d="m22.9229 35.0003c.3517 0 .6368-.2851.6368-.6368s-.2851-.6368-.6368-.6368-.6368.2851-.6368.6368.2851.6368.6368.6368z"/><path d="m16.0633 39.8824c-.1253.0124-.2441.0617-.3414.1416-.0974.0799-.1688.1869-.2053.3074-.0365.1206-.0365.2492.0001.3697s.1081.2275.2055.3073c.0974.0799.2162.1291.3416.1414.1253.0123.2515-.0128.3625-.0722.1111-.0593.202-.1503.2614-.2614.0593-.111.0844-.2372.0721-.3625-.0082-.0833-.0327-.1641-.0722-.2379-.0394-.0737-.093-.139-.1577-.1921-.0647-.053-.1392-.0928-.2192-.1171-.0801-.0242-.1641-.0325-.2474-.0242z"/><path d="m12.786 32.522c-.1253.0124-.2442.0617-.3415.1416s-.1687.1869-.2052.3075c-.0365.1205-.0365.2491.0001.3696s.1081.2275.2055.3073c.0973.0799.2162.1291.3415.1414s.2515-.0128.3626-.0721c.111-.0594.202-.1504.2613-.2615.0594-.111.0845-.2372.0721-.3625-.0081-.0833-.0326-.1641-.0721-.2379-.0394-.0738-.093-.1391-.1577-.1921-.0647-.0531-.1392-.0929-.2192-.1171-.0801-.0243-.1642-.0325-.2474-.0242z"/></g></svg>